<svg xmlns="http://www.w3.org/2000/svg" viewBox="0 0 48 48"><defs><style>.cls-1{fill:#b5e08c;}.cls-2{fill:#9dcc6b;}.cls-3{fill:#6fabe6;}.cls-4{fill:#82bcf4;}</style></defs><title>24 hour cutomer service</title><g id="_24_hour_cutomer_service" data-name="24 hour cutomer service"><path class="cls-1" d="M30,39a6,6,0,0,1-6,5A23,23,0,0,1,1,21a6,6,0,0,1,5-6l7,7a6,6,0,0,1-6,5A18,18,0,0,0,18,38a6,6,0,0,1,5-6Z"/><path class="cls-2" d="M25,42A23,23,0,0,1,2,19a6.21,6.21,0,0,1,.27-1.74A6.18,6.18,0,0,0,1,21,23,23,0,0,0,24,44a6,6,0,0,0,5.84-4.35A6.14,6.14,0,0,1,25,42Z"/><path class="cls-3" d="M47,7c0,13,.07,12.35-.18,13A3,3,0,0,1,44,22H31.24c-1.63,0-1.86.62-7.24,6l-2-6a3,3,0,0,1-3-3V7a3,3,0,0,1,3-3H44A3,3,0,0,1,47,7Z"/><path class="cls-4" d="M47,7c0,13,.07,12.35-.18,13H38A16,16,0,0,1,22,4c0-.1,22.1,0,22,0A3,3,0,0,1,47,7Z"/><path d="M23.71,31.29c-1-1-5.69.85-6.57,5.26a17.18,17.18,0,0,1-8.7-8.69A6.9,6.9,0,0,0,14,22.15c.11-.71.16-.41-7.28-7.86C5.53,13.12,0,15.7,0,21,0,43.45,29.1,51.76,31,39.15,31.1,38.44,31.15,38.74,23.71,31.29ZM24,43A22,22,0,0,1,2,21a5,5,0,0,1,3.67-4.91l6.24,6.24A5,5,0,0,1,7,26a1,1,0,0,0-.93,1.33A19.11,19.11,0,0,0,17.67,38.91,1,1,0,0,0,19,38a5,5,0,0,1,3.67-4.9l6.24,6.25A5,5,0,0,1,24,43Z"/><path d="M28,10.41A2.41,2.41,0,0,0,25.59,8H23a1,1,0,0,0,0,2c4.21,0,4.07-.48-.71,4.29A1,1,0,0,0,23,16h4a1,1,0,0,0,0-2H25.41C27.19,12.22,28,11.71,28,10.41Z"/><path d="M33,9v2H31V9a1,1,0,0,0-2,0v3a1,1,0,0,0,1,1h3v2a1,1,0,0,0,2,0V9A1,1,0,0,0,33,9Z"/><path d="M43,11H40V9a1,1,0,0,0-2,0v6a1,1,0,0,0,2,0V13h2v2a1,1,0,0,0,2,0V12A1,1,0,0,0,43,11Z"/><path d="M44,3H22a4,4,0,0,0-4,4V19a4,4,0,0,0,3.26,3.93c1.93,5.81,1.78,5.87,2.51,6a1,1,0,0,0,.94-.26C30.09,23.32,30.13,23,31.24,23H44a4,4,0,0,0,4-4V7A4,4,0,0,0,44,3Zm2,16a2,2,0,0,1-2,2H31.24c-2.09,0-2.59.93-6.8,5.15C22.88,21.47,23,21,22,21a2,2,0,0,1-2-2V7a2,2,0,0,1,2-2H44a2,2,0,0,1,2,2Z"/></g></svg>