<svg width="64" height="64" viewBox="0 0 64 64" fill="none" xmlns="http://www.w3.org/2000/svg">
<rect width="64" height="64" rx="32" fill="#F4EEA9"/>
<path d="M37.25 20C38.4688 20 39.5 21.0312 39.5 22.25V41.75C39.5 43.0156 38.4688 44 37.25 44H26.75C25.4844 44 24.5 43.0156 24.5 41.75V22.25C24.5 21.0312 25.4844 20 26.75 20H37.25ZM32 42.5C32.7969 42.5 33.5 41.8438 33.5 41C33.5 40.2031 32.7969 39.5 32 39.5C31.1562 39.5 30.5 40.2031 30.5 41C30.5 41.8438 31.1562 42.5 32 42.5ZM37.25 37.4375V22.8125C37.25 22.5312 36.9688 22.25 36.6875 22.25H27.3125C26.9844 22.25 26.75 22.5312 26.75 22.8125V37.4375C26.75 37.7656 26.9844 38 27.3125 38H36.6875C36.9688 38 37.25 37.7656 37.25 37.4375Z" fill="#333333"/>
</svg>
