<svg width="64" height="64" viewBox="0 0 64 64" fill="none" xmlns="http://www.w3.org/2000/svg">
<rect width="64" height="64" rx="32" fill="#F4EEA9"/>
<path d="M31.0625 43.5312C24.2188 33.6875 23 32.6562 23 29C23 24.0312 26.9844 20 32 20C36.9688 20 41 24.0312 41 29C41 32.6562 39.7344 33.6875 32.8906 43.5312C32.4688 44.1875 31.4844 44.1875 31.0625 43.5312ZM32 32.75C34.0625 32.75 35.75 31.1094 35.75 29C35.75 26.9375 34.0625 25.25 32 25.25C29.8906 25.25 28.25 26.9375 28.25 29C28.25 31.1094 29.8906 32.75 32 32.75Z" fill="#333333"/>
</svg>
