<svg width="64" height="64" viewBox="0 0 64 64" fill="none" xmlns="http://www.w3.org/2000/svg">
<rect width="64" height="64" rx="32" fill="#F4EEA9"/>
<path d="M43.5312 28.9531C43.7188 28.8125 44 28.9531 44 29.1875V38.75C44 40.0156 42.9688 41 41.75 41H22.25C20.9844 41 20 40.0156 20 38.75V29.1875C20 28.9531 20.2344 28.8125 20.4219 28.9531C21.5 29.7969 22.8594 30.8281 27.6406 34.2969C28.625 35 30.3125 36.5469 32 36.5469C33.6406 36.5469 35.375 35 36.3125 34.2969C41.0938 30.8281 42.4531 29.7969 43.5312 28.9531ZM32 35C30.875 35.0469 29.3281 33.6406 28.5312 33.0781C22.2969 28.5781 21.8281 28.1562 20.4219 27.0312C20.1406 26.8438 20 26.5156 20 26.1406V25.25C20 24.0312 20.9844 23 22.25 23H41.75C42.9688 23 44 24.0312 44 25.25V26.1406C44 26.5156 43.8125 26.8438 43.5312 27.0312C42.125 28.1562 41.6562 28.5781 35.4219 33.0781C34.625 33.6406 33.0781 35.0469 32 35Z" fill="#333333"/>
</svg>
