<svg xmlns="http://www.w3.org/2000/svg" viewBox="0 0 48 48"><defs><style>.cls-1{fill:#db5669;}.cls-2{fill:#f26674;}.cls-3{fill:#7c7d7d;}.cls-4{fill:#919191;}.cls-5{fill:#dad7e5;}.cls-6{fill:#edebf2;}.cls-7{fill:#c6c3d8;}</style></defs><title>fire extinguisher</title><g id="fire_extinguisher" data-name="fire extinguisher"><path class="cls-1" d="M33,17c0,28.06.22,26.67-.52,28A4,4,0,0,1,29,47H19a4,4,0,0,1-4-4V17a6,6,0,0,1,6-6h6A6,6,0,0,1,33,17Z"/><path class="cls-2" d="M33,17c0,29.56.36,27.21-1,28A14,14,0,0,1,18,31C18,13,17.29,11,21,11h6A6,6,0,0,1,33,17Z"/><path class="cls-1" d="M27,4v7H21V4a3,3,0,0,1,6,0Z"/><path class="cls-2" d="M27,4v6a4,4,0,0,1-4-4c0-1.62-.23-4.5.79-5A3,3,0,0,1,27,4Z"/><path class="cls-3" d="M34,1a4.07,4.07,0,0,1-1.17,2.83C31.33,5.31,29.77,5,27,5V4a3,3,0,0,0-3-3Z"/><path class="cls-4" d="M34,1a4,4,0,0,1-.72,2.28A4,4,0,0,1,31,4c-3.06,0-3.42-2.62-3.77-3Z"/><path class="cls-5" d="M27,4a3,3,0,1,1-4.56-2.56A3,3,0,0,1,27,4Z"/><path class="cls-6" d="M26.56,5.56a3,3,0,0,1-4.12-4.12A3,3,0,0,1,26.56,5.56Z"/><rect class="cls-7" x="7" y="39" width="4" height="8"/><path class="cls-5" d="M11,39v7a3,3,0,0,1-3-3V39Z"/><rect class="cls-5" x="19" y="17" width="10" height="14"/><path class="cls-6" d="M29,17c0,12.64-.1,12,0,12a8,8,0,0,1-8-8V17Z"/><path d="M28,10.08V6.77l3.49,2.09a1,1,0,0,0,1-1.72L30.56,6c4.27-.48,5.59-6,3.44-6H24a4,4,0,0,0-3.87,3A13,13,0,0,0,8,16V34a1,1,0,0,0,0,2v2H7a1,1,0,0,0-1,1v8a1,1,0,0,0,1,1h4a1,1,0,0,0,1-1V39a1,1,0,0,0-1-1H10V36h4v7a5,5,0,0,0,5,5H29a5,5,0,0,0,5-5V17A7,7,0,0,0,28,10.08ZM10,46H8V40h2ZM22,7.44a3.84,3.84,0,0,0,4,0V10H22ZM30,4c-3.4,0-1.16.4-2.56-2h5.39A3,3,0,0,1,30,4ZM24,2a2,2,0,1,1-2,2A2,2,0,0,1,24,2ZM10,34V16A11,11,0,0,1,20,5.05v5A7,7,0,0,0,14,17V34ZM29,46H19a3,3,0,0,1-3-3V36H32v7A3,3,0,0,1,29,46Zm3-12H16V17a5,5,0,0,1,5-5h6a5,5,0,0,1,5,5Z"/><path d="M29,16H19a1,1,0,0,0-1,1V31a1,1,0,0,0,1,1H29a1,1,0,0,0,1-1V17A1,1,0,0,0,29,16ZM28,30H20V18h8Z"/></g></svg>