<svg width="32" height="33" viewBox="0 0 32 33" fill="none" xmlns="http://www.w3.org/2000/svg">
<rect y="0.582031" width="32" height="32" rx="16" fill="#389844"/>
<path d="M21.5508 13.4883C21.5508 13.625 21.5508 13.7344 21.5508 13.8711C21.5508 17.6719 18.6797 22.0195 13.4023 22.0195C11.7617 22.0195 10.2578 21.5547 9 20.7344C9.21875 20.7617 9.4375 20.7891 9.68359 20.7891C11.0234 20.7891 12.2539 20.3242 13.2383 19.5586C11.9805 19.5312 10.9141 18.7109 10.5586 17.5625C10.75 17.5898 10.9141 17.6172 11.1055 17.6172C11.3516 17.6172 11.625 17.5625 11.8438 17.5078C10.5312 17.2344 9.54688 16.0859 9.54688 14.6914V14.6641C9.92969 14.8828 10.3945 14.9922 10.8594 15.0195C10.0664 14.5 9.57422 13.625 9.57422 12.6406C9.57422 12.0938 9.71094 11.6016 9.95703 11.1914C11.3789 12.9141 13.5117 14.0625 15.8906 14.1992C15.8359 13.9805 15.8086 13.7617 15.8086 13.543C15.8086 11.957 17.0938 10.6719 18.6797 10.6719C19.5 10.6719 20.2383 11 20.7852 11.5742C21.4141 11.4375 22.043 11.1914 22.5898 10.8633C22.3711 11.5469 21.9336 12.0938 21.332 12.4492C21.9062 12.3945 22.4805 12.2305 22.9727 12.0117C22.5898 12.5859 22.0977 13.0781 21.5508 13.4883Z" fill="white"/>
</svg>
