<svg width="32" height="33" viewBox="0 0 32 33" fill="none" xmlns="http://www.w3.org/2000/svg">
<rect y="0.582031" width="32" height="32" rx="16" fill="#389844"/>
<path d="M23.0117 12.75C23.3398 13.8984 23.3398 16.3594 23.3398 16.3594C23.3398 16.3594 23.3398 18.793 23.0117 19.9688C22.8477 20.625 22.3281 21.1172 21.6992 21.2812C20.5234 21.582 15.875 21.582 15.875 21.582C15.875 21.582 11.1992 21.582 10.0234 21.2812C9.39453 21.1172 8.875 20.625 8.71094 19.9688C8.38281 18.793 8.38281 16.3594 8.38281 16.3594C8.38281 16.3594 8.38281 13.8984 8.71094 12.75C8.875 12.0938 9.39453 11.5742 10.0234 11.4102C11.1992 11.082 15.875 11.082 15.875 11.082C15.875 11.082 20.5234 11.082 21.6992 11.4102C22.3281 11.5742 22.8477 12.0938 23.0117 12.75ZM14.3438 18.5742L18.2266 16.3594L14.3438 14.1445V18.5742Z" fill="white"/>
</svg>
