<svg width="32" height="33" viewBox="0 0 32 33" fill="none" xmlns="http://www.w3.org/2000/svg">
<rect y="0.582031" width="32" height="32" rx="16" fill="#389844"/>
<path d="M15.625 13.1875C17.3477 13.1875 18.7695 14.6094 18.7695 16.332C18.7695 18.082 17.3477 19.4766 15.625 19.4766C13.875 19.4766 12.4805 18.082 12.4805 16.332C12.4805 14.6094 13.875 13.1875 15.625 13.1875ZM15.625 18.3828C16.7461 18.3828 17.6484 17.4805 17.6484 16.332C17.6484 15.2109 16.7461 14.3086 15.625 14.3086C14.4766 14.3086 13.5742 15.2109 13.5742 16.332C13.5742 17.4805 14.5039 18.3828 15.625 18.3828ZM19.6172 13.0781C19.6172 13.4883 19.2891 13.8164 18.8789 13.8164C18.4688 13.8164 18.1406 13.4883 18.1406 13.0781C18.1406 12.668 18.4688 12.3398 18.8789 12.3398C19.2891 12.3398 19.6172 12.668 19.6172 13.0781ZM21.6953 13.8164C21.75 14.8281 21.75 17.8633 21.6953 18.875C21.6406 19.8594 21.4219 20.707 20.7109 21.4453C20 22.1562 19.125 22.375 18.1406 22.4297C17.1289 22.4844 14.0938 22.4844 13.082 22.4297C12.0977 22.375 11.25 22.1562 10.5117 21.4453C9.80078 20.707 9.58203 19.8594 9.52734 18.875C9.47266 17.8633 9.47266 14.8281 9.52734 13.8164C9.58203 12.832 9.80078 11.957 10.5117 11.2461C11.25 10.5352 12.0977 10.3164 13.082 10.2617C14.0938 10.207 17.1289 10.207 18.1406 10.2617C19.125 10.3164 20 10.5352 20.7109 11.2461C21.4219 11.957 21.6406 12.832 21.6953 13.8164ZM20.3828 19.9414C20.7109 19.1484 20.6289 17.2344 20.6289 16.332C20.6289 15.457 20.7109 13.543 20.3828 12.7227C20.1641 12.2031 19.7539 11.7656 19.2344 11.5742C18.4141 11.2461 16.5 11.3281 15.625 11.3281C14.7227 11.3281 12.8086 11.2461 12.0156 11.5742C11.4688 11.793 11.0586 12.2031 10.8398 12.7227C10.5117 13.543 10.5938 15.457 10.5938 16.332C10.5938 17.2344 10.5117 19.1484 10.8398 19.9414C11.0586 20.4883 11.4688 20.8984 12.0156 21.1172C12.8086 21.4453 14.7227 21.3633 15.625 21.3633C16.5 21.3633 18.4141 21.4453 19.2344 21.1172C19.7539 20.8984 20.1914 20.4883 20.3828 19.9414Z" fill="white"/>
</svg>
