<svg width="16" height="16" viewBox="0 0 16 16" fill="none" xmlns="http://www.w3.org/2000/svg">
<path d="M15.4434 1.10742C15.7656 1.19531 16 1.45898 16 1.78125C16 9.31055 9.90625 15.375 2.40625 15.375C2.05469 15.375 1.79102 15.1699 1.70312 14.8477L1 11.8008C0.941406 11.4785 1.08789 11.127 1.41016 10.9805L4.69141 9.57422C4.98438 9.45703 5.30664 9.54492 5.51172 9.7793L6.97656 11.5664C9.26172 10.4824 11.1074 8.60742 12.1621 6.38086L10.375 4.91602C10.1406 4.71094 10.0527 4.38867 10.1699 4.0957L11.5762 0.814453C11.7227 0.492188 12.0742 0.316406 12.3965 0.404297L15.4434 1.10742Z" fill="#F4EEA9"/>
</svg>
