<svg width="47" height="32" viewBox="0 0 47 32" fill="none" xmlns="http://www.w3.org/2000/svg">
<path d="M19.1553 5.28346C17.9378 3.38751 16.1379 1.93792 14.026 1.15258C11.9141 0.367228 9.6044 0.288548 7.44396 0.928363C5.28353 1.56818 3.38912 2.89192 2.04547 4.70063C0.701811 6.50934 -0.0184966 8.7053 -0.00719319 10.9585C-0.00607253 12.8243 0.496085 14.6556 1.44682 16.2611C2.39756 17.8665 3.76198 19.1872 5.39755 20.0851C7.03311 20.983 8.8798 21.4253 10.7447 21.3656C12.6096 21.306 14.4242 20.7466 15.9991 19.746C15.1803 22.1772 13.6553 24.771 11.1428 27.371C10.6621 27.8682 10.3986 28.5361 10.4104 29.2277C10.4162 29.5701 10.4893 29.908 10.6257 30.2221C10.7621 30.5363 10.9591 30.8204 11.2053 31.0585C11.4515 31.2965 11.7422 31.4837 12.0608 31.6094C12.3794 31.735 12.7196 31.7967 13.062 31.7909C13.7535 31.7792 14.4121 31.4932 14.8928 30.996C24.1803 21.371 22.9741 10.9085 19.1553 5.29596V5.28346ZM44.1553 5.28346C42.9378 3.38751 41.1379 1.93792 39.026 1.15258C36.9141 0.367228 34.6044 0.288548 32.444 0.928363C30.2835 1.56818 28.3891 2.89192 27.0455 4.70063C25.7018 6.50934 24.9815 8.7053 24.9928 10.9585C24.9939 12.8243 25.4961 14.6556 26.4468 16.2611C27.3976 17.8665 28.762 19.1872 30.3975 20.0851C32.0331 20.983 33.8798 21.4253 35.7447 21.3656C37.6096 21.306 39.4242 20.7466 40.9991 19.746C40.1803 22.1772 38.6553 24.771 36.1428 27.371C35.9048 27.6172 35.7176 27.9079 35.5919 28.2265C35.4662 28.545 35.4045 28.8852 35.4104 29.2277C35.4162 29.5701 35.4893 29.908 35.6257 30.2221C35.7621 30.5363 35.9591 30.8204 36.2053 31.0585C36.4515 31.2965 36.7422 31.4837 37.0608 31.6094C37.3794 31.735 37.7196 31.7967 38.062 31.7909C38.4044 31.7851 38.7423 31.7119 39.0565 31.5755C39.3706 31.4391 39.6548 31.2422 39.8928 30.996C49.1803 21.371 47.9741 10.9085 44.1553 5.29596V5.28346Z" fill="#CFD3D2"/>
</svg>
