<svg width="11" height="8" viewBox="0 0 11 8" fill="none" xmlns="http://www.w3.org/2000/svg">
<path d="M5.5 4.39844L2.3125 7.58594C2.07812 7.82031 1.72656 7.82031 1.51562 7.58594L0.976562 7.07031C0.765625 6.83594 0.765625 6.48438 0.976562 6.27344L3.25 4.02344L0.976562 1.75C0.765625 1.53906 0.765625 1.1875 0.976562 0.953125L1.51562 0.414062C1.72656 0.203125 2.07812 0.203125 2.3125 0.414062L5.5 3.60156C5.71094 3.83594 5.71094 4.1875 5.5 4.39844ZM10 3.60156C10.2109 3.83594 10.2109 4.1875 10 4.39844L6.8125 7.58594C6.60156 7.82031 6.22656 7.82031 6.01562 7.58594L5.47656 7.07031C5.26562 6.83594 5.26562 6.48438 5.47656 6.27344L7.75 4L5.47656 1.75C5.26562 1.53906 5.26562 1.16406 5.47656 0.953125L6.01562 0.414062C6.22656 0.203125 6.57812 0.203125 6.8125 0.414062L10 3.60156Z" fill="white"/>
</svg>
