<svg width="80" height="64" viewBox="0 0 80 64" fill="none" xmlns="http://www.w3.org/2000/svg">
<path d="M26.4656 21.9957C26.4656 21.8332 26.4656 19.468 26.4656 19.468H25.0602C25.0602 19.468 25.0602 21.7965 25.0602 21.87C25.0602 22.2999 24.6617 22.5884 23.9904 22.5884C23.2877 22.5884 22.9049 22.3104 22.9049 21.8646C22.9049 21.7912 22.9049 19.468 22.9049 19.468H21.4836C21.4836 19.468 21.4836 21.6758 21.4836 21.8646C21.4836 23.1127 22.5063 23.6424 23.9327 23.6424C25.4588 23.6424 26.4656 23.1075 26.4656 21.9957Z" fill="#394149" fill-opacity="0.7"/>
<path d="M31.1989 23.5847V22.4887H28.6922V19.468H27.271V23.5847H31.1989Z" fill="#394149" fill-opacity="0.7"/>
<path d="M35.4225 20.5012V19.468H30.5087V20.5012H32.2445V23.5847H33.6814V20.5012H35.4225Z" fill="#394149" fill-opacity="0.7"/>
<path d="M37.3119 23.5847V19.468H35.8698V23.5847H37.3119Z" fill="#394149" fill-opacity="0.7"/>
<path d="M43.9284 23.5847V19.468H42.1506L41.0283 21.9381L39.9586 19.468H38.123V23.5847H39.4603V21.3613L40.4252 23.5847H41.621L42.5963 21.3613V23.5847H43.9284Z" fill="#394149" fill-opacity="0.7"/>
<path d="M46.1557 22.8243H48.3793L48.7412 23.5847H50.2567L48.18 19.468H46.4862L44.2888 23.5847H45.7729L46.1557 22.8243ZM47.9335 21.9013H46.6172L47.1364 20.9102L47.2937 20.5327L47.4406 20.905L47.9335 21.9013Z" fill="#394149" fill-opacity="0.7"/>
<path d="M54.7143 20.5012V19.468H49.8007V20.5012H51.5364V23.5847H52.9735V20.5012H54.7143Z" fill="#394149" fill-opacity="0.7"/>
<path d="M59.493 23.5847V22.5621H56.5415V22.0272H59.3724V21.0256H56.5415V20.4959H59.4567V19.468H55.157V23.5847H59.493Z" fill="#394149" fill-opacity="0.7"/>
<path d="M32.2014 25.7731H30.8431C30.8431 25.7731 29.9568 28.3637 29.9568 28.4267C29.9568 28.3637 29.1283 25.7731 29.1283 25.7731H27.6547C27.6547 25.7731 26.8313 28.3637 26.8313 28.4267C26.8313 28.3637 25.9398 25.7731 25.9398 25.7731H24.4137L25.9556 29.8898H27.4921C27.4921 29.8898 28.3207 27.4303 28.3259 27.3621C28.3311 27.4303 29.1545 29.8898 29.1545 29.8898H30.6963L32.2014 25.7731Z" fill="#394149" fill-opacity="0.7"/>
<path d="M34.0598 29.8898V25.7731H32.6177V29.8898H34.0598Z" fill="#394149" fill-opacity="0.7"/>
<path d="M39.6695 29.8898V25.7731H38.327V28.0124L36.3499 25.7731H34.871V29.8898H36.224V27.5981L38.264 29.8898H39.6695Z" fill="#394149" fill-opacity="0.7"/>
<path d="M45.2875 29.8898V25.7731H43.945V28.0124L41.968 25.7731H40.4891V29.8898H41.8421V27.5981L43.8821 29.8898H45.2875Z" fill="#394149" fill-opacity="0.7"/>
<path d="M50.444 29.8898V28.8672H47.4916V28.3323H50.3234V27.3307H47.4916V26.801H50.4073V25.7731H46.1071V29.8898H50.444Z" fill="#394149" fill-opacity="0.7"/>
<path d="M55.9878 27.0265C55.9878 26.6542 55.8982 26.3867 55.7094 26.1927C55.463 25.9305 55.0385 25.7731 54.3878 25.7731H51.1106V29.8898H52.5108V28.4372H53.7852L54.8081 29.8898H56.3708L55.1281 28.2116C55.4054 28.1697 55.6316 28.0019 55.7777 27.8027C55.9089 27.6191 55.9878 27.3464 55.9878 27.0265ZM54.6246 27.1576C54.6246 27.2258 54.614 27.3097 54.5766 27.3726C54.5244 27.4775 54.3878 27.5195 54.1628 27.5195H52.516V26.7695H54.1361C54.3569 26.7695 54.5041 26.8062 54.5766 26.9426C54.614 26.995 54.6246 27.0789 54.6246 27.1576Z" fill="#394149" fill-opacity="0.7"/>
<path d="M27.0569 33.9399C27.0569 33.8726 27.0569 31.9283 27.0569 31.9283H26.5659C26.5659 31.9283 26.5659 33.8646 26.5659 33.9083C26.5659 34.3755 26.1263 34.6408 25.4927 34.6408C24.7444 34.6408 24.376 34.3557 24.376 33.9043C24.376 33.8607 24.376 31.9283 24.376 31.9283H23.8811C23.8811 31.9283 23.8811 33.8132 23.8811 33.8884C23.8811 34.7121 24.5226 35.0764 25.473 35.0764C26.455 35.0764 27.0569 34.6883 27.0569 33.9399Z" fill="#394149" fill-opacity="0.7"/>
<path d="M30.58 35.0368V34.5814H28.4377V31.9283H27.9427V35.0368H30.58Z" fill="#394149" fill-opacity="0.7"/>
<path d="M33.3926 32.3797V31.9283H30.09V32.3797H31.4918V35.0368H31.9908V32.3797H33.3926Z" fill="#394149" fill-opacity="0.7"/>
<path d="M36.9121 32.8074C36.9121 32.5856 36.8645 32.4232 36.7814 32.2926C36.6349 32.0748 36.3537 31.9283 35.8865 31.9283H33.8749V35.0368H34.3619V33.7261H35.7795L36.6467 35.0368H37.217L36.2785 33.6429C36.5161 33.6152 36.7022 33.4805 36.8012 33.3063C36.8725 33.1875 36.9121 33.0133 36.9121 32.8074ZM36.421 32.8469C36.421 32.9341 36.4013 33.0411 36.3657 33.1123C36.3023 33.2271 36.1557 33.2865 35.9182 33.2904H34.3659C34.3659 33.2826 34.3659 32.3718 34.3659 32.3718H35.8271C36.1241 32.3718 36.2825 32.4431 36.3657 32.5777C36.4013 32.6411 36.421 32.7479 36.421 32.8469Z" fill="#394149" fill-opacity="0.7"/>
<path d="M38.3213 34.2686H40.2578L40.6537 35.0368H41.1844L39.6083 31.9283H39.0262L37.3987 35.0368H37.9174L38.3213 34.2686ZM40.0518 33.829H38.5352L39.1648 32.6371L39.3034 32.348L39.442 32.6371L40.0518 33.829Z" fill="#394149" fill-opacity="0.7"/>
<path d="M46.2065 34.7398C46.3293 34.5972 46.3848 34.3953 46.3848 34.1775C46.3848 33.9716 46.3254 33.7656 46.2026 33.6389C46.0798 33.5202 45.8818 33.4212 45.664 33.4014C45.7907 33.3815 45.8897 33.3024 45.957 33.2192C46.064 33.0964 46.1273 32.8984 46.1273 32.7005C46.1273 32.4906 46.064 32.3005 45.9293 32.1698C45.7828 32.0234 45.5334 31.9283 45.1849 31.9283H43.094V35.0368H45.3393C45.7591 35.0368 46.0521 34.9299 46.2065 34.7398ZM45.6165 32.7995C45.6165 32.938 45.5729 33.0608 45.4977 33.132C45.4224 33.2152 45.2957 33.2509 45.1611 33.2509H43.5771V32.3559H45.07C45.2522 32.3559 45.3907 32.3916 45.4858 32.4787C45.569 32.5579 45.6165 32.6727 45.6165 32.7995ZM45.7748 34.4388C45.6759 34.5498 45.5056 34.6052 45.2561 34.6052H43.5771V33.6826H45.2681C45.4977 33.6826 45.6561 33.73 45.7512 33.8211C45.8382 33.9043 45.8739 34.0112 45.8739 34.134C45.8739 34.2607 45.8462 34.3676 45.7748 34.4388Z" fill="#394149" fill-opacity="0.7"/>
<path d="M49.9796 35.0368V34.5814H47.5641V33.6944H49.8846V33.243H47.5641V32.3797H49.9519V31.9283H47.0809V35.0368H49.9796Z" fill="#394149" fill-opacity="0.7"/>
<path d="M53.8482 34.1181C53.8482 33.6112 53.5122 33.3499 52.6845 33.2548C52.5455 33.2351 52.2444 33.2034 52.0821 33.1836C51.3139 33.0925 51.0803 32.9896 51.0803 32.7243C51.0803 32.4669 51.3377 32.3203 52.1138 32.3203C52.7154 32.3203 53.0247 32.4392 53.1794 32.6529C53.2231 32.7123 53.2466 32.7837 53.2583 32.8391H53.7884C53.7735 32.748 53.7373 32.6212 53.6818 32.5183C53.4685 32.1501 53.029 31.8847 52.1138 31.8847C51.0209 31.8808 50.5695 32.2768 50.5695 32.7678C50.5695 33.2588 50.9219 33.5083 51.8367 33.6153C51.9951 33.635 52.2761 33.6667 52.4148 33.6826C53.1239 33.7696 53.3458 33.8766 53.3458 34.1736C53.3458 34.4468 53.0919 34.6448 52.2801 34.6448C51.6149 34.6448 51.2584 34.526 51.1159 34.2963C51.0724 34.233 51.0447 34.134 51.0407 34.0667H50.5179C50.5299 34.2092 50.5695 34.3636 50.6407 34.4864C50.8467 34.8626 51.3298 35.0804 52.2643 35.0804C53.381 35.0804 53.8482 34.72 53.8482 34.1181Z" fill="#394149" fill-opacity="0.7"/>
<path d="M57.3991 32.3797V31.9283H54.0967V32.3797H55.4983V35.0368H55.9975V32.3797H57.3991Z" fill="#394149" fill-opacity="0.7"/>
<path d="M22.4794 37.7387C22.4794 37.4219 22.416 37.208 22.309 37.0456C22.1586 36.8119 21.8655 36.6893 21.3547 36.6893H19.3906V39.7977H19.8816V38.784C19.8816 38.784 21.2676 38.784 21.3349 38.784C21.8141 38.78 22.1427 38.6692 22.317 38.4158C22.4279 38.2613 22.4794 38.0396 22.4794 37.7387ZM21.9804 37.7387C21.9804 37.897 21.9645 38.0158 21.9131 38.095C21.822 38.2415 21.6359 38.3326 21.2517 38.3326C21.2161 38.3326 19.8816 38.3326 19.8816 38.3326V37.1328H21.2676C21.628 37.1328 21.8141 37.2159 21.9131 37.3782C21.9605 37.4495 21.9804 37.5803 21.9804 37.7387Z" fill="#394149" fill-opacity="0.7"/>
<path d="M26.0636 39.7977V39.3424H23.648V38.4554H25.9685V38.0039H23.648V37.1407H26.0359V36.6893H23.1649V39.7977H26.0636Z" fill="#394149" fill-opacity="0.7"/>
<path d="M29.8411 37.5683C29.8411 37.3466 29.7936 37.1842 29.7104 37.0535C29.5638 36.8357 29.2828 36.6893 28.8155 36.6893H26.8038V39.7977H27.2909V38.487H28.7086L29.5758 39.7977H30.146L29.2075 38.4038C29.4451 38.3762 29.6312 38.2415 29.7302 38.0673C29.8015 37.9485 29.8411 37.7743 29.8411 37.5683ZM29.3501 37.6079C29.3501 37.695 29.3302 37.802 29.2946 37.8733C29.2312 37.988 29.0847 38.0475 28.8471 38.0514H27.2948C27.2948 38.0435 27.2948 37.1328 27.2948 37.1328H28.756C29.053 37.1328 29.2114 37.204 29.2946 37.3387C29.3302 37.402 29.3501 37.5089 29.3501 37.6079Z" fill="#394149" fill-opacity="0.7"/>
<path d="M33.5123 37.1407V36.6893H30.7483V39.7977H31.2393V38.4752H33.4094V38.0118H31.2393V37.1407H33.5123Z" fill="#394149" fill-opacity="0.7"/>
<path d="M35.7661 36.6338C35.1048 36.6338 34.6494 36.7962 34.3246 37.1368C34.0514 37.402 33.9326 37.7704 33.9326 38.2336C33.9326 38.7405 34.0871 39.1206 34.3722 39.378C34.6771 39.683 35.1443 39.8413 35.7661 39.8413C36.4076 39.8413 36.9065 39.683 37.2036 39.3621C37.4609 39.1008 37.5956 38.7286 37.5956 38.2297C37.5956 37.7466 37.4807 37.3782 37.2075 37.1169C36.8946 36.7922 36.4273 36.6338 35.7661 36.6338ZM35.7661 39.3979C35.3305 39.3979 35.0216 39.3028 34.788 39.1128C34.5504 38.9187 34.4356 38.6217 34.4356 38.2415C34.4356 37.8851 34.5345 37.5882 34.7246 37.4099C34.9424 37.2041 35.275 37.0813 35.7622 37.0813C36.265 37.0813 36.5778 37.2001 36.8114 37.406C37.0095 37.5803 37.0966 37.8891 37.0966 38.2376C37.0966 38.59 37.0056 38.891 36.8036 39.0731C36.57 39.2909 36.2413 39.3979 35.7661 39.3979Z" fill="#394149" fill-opacity="0.7"/>
<path d="M41.3109 37.5683C41.3109 37.3466 41.2633 37.1842 41.1802 37.0535C41.0337 36.8357 40.7525 36.6893 40.2853 36.6893H38.2737V39.7977H38.7607V38.487H40.1783L41.0456 39.7977H41.6158L40.6773 38.4038C40.9149 38.3762 41.101 38.2415 41.2 38.0673C41.2713 37.9485 41.3109 37.7743 41.3109 37.5683ZM40.8198 37.6079C40.8198 37.695 40.8001 37.802 40.7645 37.8733C40.7011 37.988 40.5545 38.0475 40.317 38.0514H38.7647C38.7647 38.0435 38.7647 37.1328 38.7647 37.1328H40.2259C40.5229 37.1328 40.6813 37.204 40.7645 37.3387C40.8001 37.402 40.8198 37.5089 40.8198 37.6079Z" fill="#394149" fill-opacity="0.7"/>
<path d="M46.0474 39.7977V36.6893H45.4059L44.1268 39.2473L42.8715 36.6893H42.2181V39.7977H42.6894V37.406L43.8614 39.7977H44.3762L45.5761 37.406V39.7977H46.0474Z" fill="#394149" fill-opacity="0.7"/>
<path d="M47.438 39.0295H49.3745L49.7704 39.7977H50.3011L48.725 36.6893H48.1429L46.5154 39.7977H47.0341L47.438 39.0295ZM49.1685 38.59H47.6519L48.2815 37.3981L48.4201 37.109L48.5587 37.3981L49.1685 38.59Z" fill="#394149" fill-opacity="0.7"/>
<path d="M53.8684 39.7977V36.6893H53.397V39.1047L51.3383 36.6893H50.7799V39.7977H51.2591V37.3664L53.334 39.7977H53.8684Z" fill="#394149" fill-opacity="0.7"/>
<path d="M58.1404 38.6376H57.6252C57.6092 38.7801 57.5537 38.9227 57.4545 39.0296C57.2412 39.279 56.9009 39.3859 56.3783 39.3859C55.9388 39.3859 55.4673 39.2632 55.2412 38.9424C55.1228 38.792 55.0471 38.5702 55.0471 38.2376C55.0471 37.9406 55.0993 37.7188 55.2135 37.5683C55.4033 37.2635 55.8033 37.1051 56.3665 37.1051C56.9127 37.1051 57.2572 37.2555 57.4396 37.4654C57.542 37.5762 57.6017 37.707 57.6209 37.8613H58.1361C58.1201 37.6872 58.0647 37.4812 57.9463 37.307C57.6924 36.9308 57.2252 36.6338 56.3697 36.6338C55.5548 36.6338 55.0673 36.8952 54.7975 37.2872C54.6236 37.5129 54.5361 37.8297 54.5361 38.2336C54.5361 38.685 54.6439 39.0177 54.8295 39.2513C55.0993 39.6196 55.6177 39.8413 56.4017 39.8413C57.206 39.8413 57.6849 39.5998 57.9228 39.2157C58.0572 39.0296 58.1244 38.8078 58.1404 38.6376Z" fill="#394149" fill-opacity="0.7"/>
<path d="M61.6839 39.7977V39.3424H59.2679V38.4554H61.5889V38.0039H59.2679V37.1407H61.6561V36.6893H58.7847V39.7977H61.6839Z" fill="#394149" fill-opacity="0.7"/>
<path d="M25.4693 42.8857L26.0615 44.7085H27.978L26.4276 45.835L27.0198 47.6576L25.4693 46.5312L23.9188 47.6576L24.5111 45.835L22.9606 44.7085H24.8771L25.4693 42.8857Z" fill="#CA6702"/>
<path d="M32.3061 42.8859L32.9104 44.7085H34.866L33.2839 45.835L33.8882 47.6577L32.3061 46.5312L30.724 47.6577L31.3283 45.835L29.7462 44.7085H31.7018L32.3061 42.8859Z" fill="#CA6702"/>
<path d="M39.0889 42.8859L39.6933 44.7085H41.6488L40.0668 45.835L40.6711 47.6577L39.0889 46.5312L37.5069 47.6577L38.1111 45.835L36.5291 44.7085H38.4847L39.0889 42.8859Z" fill="#CA6702"/>
<path d="M45.872 42.8859L46.4763 44.7085H48.4319L46.8498 45.835L47.4541 47.6577L45.872 46.5312L44.2899 47.6577L44.8942 45.835L43.3121 44.7085H45.2678L45.872 42.8859Z" fill="#CA6702"/>
<path d="M52.7089 42.8859L53.3009 44.7085H55.2177L53.6667 45.835L54.2587 47.6577L52.7089 46.5312L51.1583 47.6577L51.7506 45.835L50.2001 44.7085H52.1166L52.7089 42.8859Z" fill="#CA6702"/>
<path d="M28.791 12.1346L29.2388 13.5127H30.6879L29.5156 14.3645L29.9634 15.7425L28.791 14.8909L27.6188 15.7425L28.0666 14.3645L26.8943 13.5127H28.3434L28.791 12.1346Z" fill="#CA6702"/>
<path d="M33.9605 12.1327L34.4174 13.5108H35.8959L34.6998 14.3626L35.1566 15.7406L33.9605 14.8889L32.7642 15.7406L33.2212 14.3626L32.0249 13.5108H33.5035L33.9605 12.1327Z" fill="#CA6702"/>
<path d="M39.0888 12.1327L39.5456 13.5108H41.0242L39.8281 14.3626L40.2849 15.7406L39.0888 14.8889L37.8925 15.7406L38.3495 14.3626L37.1532 13.5108H38.6318L39.0888 12.1327Z" fill="#CA6702"/>
<path d="M44.2178 12.1327L44.6747 13.5108H46.1533L44.9571 14.3626L45.414 15.7406L44.2178 14.8889L43.0215 15.7406L43.4785 14.3626L42.2822 13.5108H43.7608L44.2178 12.1327Z" fill="#CA6702"/>
<path d="M49.3864 12.1327L49.8342 13.5108H51.2832L50.111 14.3626L50.5587 15.7406L49.3864 14.8889L48.2141 15.7406L48.6619 14.3626L47.4896 13.5108H48.9386L49.3864 12.1327Z" fill="#CA6702"/>
<path fill-rule="evenodd" clip-rule="evenodd" d="M8.15145 36.9391C6.17535 24.5755 11.9426 12.3431 23.4883 7.09024L23.5949 7.32448C12.1653 12.5245 6.44575 24.6371 8.40553 36.8985C10.5737 50.4636 21.5171 58.599 34.9182 58.9912L34.9106 59.2485C21.4051 58.8532 10.342 50.6442 8.15145 36.9391Z" fill="#394149" fill-opacity="0.7"/>
<path d="M20.9849 10.2455C18.8513 10.2942 16.3541 11.4974 14.8806 13.245C16.0623 14.3423 17.9635 13.9366 19.3317 13.7122C21.2845 13.392 23.361 12.7716 25.2037 11.8934C24.4461 10.2806 22.4051 10.2132 20.9849 10.2455Z" fill="#394149" fill-opacity="0.7"/>
<path d="M19.3071 7.61343C18.0433 9.58207 16.5371 11.5387 14.8981 13.2616C13.5268 11.9744 14.3545 9.83221 14.9142 8.50005C15.9281 6.08618 18.3589 4.00458 20.9002 2.93951C21.5977 4.52639 20.0827 6.40511 19.3071 7.61343Z" fill="#394149" fill-opacity="0.7"/>
<path d="M14.8106 15.7661C12.8128 16.4763 11.096 18.4754 10.234 20.4825C11.6706 21.1504 13.3038 20.1858 14.4985 19.5436C16.1391 18.6617 17.8128 17.4448 19.1297 16.0366C17.9398 14.7811 16.1331 15.2961 14.8106 15.7661Z" fill="#394149" fill-opacity="0.7"/>
<path d="M12.3889 13.7989C11.9515 16.0443 11.2183 18.3715 10.2553 20.4927C8.57447 19.6999 8.63848 17.4294 8.71048 15.9845C8.83336 13.5183 10.2131 10.7059 12.134 8.91861C13.31 10.1794 12.6675 12.3686 12.3889 13.7989Z" fill="#394149" fill-opacity="0.7"/>
<path d="M10.9665 22.8933C9.30173 24.2066 8.29267 26.6404 8.05896 28.8138C9.63379 28.9946 10.8926 27.5614 11.8292 26.5781C13.1044 25.2394 14.3115 23.5602 15.0782 21.8035C13.5769 20.9845 12.0509 22.0379 10.9665 22.8933Z" fill="#394149" fill-opacity="0.7"/>
<path d="M8.08228 21.7846C8.37913 24.052 8.37977 26.5051 8.08281 28.8167C6.25134 28.5918 5.64388 26.3927 5.28505 25.0132C4.66553 22.632 5.08089 19.5562 6.28772 17.2413C7.79588 18.0762 7.89262 20.3354 8.08228 21.7846Z" fill="#394149" fill-opacity="0.7"/>
<path d="M9.66004 30.6731C8.34271 32.6028 7.87946 35.6269 8.47188 38.0576C10.2127 37.6455 11.0756 35.6746 11.7685 34.2827C12.6894 32.4328 13.4677 30.2746 13.7463 28.1571C11.8582 27.7642 10.5278 29.4018 9.66004 30.6731Z" fill="#394149" fill-opacity="0.7"/>
<path d="M6.20198 30.478C7.22833 32.8542 8.02929 35.4696 8.49798 38.0517C6.5015 38.4806 5.0646 36.3842 4.22982 34.9941C2.74364 32.5197 2.31068 29.0894 2.8551 26.1292C4.68241 26.4956 5.5766 29.0305 6.20198 30.478Z" fill="#394149" fill-opacity="0.7"/>
<path d="M10.5815 39.0689C9.87422 41.4098 10.3658 44.5922 11.7979 46.793C13.3717 45.7683 13.5895 43.5132 13.8126 41.8962C14.1066 39.7624 14.2451 37.3987 13.8798 35.1861C11.8669 35.4431 11.0539 37.5051 10.5815 39.0689Z" fill="#394149" fill-opacity="0.7"/>
<path d="M7.08351 40.071C8.84948 42.0974 10.4785 44.4078 11.822 46.7778C9.99988 47.9153 7.86175 46.3613 6.565 45.2616C4.26452 43.3107 2.77076 39.995 2.41663 36.869C4.33108 36.6117 6.01823 38.8485 7.08351 40.071Z" fill="#394149" fill-opacity="0.7"/>
<path d="M14.293 47.0365C14.4448 49.7613 16.2187 52.6205 18.5808 54.2479C19.7215 52.6862 19.0065 50.2933 18.6173 48.623C18.0935 46.3742 17.3685 44.0324 16.2911 41.9546C14.4122 42.9474 14.193 45.242 14.293 47.0365Z" fill="#394149" fill-opacity="0.7"/>
<path d="M11.1162 49.3381C13.6752 50.7601 16.2269 52.4381 18.5994 54.2236C17.1786 56.0945 14.3387 55.3485 12.5783 54.7471C9.47597 53.6874 6.71021 50.8937 5.26562 47.7901C7.0972 46.8466 9.60451 48.4981 11.1162 49.3381Z" fill="#394149" fill-opacity="0.7"/>
<path d="M21.5814 53.6932C23.1173 56.4962 26.6173 58.3248 29.9133 58.765C30.2681 56.7273 28.0632 54.7097 26.8617 53.3898C25.1511 51.5106 23.3686 49.5605 21.3701 47.9358C19.8728 49.6742 20.6644 52.0197 21.5814 53.6932Z" fill="#394149" fill-opacity="0.7"/>
<path d="M19.3878 57.2456C22.8792 57.6086 26.4297 58.1312 29.9189 58.7338C29.5858 61.3048 25.5057 61.7198 23.6534 61.8716C19.8556 62.1828 15.6307 60.6562 12.689 58.0862C14.1501 56.3669 17.5281 57.0524 19.3878 57.2456Z" fill="#394149" fill-opacity="0.7"/>
<path d="M26.1125 4.93228C23.7685 5.60097 21.0248 6.86956 19.6694 9.21132C22.1297 8.94316 24.5477 8.06775 26.9124 7.40076C29.5612 6.65356 32.3502 6.09473 34.9147 5.06337C32.1061 3.93975 28.7954 4.16684 26.1125 4.93228Z" fill="#394149" fill-opacity="0.7"/>
<path fill-rule="evenodd" clip-rule="evenodd" d="M71.4598 36.8985C73.4193 24.6371 67.6998 12.5247 56.2705 7.32448L56.3771 7.09024C67.9227 12.3433 73.6902 24.5755 71.7137 36.9391C69.5238 50.6442 58.4603 58.8532 44.9549 59.2485L44.9474 58.9912C58.3483 58.599 69.2913 50.4636 71.4598 36.8985Z" fill="#394149" fill-opacity="0.7"/>
<path d="M58.8807 10.2455C61.014 10.2942 63.5111 11.4974 64.9852 13.245C63.8033 14.3423 61.9015 13.9366 60.534 13.7122C58.5809 13.392 56.5041 12.7716 54.662 11.8934C55.4193 10.2806 57.4599 10.2132 58.8807 10.2455Z" fill="#394149" fill-opacity="0.7"/>
<path d="M60.5585 7.61343C61.8225 9.58207 63.3287 11.5387 64.9671 13.2616C66.3388 11.9744 65.5111 9.83221 64.9511 8.50005C63.9377 6.08618 61.5068 4.00458 58.9649 2.93951C58.2673 4.52639 59.7831 6.40511 60.5585 7.61343Z" fill="#394149" fill-opacity="0.7"/>
<path d="M65.0556 15.7661C67.0535 16.4763 68.7698 18.4754 69.6316 20.4825C68.1948 21.1504 66.5618 20.1858 65.3671 19.5436C63.7266 18.6617 62.053 17.4448 60.7367 16.0366C61.926 14.7811 63.733 15.2961 65.0556 15.7661Z" fill="#394149" fill-opacity="0.7"/>
<path d="M67.477 13.7989C67.9143 16.0443 68.6471 18.3715 69.6103 20.4927C71.2914 19.6999 71.2274 17.4294 71.1548 15.9845C71.0322 13.5183 69.653 10.7059 67.7319 8.91861C66.5554 10.1794 67.1986 12.3686 67.477 13.7989Z" fill="#394149" fill-opacity="0.7"/>
<path d="M68.8988 22.8933C70.5638 24.2066 71.5729 26.6404 71.8065 28.8138C70.2321 28.9946 68.9734 27.5614 68.0369 26.5781C66.7612 25.2394 65.5537 23.5602 64.7878 21.8035C66.2886 20.9845 67.815 22.0379 68.8988 22.8933Z" fill="#394149" fill-opacity="0.7"/>
<path d="M71.7841 21.7846C71.4865 24.0518 71.4865 26.5051 71.7831 28.8167C73.6145 28.5918 74.2225 26.3927 74.5809 25.0132C75.2007 22.632 74.7847 19.5562 73.5783 17.2413C72.07 18.0762 71.9729 20.3354 71.7841 21.7846Z" fill="#394149" fill-opacity="0.7"/>
<path d="M70.2054 30.6731C71.5228 32.6028 71.9857 35.6269 71.3937 38.0576C69.6529 37.6455 68.79 35.6747 68.0966 34.2827C67.1761 32.4328 66.3974 30.2746 66.119 28.1571C68.007 27.7642 69.3382 29.4018 70.2054 30.6731Z" fill="#394149" fill-opacity="0.7"/>
<path d="M73.6636 30.478C72.6375 32.8542 71.8364 35.4696 71.3682 38.0517C73.3639 38.4806 74.8007 36.3842 75.6359 34.9941C77.1218 32.5197 77.5548 29.0894 77.0108 26.1292C75.1836 26.4956 74.2887 29.0305 73.6636 30.478Z" fill="#394149" fill-opacity="0.7"/>
<path d="M69.2838 39.0689C69.991 41.4098 69.5003 44.5922 68.0678 46.793C66.4945 45.7683 66.2758 43.5132 66.0529 41.8962C65.7595 39.7624 65.6209 37.3987 65.9857 35.1861C67.9985 35.4431 68.8113 37.5051 69.2838 39.0689Z" fill="#394149" fill-opacity="0.7"/>
<path d="M72.7815 40.071C71.0161 42.0975 69.3873 44.4078 68.0433 46.7778C69.8652 47.9153 72.0039 46.3613 73.3009 45.2616C75.6007 43.3107 77.0951 39.995 77.4492 36.869C75.5345 36.6117 73.8471 38.8485 72.7815 40.071Z" fill="#394149" fill-opacity="0.7"/>
<path d="M65.5718 47.0365C65.4204 49.7613 63.6465 52.6205 61.2849 54.2479C60.1436 52.6862 60.8593 50.2934 61.2476 48.623C61.7713 46.3742 62.4966 44.0324 63.574 41.9546C65.4534 42.9474 65.6721 45.242 65.5718 47.0365Z" fill="#394149" fill-opacity="0.7"/>
<path d="M68.7495 49.3381C66.1906 50.7601 63.6391 52.4381 61.2668 54.2236C62.6876 56.0945 65.5271 55.3485 67.2871 54.7471C70.39 53.6874 73.1559 50.8937 74.6002 47.7901C72.7687 46.8466 70.261 48.4981 68.7495 49.3381Z" fill="#394149" fill-opacity="0.7"/>
<path d="M58.2844 53.6932C56.7484 56.4962 53.2487 58.3248 49.9522 58.765C49.5975 56.7273 51.8022 54.7097 53.0044 53.3898C54.7142 51.5106 56.4966 49.5605 58.4956 47.9358C59.9932 49.6742 59.2006 52.0197 58.2844 53.6932Z" fill="#394149" fill-opacity="0.7"/>
<path d="M60.4775 57.2456C56.9863 57.6086 53.4365 58.1312 49.9465 58.7338C50.2798 61.3048 54.3602 61.7198 56.2119 61.8716C60.0103 62.1828 64.2354 60.6562 67.1762 58.0862C65.7159 56.3669 62.3378 57.0524 60.4775 57.2456Z" fill="#394149" fill-opacity="0.7"/>
<path d="M53.7532 4.93228C56.0966 5.60097 58.8412 6.86956 60.1958 9.21132C57.7361 8.94316 55.318 8.06775 52.9532 7.40076C50.3044 6.65356 47.5154 6.09473 44.9509 5.06337C47.7596 3.93975 51.0702 4.16684 53.7532 4.93228Z" fill="#394149" fill-opacity="0.7"/>
<path d="M41.4571 3.72044L40.2544 1.06668L39.0744 3.67105L36.33 1.96951L38.0935 5.67543H42.4792L44.179 1.96951L41.4571 3.72044Z" fill="#394149" fill-opacity="0.7"/>
<path d="M42.451 6.25131H38.0583V6.89953H42.451V6.25131Z" fill="#394149" fill-opacity="0.7"/>
<path d="M40.5685 56.3966L41.2763 58.5749H43.5668L41.7138 59.9212L42.4215 62.0995L40.5685 60.7533L38.7155 62.0995L39.4233 59.9212L37.5703 58.5749H39.8608L40.5685 56.3966Z" fill="#CA6702"/>
</svg>
