<svg width="62" height="12" viewBox="0 0 62 12" fill="none" xmlns="http://www.w3.org/2000/svg">
<path d="M5.56445 0.761719C5.82227 0.246094 6.55273 0.267578 6.78906 0.761719L8.20703 3.61914L11.3438 4.07031C11.9023 4.15625 12.1172 4.84375 11.709 5.25195L9.45312 7.46484L9.99023 10.5801C10.0762 11.1387 9.47461 11.5684 8.98047 11.3105L6.1875 9.82812L3.37305 11.3105C2.87891 11.5684 2.27734 11.1387 2.36328 10.5801L2.90039 7.46484L0.644531 5.25195C0.236328 4.84375 0.451172 4.15625 1.00977 4.07031L4.16797 3.61914L5.56445 0.761719ZM17.9395 0.761719C18.1973 0.246094 18.9277 0.267578 19.1641 0.761719L20.582 3.61914L23.7188 4.07031C24.2773 4.15625 24.4922 4.84375 24.084 5.25195L21.8281 7.46484L22.3652 10.5801C22.4512 11.1387 21.8496 11.5684 21.3555 11.3105L18.5625 9.82812L15.748 11.3105C15.2539 11.5684 14.6523 11.1387 14.7383 10.5801L15.2754 7.46484L13.0195 5.25195C12.6113 4.84375 12.8262 4.15625 13.3848 4.07031L16.543 3.61914L17.9395 0.761719ZM30.3145 0.761719C30.5723 0.246094 31.3027 0.267578 31.5391 0.761719L32.957 3.61914L36.0938 4.07031C36.6523 4.15625 36.8672 4.84375 36.459 5.25195L34.2031 7.46484L34.7402 10.5801C34.8262 11.1387 34.2246 11.5684 33.7305 11.3105L30.9375 9.82812L28.123 11.3105C27.6289 11.5684 27.0273 11.1387 27.1133 10.5801L27.6504 7.46484L25.3945 5.25195C24.9863 4.84375 25.2012 4.15625 25.7598 4.07031L28.918 3.61914L30.3145 0.761719ZM42.6895 0.761719C42.9473 0.246094 43.6777 0.267578 43.9141 0.761719L45.332 3.61914L48.4688 4.07031C49.0273 4.15625 49.2422 4.84375 48.834 5.25195L46.5781 7.46484L47.1152 10.5801C47.2012 11.1387 46.5996 11.5684 46.1055 11.3105L43.3125 9.82812L40.498 11.3105C40.0039 11.5684 39.4023 11.1387 39.4883 10.5801L40.0254 7.46484L37.7695 5.25195C37.3613 4.84375 37.5762 4.15625 38.1348 4.07031L41.293 3.61914L42.6895 0.761719ZM55.0645 0.761719C55.3223 0.246094 56.0527 0.267578 56.2891 0.761719L57.707 3.61914L60.8438 4.07031C61.4023 4.15625 61.6172 4.84375 61.209 5.25195L58.9531 7.46484L59.4902 10.5801C59.5762 11.1387 58.9746 11.5684 58.4805 11.3105L55.6875 9.82812L52.873 11.3105C52.3789 11.5684 51.7773 11.1387 51.8633 10.5801L52.4004 7.46484L50.1445 5.25195C49.7363 4.84375 49.9512 4.15625 50.5098 4.07031L53.668 3.61914L55.0645 0.761719Z" fill="#F2C94C"/>
</svg>
