<svg width="20" height="23" viewBox="0 0 20 23" fill="none" xmlns="http://www.w3.org/2000/svg">
<path d="M19.25 16.75C18.0039 16.75 17.875 15.375 16.0273 15.375C14.1797 15.375 14.0078 16.75 12.8047 16.75C11.6445 16.75 11.4727 15.375 9.625 15.375C7.77734 15.375 7.5625 16.75 6.40234 16.75C5.19922 16.75 5.07031 15.375 3.17969 15.375C1.33203 15.375 1.20312 16.75 0 16.75V13.3125C0 12.1953 0.902344 11.25 2.0625 11.25H2.75V5.0625H5.5V11.25H8.25V5.0625H11V11.25H13.75V5.0625H16.5V11.25H17.1875C18.3047 11.25 19.25 12.1953 19.25 13.3125V16.75ZM19.25 22.25H0V18.125C1.84766 18.125 1.97656 16.75 3.17969 16.75C4.38281 16.75 4.55469 18.125 6.40234 18.125C8.25 18.125 8.42188 16.75 9.625 16.75C10.8281 16.75 10.957 18.125 12.8047 18.125C14.6953 18.125 14.8242 16.75 16.0273 16.75C17.1875 16.75 17.3594 18.125 19.25 18.125V22.25ZM4.125 4.375C3.35156 4.375 2.75 3.77344 2.75 3C2.75 1.66797 4.125 2.01172 4.125 0.25C4.64062 0.25 5.5 1.53906 5.5 2.65625C5.5 3.81641 4.85547 4.375 4.125 4.375ZM9.625 4.375C8.85156 4.375 8.25 3.77344 8.25 3C8.25 1.66797 9.625 2.01172 9.625 0.25C10.1406 0.25 11 1.53906 11 2.65625C11 3.81641 10.3555 4.375 9.625 4.375ZM15.125 4.375C14.3516 4.375 13.75 3.77344 13.75 3C13.75 1.66797 15.125 2.01172 15.125 0.25C15.6406 0.25 16.5 1.53906 16.5 2.65625C16.5 3.81641 15.8555 4.375 15.125 4.375Z" fill="white"/>
</svg>
