<svg width="104" height="64" viewBox="0 0 104 64" fill="none" xmlns="http://www.w3.org/2000/svg">
<path d="M8.78122 13.7577C8.14592 11.7705 8.42172 9.48555 9.00692 7.56382C9.62262 5.54167 10.6947 3.52506 12.2971 2.46155C12.3766 4.5925 11.8477 6.69785 11.2698 8.59632C10.7501 10.3039 10.1124 12.1231 9.05942 13.5353C8.89762 14.6053 8.77362 15.6724 8.68642 16.7345C9.03542 15.6124 9.60132 14.5897 10.3074 13.7673C11.2165 12.7083 12.5688 11.8912 13.8382 12.3744C13.4664 14.1014 12.6189 15.7569 11.6152 16.9183C10.8252 17.8324 9.78232 19.0037 8.55392 19.0497C8.50332 20.6128 8.53192 22.1616 8.63642 23.6894C8.80972 22.5713 9.18102 21.5185 9.71752 20.7345C10.4545 19.6572 11.5473 18.3411 12.9429 18.5612C12.8667 20.3092 12.3002 22.1001 11.5113 23.4458C10.8844 24.5152 10.0568 25.8782 8.88212 26.2303C9.07022 27.7315 9.33222 29.2078 9.66462 30.6523C9.66782 29.5462 9.86632 28.4606 10.2601 27.5898C10.8151 26.3619 11.6795 24.8305 13.0767 24.7108C13.2815 26.4256 13.004 28.3002 12.4442 29.7911C11.9968 30.9829 11.4003 32.5027 10.313 33.1315C10.7696 34.6857 11.3099 36.1964 11.9294 37.6547C11.7119 36.3978 11.7206 35.0734 11.978 33.8817C12.3327 32.2389 13.2132 30.5132 14.6268 30.0124C15.1265 31.8261 15.0576 33.8502 14.7673 35.6937C14.5284 37.2115 14.059 38.9941 13.0068 39.9801C13.6947 41.3463 14.4557 42.6576 15.2856 43.9052C14.8397 42.6816 14.6181 41.3434 14.737 40.1182C14.9102 38.3333 15.3177 36.4239 16.799 35.4723C17.6394 37.2569 17.8341 39.259 17.9055 41.2364C17.9632 42.8351 17.7761 44.8069 16.874 46.1075C17.8663 47.3772 18.937 48.5657 20.0806 49.6615C19.3423 48.4959 18.8253 47.128 18.7158 45.7753C18.5612 43.864 18.6368 41.76 20.0149 40.3574C21.1935 41.8725 21.8968 44.1038 22.2415 46.0417C22.5463 47.7552 22.8645 49.7833 22.1388 51.4695C23.5942 52.6388 25.1479 53.6689 26.7906 54.5413C25.6347 53.5275 24.6885 52.1366 24.2377 50.7006C23.647 48.8181 23.2816 46.575 24.4323 44.6897C25.974 45.9051 27.1071 47.9787 27.9998 49.8699C28.7658 51.4927 29.5587 53.7324 29.1653 55.6651C30.0748 56.0449 31.0078 56.3785 31.9631 56.663L31.9063 56.9516C30.9474 56.666 30.0108 56.3313 29.0976 55.9504C28.4578 58.2774 26.3619 59.0462 24.6669 59.3856C22.2518 59.8692 19.3761 58.9322 17.3143 57.0447C18.4025 55.1519 20.6228 54.9599 22.297 54.815L22.3188 54.8132C24.1529 54.6545 26.1366 54.8665 27.981 55.4563C25.8503 54.458 23.8566 53.2028 22.0182 51.7273L21.9911 51.7799C20.9837 53.7904 18.9611 53.8688 17.3735 53.7417C15.2192 53.5691 12.732 51.9569 11.2925 49.7284C12.6465 48.2662 14.6464 48.6755 16.196 48.9925L16.2035 48.994C17.933 49.3478 19.8229 50.1198 21.4093 51.3083C21.2582 51.1619 21.1103 51.0069 20.9666 50.8444C19.4242 49.491 18.0014 47.977 16.7103 46.3263C16.6953 46.3447 16.6801 46.3631 16.6648 46.3813C15.4094 47.9356 13.581 47.5286 12.1541 47.0228C10.2446 46.3459 8.26432 44.3036 7.31532 41.9591C8.78592 40.945 10.5441 41.7807 11.9117 42.4417C13.4127 43.1673 15.0008 44.3279 16.2219 45.8074C16.096 45.6119 15.9759 45.4078 15.8624 45.1964C14.7274 43.6198 13.7064 41.9316 12.8088 40.1505L12.7638 40.1852C11.3436 41.3132 9.73452 40.4964 8.45922 39.6931C6.73012 38.6039 5.34062 36.2103 4.74022 33.8564C6.27412 33.2517 7.78962 34.4385 8.96772 35.3785C10.2562 36.4064 11.5614 37.8725 12.4573 39.5539C12.3915 39.3882 12.3302 39.2188 12.2737 39.0463C11.4129 37.1979 10.6816 35.2575 10.0896 33.2446L10.0591 33.2574L10.0566 33.2585C8.76532 33.8627 7.32732 32.9233 6.38982 31.8932C5.08682 30.4615 4.16842 28.2606 3.95312 26.1103C5.29942 25.8956 6.56782 27.1776 7.43502 28.271C8.43322 29.5295 9.32912 31.0169 9.87992 32.6689C9.83972 32.4895 9.80522 32.3072 9.77622 32.1231C9.27502 30.2315 8.89532 28.2807 8.64502 26.2864L8.62552 26.2894L8.61892 26.2907C7.25372 26.5712 5.99152 25.2938 5.23742 24.054C4.17942 22.3143 3.63402 19.9066 3.77072 17.7243C5.13062 17.8414 6.16612 19.4336 6.83762 20.7216C7.61482 22.2127 8.25932 23.9002 8.54162 25.6656C8.53302 25.5252 8.52792 25.3839 8.52612 25.2422C8.31882 23.2124 8.24492 21.1411 8.31252 19.0441L8.30862 19.0438C6.92062 18.9823 5.89482 17.3962 5.36522 15.9893C4.60742 13.976 4.48542 11.4311 4.99122 9.28641C6.31412 9.74339 7.05162 11.6111 7.48692 13.0487C7.98882 14.7063 8.33912 16.5142 8.34192 18.3116C8.41412 16.8037 8.55952 15.2838 8.78122 13.7577Z" fill="#394149" fill-opacity="0.7"/>
<path d="M36.1184 10.0374V17.2372C36.1184 20.4038 33.7882 21.9274 30.2565 21.9274C26.9554 21.9274 24.5888 20.4188 24.5888 16.8638V10.0374H27.8778V16.8638C27.8778 18.1334 28.7637 18.925 30.39 18.925C31.9435 18.925 32.8659 18.1035 32.8659 16.8786V10.0374H36.1184Z" fill="#394149" fill-opacity="0.7"/>
<path d="M47.0723 18.6412V21.7631H37.9821V10.0374H41.2711V18.6412H47.0723Z" fill="#394149" fill-opacity="0.7"/>
<path d="M56.8468 12.9801V10.0374H45.4749V12.9801H49.4921V21.7631H52.8175V12.9801H56.8468Z" fill="#394149" fill-opacity="0.7"/>
<path fill-rule="evenodd" clip-rule="evenodd" d="M68.513 11.2325C68.95 11.7851 69.157 12.547 69.157 13.6074C69.157 14.5186 68.975 15.2954 68.671 15.8181C68.331 16.3857 67.809 16.8638 67.166 16.9833L70.043 21.7631H66.426L64.059 17.6255H61.1102V21.7631H57.8697V10.0374H65.455C66.96 10.0374 67.943 10.4855 68.513 11.2325ZM65.892 14.5934C65.977 14.414 66.001 14.175 66.001 13.9809C66.001 13.7568 65.977 13.5178 65.892 13.3685C65.722 12.9801 65.382 12.8756 64.872 12.8756H61.1223V15.0116H64.933C65.455 15.0116 65.771 14.8921 65.892 14.5934Z" fill="#394149" fill-opacity="0.7"/>
<path fill-rule="evenodd" clip-rule="evenodd" d="M74.421 19.5973H79.567L80.404 21.7631H83.912L79.106 10.0374H75.186L70.101 21.7631H73.535L74.421 19.5973ZM78.535 16.9682H75.489L76.691 14.1452L77.055 13.0697L77.395 14.1302L78.535 16.9682Z" fill="#394149" fill-opacity="0.7"/>
<path fill-rule="evenodd" clip-rule="evenodd" d="M68.166 23.9714C66.13 23.9714 65.059 25.1591 65.059 26.9044C65.059 28.8742 66.183 29.8735 68.166 29.8735C70.349 29.8735 71.267 28.7148 71.267 26.9044C71.267 25.065 70.231 23.9714 68.166 23.9714ZM68.166 28.418C67.007 28.418 66.671 27.8314 66.671 26.9261C66.671 26.0354 67.036 25.4489 68.16 25.4489C69.39 25.4489 69.666 26.1078 69.666 26.9261C69.666 27.7952 69.331 28.418 68.166 28.418Z" fill="#394149" fill-opacity="0.7"/>
<path d="M62.0413 29.7866V26.4192H58.9699V27.6431H60.6115C60.5998 27.7372 60.5409 27.9183 60.4644 28.0268C60.2938 28.2731 59.8407 28.4903 59.2523 28.4903C58.6404 28.4903 58.2462 28.2948 58.0344 27.9906C57.8932 27.7661 57.8108 27.4475 57.8108 26.9696C57.8108 26.4699 57.8932 26.1296 58.052 25.9051C58.2815 25.5865 58.6698 25.4489 59.2406 25.4489C59.7525 25.4489 60.1055 25.5936 60.2703 25.7746C60.3762 25.8833 60.4585 26.0354 60.4762 26.1367H62.0001C61.9943 25.9557 61.9472 25.6661 61.8648 25.4561C61.5 24.5436 60.6527 24.0005 59.2112 24.0005C57.9579 24.0005 57.1165 24.4711 56.6517 25.1809C56.3457 25.6661 56.2045 26.2743 56.2045 26.9551C56.2045 27.7083 56.3692 28.3527 56.6399 28.7801C57.0988 29.5115 57.9167 29.8735 58.8993 29.8735C59.7643 29.8735 60.3585 29.6201 60.7351 29.2363L60.7763 29.7866H62.0413Z" fill="#394149" fill-opacity="0.7"/>
<path d="M46.0132 26.3468C47.2076 26.5061 47.7195 27.0276 47.7195 28.0197C47.7195 29.2218 46.7663 29.8735 44.8893 29.8735C43.1418 29.8735 42.3887 29.2652 42.1003 28.4687C42.0356 28.2804 42.0062 28.0486 41.9885 27.9038H43.6831C43.6949 27.9906 43.7361 28.121 43.7949 28.2079C43.9361 28.418 44.3303 28.541 45.0011 28.541C45.8661 28.541 46.072 28.3889 46.072 28.1066C46.072 27.8023 45.8602 27.7372 45.0776 27.6358C44.7658 27.5996 44.2715 27.5417 44.0656 27.52C42.5711 27.3534 42.018 26.7813 42.018 25.8037C42.018 24.7898 42.9947 24.015 44.7775 24.015C46.3603 24.015 47.0958 24.5943 47.4018 25.3185C47.4959 25.5358 47.5547 25.7819 47.5724 25.9557H45.8778C45.8719 25.8761 45.8484 25.7964 45.7837 25.695C45.6542 25.485 45.3247 25.3474 44.7363 25.3474C43.9067 25.3474 43.689 25.4705 43.689 25.7312C43.689 26.0209 43.9656 26.0862 44.8893 26.2092C45.2482 26.2454 45.819 26.3178 46.0132 26.3468Z" fill="#394149" fill-opacity="0.7"/>
<path fill-rule="evenodd" clip-rule="evenodd" d="M29.1207 24.5871C29.4325 24.8912 29.609 25.4054 29.609 26.1513C29.609 26.7596 29.4855 27.2157 29.2501 27.5344C28.9324 27.9834 28.4087 28.1862 27.7262 28.1935C27.5143 28.2007 25.7021 28.1935 25.7021 28.1935V29.7866H24.1193V24.1019H27.7026C28.3381 24.1019 28.8206 24.2612 29.1207 24.5871ZM27.9498 26.593C27.9968 26.4917 28.0204 26.3612 28.0204 26.1802C28.0204 25.992 27.9909 25.8326 27.938 25.7457C27.838 25.5647 27.6497 25.4778 27.3437 25.4778H25.6903V26.8682H27.3319C27.6614 26.8682 27.8556 26.774 27.9498 26.593Z" fill="#394149" fill-opacity="0.7"/>
<path fill-rule="evenodd" clip-rule="evenodd" d="M35.399 24.6812C35.6109 24.9492 35.7109 25.3185 35.7109 25.8326C35.7109 26.2743 35.6226 26.6509 35.4755 26.9044C35.3108 27.1796 35.0578 27.4113 34.7459 27.4693L36.1404 29.7866H34.387L33.2396 27.7807H31.8098V29.7866H30.2388V24.1019H33.9163C34.6459 24.1019 35.1225 24.3191 35.399 24.6812ZM34.1281 26.3106C34.1693 26.2237 34.181 26.1078 34.181 26.0137C34.181 25.9051 34.1693 25.7892 34.1281 25.7168C34.0457 25.5285 33.881 25.4778 33.6339 25.4778H31.8157V26.5133H33.6633C33.9163 26.5133 34.0693 26.4554 34.1281 26.3106Z" fill="#394149" fill-opacity="0.7"/>
<path d="M41.5116 29.7866V28.3745H38.199V27.6358H41.3763V26.2527H38.199V25.5212H41.4704V24.1019H36.6456V29.7866H41.5116Z" fill="#394149" fill-opacity="0.7"/>
<path d="M53.4452 25.5285V24.1019H47.932V25.5285H49.8795V29.7866H51.4917V25.5285H53.4452Z" fill="#394149" fill-opacity="0.7"/>
<path d="M55.5651 24.1019V29.7866H53.947V24.1019H55.5651Z" fill="#394149" fill-opacity="0.7"/>
<path d="M64.42 24.1019V29.7866H62.8016V24.1019H64.42Z" fill="#394149" fill-opacity="0.7"/>
<path d="M77.51 24.1019V27.5924C77.51 29.1276 76.38 29.8663 74.668 29.8663C73.068 29.8663 71.92 29.1349 71.92 27.4113V24.1019H73.515V27.4113C73.515 28.0268 73.944 28.4107 74.733 28.4107C75.486 28.4107 75.933 28.0124 75.933 27.4186V24.1019H77.51Z" fill="#394149" fill-opacity="0.7"/>
<path d="M83.862 28.0197C83.862 27.0276 83.35 26.5061 82.156 26.3468C81.961 26.3178 81.391 26.2454 81.032 26.2092C80.108 26.0862 79.831 26.0209 79.831 25.7312C79.831 25.4705 80.049 25.3474 80.879 25.3474C81.467 25.3474 81.797 25.485 81.926 25.695C81.991 25.7964 82.014 25.8761 82.02 25.9557H83.715C83.697 25.7819 83.638 25.5358 83.544 25.3185C83.238 24.5943 82.503 24.015 80.92 24.015C79.137 24.015 78.16 24.7898 78.16 25.8037C78.16 26.7813 78.714 27.3534 80.208 27.52L80.304 27.5305L80.464 27.5484L81.22 27.6358C82.003 27.7372 82.214 27.8023 82.214 28.1066C82.214 28.3889 82.009 28.541 81.144 28.541C80.473 28.541 80.079 28.418 79.937 28.2079C79.879 28.121 79.837 27.9906 79.826 27.9038H78.131C78.149 28.0486 78.178 28.2804 78.243 28.4687C78.531 29.2652 79.284 29.8735 81.032 29.8735C82.909 29.8735 83.862 29.2218 83.862 28.0197Z" fill="#394149" fill-opacity="0.7"/>
<path fill-rule="evenodd" clip-rule="evenodd" d="M42.7166 31.9632C41.3935 31.9632 40.6975 32.7351 40.6975 33.8694C40.6975 35.1495 41.4279 35.799 42.7166 35.799C44.1354 35.799 44.7319 35.046 44.7319 33.8694C44.7319 32.674 44.0589 31.9632 42.7166 31.9632ZM42.7166 34.853C41.9633 34.853 41.7453 34.4717 41.7453 33.8834C41.7453 33.3046 41.9824 32.9233 42.7128 32.9233C43.512 32.9233 43.6918 33.3516 43.6918 33.8834C43.6918 34.4482 43.4738 34.853 42.7166 34.853Z" fill="#394149" fill-opacity="0.7"/>
<path d="M35.3585 34.5942C35.3585 33.9494 35.0258 33.6105 34.2495 33.507C34.1233 33.4881 33.7524 33.4411 33.5191 33.4176C32.9187 33.3375 32.739 33.2951 32.739 33.107C32.739 32.9375 32.8805 32.8575 33.4197 32.8575C33.8021 32.8575 34.0162 32.9468 34.1004 33.0833C34.1424 33.1493 34.1577 33.201 34.1616 33.2528H35.2629C35.2514 33.1398 35.2132 32.9798 35.152 32.8387C34.9531 32.368 34.4751 31.9915 33.4464 31.9915C32.2878 31.9915 31.653 32.495 31.653 33.154C31.653 33.7894 32.0124 34.1612 32.9837 34.2694C33.1176 34.2836 33.4388 34.3212 33.6415 34.3447C34.1501 34.4106 34.2877 34.4531 34.2877 34.6507C34.2877 34.8342 34.1539 34.9331 33.5918 34.9331C33.1558 34.9331 32.8996 34.8531 32.8078 34.7166C32.7696 34.6601 32.7428 34.5754 32.7352 34.5189H31.6338C31.6453 34.6131 31.6644 34.7636 31.7065 34.886C31.8939 35.4037 32.3834 35.799 33.5191 35.799C34.739 35.799 35.3585 35.3755 35.3585 34.5942Z" fill="#394149" fill-opacity="0.7"/>
<path fill-rule="evenodd" clip-rule="evenodd" d="M27.7231 34.6977C27.7231 34.9519 27.6657 35.2014 27.551 35.366C27.3751 35.6297 27.0462 35.7425 26.6218 35.7425H23.9564V32.0479H26.5491C26.9621 32.0479 27.226 32.1703 27.3713 32.3539C27.5013 32.5139 27.5587 32.7257 27.5587 32.9657C27.5587 33.2058 27.5128 33.4035 27.4134 33.5493C27.333 33.6718 27.1954 33.7658 27.0501 33.7894C27.2642 33.8223 27.4669 33.9541 27.5816 34.1376C27.6772 34.2741 27.7231 34.4812 27.7231 34.6977ZM26.4344 33.4035C26.4726 33.3516 26.4956 33.2763 26.4956 33.187C26.4956 33.0975 26.4726 33.0222 26.4229 32.9705C26.3694 32.9092 26.2699 32.8857 26.1246 32.8857H24.9583V33.4881H26.1514C26.2814 33.4881 26.3809 33.4646 26.4344 33.4035ZM26.2623 34.9049C26.442 34.9049 26.5491 34.8766 26.6103 34.806C26.6485 34.7589 26.6638 34.6884 26.6638 34.5989C26.6638 34.5047 26.6447 34.4342 26.5988 34.3777C26.5415 34.3166 26.442 34.2882 26.2738 34.2882H24.9583V34.9049H26.2623Z" fill="#394149" fill-opacity="0.7"/>
<path d="M31.3239 34.8249V35.7425H28.1614V32.0479H31.2971V32.9705H29.1709V33.4458H31.2359V34.3447H29.1709V34.8249H31.3239Z" fill="#394149" fill-opacity="0.7"/>
<path d="M39.0797 32.0479V32.9751H37.8101V35.7425H36.7624V32.9751H35.4966V32.0479H39.0797Z" fill="#394149" fill-opacity="0.7"/>
<path d="M48.2312 32.0479V32.9845H46.193V33.507H48.1356V34.4342H46.193V35.7425H45.1643V32.0479H48.2312Z" fill="#394149" fill-opacity="0.7"/>
<path d="M53.4125 32.9751V32.0479H49.8294V32.9751H51.0952V35.7425H52.143V32.9751H53.4125Z" fill="#394149" fill-opacity="0.7"/>
<path d="M57.3219 32.0479V35.7425H56.297V34.4012H54.7597V35.7425H53.7349V32.0479H54.7597V33.394H56.297V32.0479H57.3219Z" fill="#394149" fill-opacity="0.7"/>
<path d="M61.0912 35.7425V34.8249H58.9382V34.3447H61.0032V33.4458H58.9382V32.9705H61.0644V32.0479H57.9287V35.7425H61.0912Z" fill="#394149" fill-opacity="0.7"/>
<path d="M67.431 32.0479H68.421L67.324 35.7425H66.2C66.2 35.7425 65.599 33.5353 65.595 33.474C65.592 33.5353 64.987 35.7425 64.987 35.7425H63.867L62.7427 32.0479H63.855C63.855 32.0479 64.506 34.3729 64.506 34.4294C64.506 34.3729 65.106 32.0479 65.106 32.0479H66.181C66.181 32.0479 66.785 34.3729 66.785 34.4294C66.785 34.3729 67.431 32.0479 67.431 32.0479Z" fill="#394149" fill-opacity="0.7"/>
<path fill-rule="evenodd" clip-rule="evenodd" d="M70.385 31.9632C69.062 31.9632 68.366 32.7351 68.366 33.8694C68.366 35.1495 69.096 35.799 70.385 35.799C71.804 35.799 72.4 35.046 72.4 33.8694C72.4 32.674 71.727 31.9632 70.385 31.9632ZM70.385 34.853C69.632 34.853 69.414 34.4717 69.414 33.8834C69.414 33.3046 69.651 32.9233 70.381 32.9233C71.181 32.9233 71.36 33.3516 71.36 33.8834C71.36 34.4482 71.142 34.853 70.385 34.853Z" fill="#394149" fill-opacity="0.7"/>
<path fill-rule="evenodd" clip-rule="evenodd" d="M76.187 32.4245C76.324 32.5987 76.389 32.8387 76.389 33.1728C76.389 33.4599 76.332 33.7046 76.236 33.8694C76.129 34.0483 75.965 34.1989 75.762 34.2364L76.668 35.7425H75.529L74.783 34.4389H73.854V35.7425H72.833V32.0479H75.223C75.697 32.0479 76.007 32.1892 76.187 32.4245ZM75.361 33.4834C75.387 33.427 75.395 33.3516 75.395 33.2905C75.395 33.2198 75.387 33.1446 75.361 33.0975C75.307 32.9751 75.2 32.9422 75.039 32.9422H73.858V33.6153H75.058C75.223 33.6153 75.322 33.5776 75.361 33.4834Z" fill="#394149" fill-opacity="0.7"/>
<path d="M79.861 35.7425V34.7589H78.033V32.0479H76.997V35.7425H79.861Z" fill="#394149" fill-opacity="0.7"/>
<path fill-rule="evenodd" clip-rule="evenodd" d="M83.916 33.827C83.916 34.4012 83.87 34.7119 83.733 35.0037C83.526 35.4695 83.117 35.7425 82.394 35.7425H80.268V32.0479H82.371C83.09 32.0479 83.515 32.2974 83.725 32.7257C83.874 33.0128 83.916 33.3187 83.916 33.827ZM82.199 34.8342C82.524 34.8342 82.708 34.7401 82.819 34.533C82.888 34.4059 82.907 34.1094 82.907 33.8506C82.903 33.6153 82.88 33.3658 82.819 33.2528C82.7 33.0316 82.521 32.9516 82.207 32.9516H81.293V34.8342H82.199Z" fill="#394149" fill-opacity="0.7"/>
<path d="M42.8949 53.7114H41.3103C41.3103 53.7114 40.2763 57.4314 40.2763 57.5217C40.2763 57.4314 39.3096 53.7114 39.3096 53.7114H37.5903C37.5903 53.7114 36.6297 57.4314 36.6297 57.5217C36.6297 57.4314 35.5896 53.7114 35.5896 53.7114H33.8091L35.6079 59.6227H37.4006C37.4006 59.6227 38.3673 56.091 38.3734 55.9931C38.3796 56.091 39.3401 59.6227 39.3401 59.6227H41.1389L42.8949 53.7114Z" fill="#394149" fill-opacity="0.7"/>
<path d="M45.0633 59.6227V53.7114H43.3807V59.6227H45.0633Z" fill="#394149" fill-opacity="0.7"/>
<path d="M51.6079 53.7114V59.6227H49.9681L47.5881 56.3319V59.6227H46.0096V53.7114H47.7349L50.0415 56.9269V53.7114H51.6079Z" fill="#394149" fill-opacity="0.7"/>
<path d="M58.1624 59.6227V53.7114H56.5961V56.9269L54.2895 53.7114H52.5641V59.6227H54.1426V56.3319L56.5227 59.6227H58.1624Z" fill="#394149" fill-opacity="0.7"/>
<path d="M64.179 58.1542V59.6227H59.1186V53.7114H64.136V55.1873H60.7339V55.9479H64.038V57.3862H60.7339V58.1542H64.179Z" fill="#394149" fill-opacity="0.7"/>
<path fill-rule="evenodd" clip-rule="evenodd" d="M70.646 55.5111C70.646 54.9765 70.542 54.5925 70.322 54.3139C70.034 53.9374 69.539 53.7114 68.78 53.7114H64.956V59.6227H66.59V57.5367H68.077L69.27 59.6227H71.093L69.643 57.2131C69.967 57.1527 70.23 56.9118 70.402 56.6256C70.554 56.3621 70.646 55.9705 70.646 55.5111ZM69.055 55.6995C69.055 55.7973 69.043 55.9178 69 56.0081C68.939 56.1588 68.78 56.219 68.517 56.219H66.596V55.1422H68.486C68.743 55.1422 68.915 55.1948 69 55.3907C69.043 55.466 69.055 55.5865 69.055 55.6995Z" fill="#394149" fill-opacity="0.7"/>
<path d="M38.0095 43.2823L37.346 40.7689L36.6824 43.2823H34.5351L36.2723 44.8357L35.6088 47.3492L37.346 45.7958L39.0831 47.3492L38.4196 44.8357L40.1568 43.2823H38.0095Z" fill="#CA6702"/>
<path d="M45.0065 40.7673L45.6836 43.2807H47.8747L46.1021 44.8342L46.7792 47.3476L45.0065 45.7942L43.2339 47.3476L43.911 44.8342L42.1383 43.2807H44.3294L45.0065 40.7673Z" fill="#CA6702"/>
<path d="M53.283 43.2807L52.606 40.7673L51.9289 43.2807H49.7377L51.5104 44.8342L50.8333 47.3476L52.606 45.7942L54.3786 47.3476L53.7015 44.8342L55.4742 43.2807H53.283Z" fill="#CA6702"/>
<path d="M60.2058 40.7673L60.8829 43.2807H63.074L61.3014 44.8342L61.9785 47.3476L60.2058 45.7942L58.4332 47.3476L59.1103 44.8342L57.3376 43.2807H59.5288L60.2058 40.7673Z" fill="#CA6702"/>
<path d="M68.53 43.2807L67.866 40.7673L67.202 43.2807H65.055L66.792 44.8342L66.129 47.3476L67.866 45.7942L69.603 47.3476L68.94 44.8342L70.677 43.2807H68.53Z" fill="#CA6702"/>
<path d="M96.388 13.8122C97.023 11.8251 96.747 9.53993 96.162 7.61821C95.546 5.59618 94.474 3.57932 92.872 2.51581C92.792 4.64689 93.321 6.75212 93.899 8.65058C94.419 10.358 95.056 12.1771 96.109 13.5892C96.271 14.6589 96.395 15.7258 96.482 16.7877C96.133 15.6661 95.568 14.6438 94.862 13.8217C93.953 12.7626 92.6 11.9456 91.331 12.4288C91.703 14.1557 92.55 15.8113 93.554 16.9727C94.344 17.8868 95.387 19.058 96.615 19.1041C96.666 20.6673 96.637 22.2162 96.532 23.7441C96.359 22.6261 95.988 21.5733 95.451 20.7893C94.714 19.7119 93.621 18.3958 92.226 18.616C92.302 20.3639 92.869 22.1548 93.658 23.5005C94.284 24.57 95.112 25.933 96.287 26.2852C96.099 27.7861 95.837 29.2621 95.504 30.7066C95.501 29.6006 95.303 28.5149 94.909 27.6442C94.354 26.4164 93.489 24.8849 92.092 24.7652C91.887 26.48 92.165 28.3546 92.725 29.8455C93.172 31.0373 93.769 32.557 94.856 33.1858C94.399 34.7403 93.859 36.2514 93.239 37.7098C93.457 36.4527 93.448 35.128 93.191 33.936C92.836 32.2932 91.956 30.5674 90.542 30.0667C90.042 31.8806 90.111 33.9045 90.402 35.7479C90.641 37.2658 91.11 39.0485 92.162 40.0345C91.474 41.4015 90.713 42.7133 89.882 43.9616C90.329 42.7375 90.55 41.3985 90.431 40.1728C90.258 38.3877 89.851 36.4784 88.37 35.527C87.529 37.3116 87.334 39.3137 87.263 41.2912C87.205 42.89 87.392 44.8619 88.295 46.1626C87.302 47.432 86.232 48.6201 85.089 49.7157C85.827 48.55 86.344 47.1823 86.453 45.8297C86.608 43.9184 86.533 41.8145 85.154 40.4118C83.976 41.9269 83.272 44.1581 82.928 46.0961C82.623 47.8095 82.305 49.8377 83.03 51.5239C81.575 52.6934 80.021 53.7237 78.378 54.5963C79.534 53.5824 80.48 52.1913 80.931 50.7549C81.522 48.8726 81.887 46.6294 80.737 44.7441C79.195 45.9595 78.062 48.033 77.169 49.9243C76.403 51.5472 75.61 53.7871 76.004 55.7197C75.094 56.0996 74.161 56.4331 73.206 56.7177L73.263 57.0063C74.221 56.7206 75.158 56.386 76.071 56.005C76.711 58.3319 78.807 59.1009 80.502 59.4402C82.917 59.9238 85.793 58.9869 87.855 57.0993C86.766 55.2065 84.546 55.0145 82.872 54.8697L82.85 54.8678C81.016 54.7092 79.032 54.9211 77.188 55.511C79.318 54.5127 81.312 53.2573 83.151 51.7817L83.176 51.8309C84.183 53.8447 86.207 53.9234 87.795 53.7962C89.95 53.6236 92.437 52.0114 93.876 49.7829C92.522 48.321 90.523 48.73 88.973 49.0469L88.965 49.0486C87.236 49.4023 85.347 50.1739 83.761 51.3621C83.912 51.2157 84.059 51.061 84.203 50.8987C85.745 49.5455 87.167 48.0317 88.458 46.3813C88.476 46.4033 88.494 46.425 88.512 46.4465C89.768 47.9888 91.591 47.5819 93.015 47.0772C94.925 46.4002 96.905 44.358 97.854 42.0135C96.383 40.9994 94.625 41.8349 93.258 42.4961C91.755 43.2223 90.166 44.3842 88.944 45.8657C89.07 45.67 89.191 45.4655 89.305 45.2538C90.44 43.6763 91.462 41.9871 92.36 40.2049L92.399 40.2346L92.409 40.2423C93.828 41.3663 95.436 40.5501 96.71 39.7474C98.439 38.6583 99.829 36.2647 100.429 33.9108C98.895 33.3061 97.38 34.4929 96.202 35.4329C94.912 36.4614 93.606 37.9285 92.71 39.6111C92.776 39.445 92.838 39.2752 92.895 39.1023C93.756 37.2533 94.487 35.3124 95.079 33.2989L95.11 33.3117L95.115 33.3142C96.406 33.9157 97.843 32.977 98.78 31.9476C100.082 30.5159 101.001 28.3149 101.216 26.1647C99.87 25.95 98.601 27.232 97.734 28.3253C96.736 29.5846 95.839 31.073 95.288 32.7264C95.329 32.546 95.364 32.3627 95.393 32.1775C95.894 30.286 96.274 28.3354 96.524 26.3413L96.562 26.3474C97.922 26.6185 99.18 25.3447 99.932 24.1084C100.99 22.3687 101.535 19.961 101.398 17.7786C100.039 17.8957 99.003 19.4879 98.332 20.776C97.554 22.2678 96.909 23.9563 96.627 25.7228C96.636 25.5815 96.641 25.4395 96.643 25.297C96.85 23.2671 96.924 21.1956 96.856 19.0986C98.245 19.0386 99.274 17.4514 99.804 16.0439C100.561 14.0308 100.683 11.4858 100.178 9.34116C98.855 9.79815 98.117 11.6656 97.682 13.1033C97.18 14.7609 96.83 16.569 96.827 18.3664C96.755 16.8585 96.609 15.3385 96.388 13.8122Z" fill="#394149" fill-opacity="0.7"/>
</svg>
