<svg width="26" height="23" viewBox="0 0 26 23" fill="none" xmlns="http://www.w3.org/2000/svg">
<path d="M24.5625 3H23.875V19.5H24.5625C24.9062 19.5 25.25 19.8438 25.25 20.1875V21.5625C25.25 21.9492 24.9062 22.25 24.5625 22.25H14.25V18.8125C14.25 18.4688 13.9062 18.125 13.5625 18.125H12.1875C11.8008 18.125 11.5 18.4688 11.5 18.8125V22.25H1.1875C0.800781 22.25 0.5 21.9492 0.5 21.5625V20.1875C0.5 19.8438 0.800781 19.5 1.1875 19.5H1.83203V3H1.1875C0.800781 3 0.5 2.69922 0.5 2.3125V0.9375C0.5 0.59375 0.800781 0.25 1.1875 0.25H24.5625C24.9062 0.25 25.25 0.59375 25.25 0.9375V2.3125C25.25 2.69922 24.9062 3 24.5625 3ZM11.5 4.93359V6.60938C11.5 6.86719 11.7578 7.125 12.0156 7.125H13.6914C13.9492 7.125 14.25 6.86719 14.25 6.60938V4.93359C14.25 4.67578 13.9492 4.375 13.6914 4.375H12.0156C11.7578 4.375 11.5 4.67578 11.5 4.93359ZM11.5 9.05859V10.7344C11.5 10.9922 11.7578 11.25 12.0156 11.25H13.6914C13.9492 11.25 14.25 10.9922 14.25 10.7344V9.05859C14.25 8.80078 13.9492 8.5 13.6914 8.5H12.0156C11.7578 8.5 11.5 8.80078 11.5 9.05859ZM6 4.93359V6.60938C6 6.86719 6.25781 7.125 6.51562 7.125H8.19141C8.44922 7.125 8.75 6.86719 8.75 6.60938V4.93359C8.75 4.67578 8.44922 4.375 8.19141 4.375H6.51562C6.25781 4.375 6 4.67578 6 4.93359ZM8.19141 11.25C8.44922 11.25 8.75 10.9922 8.75 10.7344V9.05859C8.75 8.80078 8.44922 8.5 8.19141 8.5H6.51562C6.25781 8.5 6 8.80078 6 9.05859V10.7344C6 10.9922 6.25781 11.25 6.51562 11.25H8.19141ZM8.75 16.75H17C17 14.4727 15.1523 12.625 12.875 12.625C10.5547 12.625 8.75 14.4727 8.75 16.75ZM19.75 10.7344V9.05859C19.75 8.80078 19.4492 8.5 19.1914 8.5H17.5156C17.2578 8.5 17 8.80078 17 9.05859V10.7344C17 10.9922 17.2578 11.25 17.5156 11.25H19.1914C19.4492 11.25 19.75 10.9922 19.75 10.7344ZM19.75 6.60938V4.93359C19.75 4.67578 19.4492 4.375 19.1914 4.375H17.5156C17.2578 4.375 17 4.67578 17 4.93359V6.60938C17 6.86719 17.2578 7.125 17.5156 7.125H19.1914C19.4492 7.125 19.75 6.86719 19.75 6.60938Z" fill="white"/>
</svg>
