<svg width="12" height="10" viewBox="0 0 12 10" fill="none" xmlns="http://www.w3.org/2000/svg">
<path d="M6 5.37305L2.01562 9.35742C1.72266 9.65039 1.2832 9.65039 1.01953 9.35742L0.345703 8.71289C0.0820312 8.41992 0.0820312 7.98047 0.345703 7.7168L3.1875 4.9043L0.345703 2.0625C0.0820312 1.79883 0.0820312 1.35938 0.345703 1.06641L1.01953 0.392578C1.2832 0.128906 1.72266 0.128906 2.01562 0.392578L6 4.37695C6.26367 4.66992 6.26367 5.10938 6 5.37305ZM11.625 4.37695C11.8887 4.66992 11.8887 5.10938 11.625 5.37305L7.64062 9.35742C7.37695 9.65039 6.9082 9.65039 6.64453 9.35742L5.9707 8.71289C5.70703 8.41992 5.70703 7.98047 5.9707 7.7168L8.8125 4.875L5.9707 2.0625C5.70703 1.79883 5.70703 1.33008 5.9707 1.06641L6.64453 0.392578C6.9082 0.128906 7.34766 0.128906 7.64062 0.392578L11.625 4.37695Z" fill="#F4EEA9"/>
</svg>
