<svg width="48" height="32" viewBox="0 0 48 32" fill="none" xmlns="http://www.w3.org/2000/svg">
<path d="M19.6553 4.78346C18.4378 2.88751 16.6379 1.43792 14.526 0.652575C12.4141 -0.132772 10.1044 -0.211452 7.94396 0.428363C5.78353 1.06818 3.88912 2.39192 2.54547 4.20063C1.20181 6.00934 0.481503 8.2053 0.492807 10.4585C0.493927 12.3243 0.996085 14.1556 1.94682 15.7611C2.89756 17.3665 4.26198 18.6872 5.89755 19.5851C7.53311 20.483 9.3798 20.9253 11.2447 20.8656C13.1096 20.806 14.9242 20.2466 16.4991 19.246C15.6803 21.6772 14.1553 24.271 11.6428 26.871C11.1621 27.3682 10.8986 28.0361 10.9104 28.7277C10.9162 29.0701 10.9893 29.408 11.1257 29.7221C11.2621 30.0363 11.4591 30.3204 11.7053 30.5585C11.9515 30.7965 12.2422 30.9837 12.5608 31.1094C12.8794 31.235 13.2196 31.2967 13.562 31.2909C14.2535 31.2792 14.9121 30.9932 15.3928 30.496C24.6803 20.871 23.4741 10.4085 19.6553 4.79596V4.78346ZM44.6553 4.78346C43.4378 2.88751 41.6379 1.43792 39.526 0.652575C37.4141 -0.132772 35.1044 -0.211452 32.944 0.428363C30.7835 1.06818 28.8891 2.39192 27.5455 4.20063C26.2018 6.00934 25.4815 8.2053 25.4928 10.4585C25.4939 12.3243 25.9961 14.1556 26.9468 15.7611C27.8976 17.3665 29.262 18.6872 30.8975 19.5851C32.5331 20.483 34.3798 20.9253 36.2447 20.8656C38.1096 20.806 39.9242 20.2466 41.4991 19.246C40.6803 21.6772 39.1553 24.271 36.6428 26.871C36.4048 27.1172 36.2176 27.4079 36.0919 27.7265C35.9662 28.045 35.9045 28.3852 35.9104 28.7277C35.9162 29.0701 35.9893 29.408 36.1257 29.7221C36.2621 30.0363 36.4591 30.3204 36.7053 30.5585C36.9515 30.7965 37.2422 30.9837 37.5608 31.1094C37.8794 31.235 38.2196 31.2967 38.562 31.2909C38.9044 31.2851 39.2423 31.2119 39.5565 31.0755C39.8706 30.9391 40.1548 30.7422 40.3928 30.496C49.6803 20.871 48.4741 10.4085 44.6553 4.79596V4.78346Z" fill="#389844"/>
</svg>
