<svg width="85" height="16" viewBox="0 0 85 16" fill="none" xmlns="http://www.w3.org/2000/svg">
<path d="M7.90039 1.1936C8.25195 0.490479 9.24805 0.519775 9.57031 1.1936L11.5039 5.09009L15.7812 5.70532C16.543 5.82251 16.8359 6.76001 16.2793 7.31665L13.2031 10.3342L13.9355 14.5823C14.0527 15.344 13.2324 15.9299 12.5586 15.5784L8.75 13.5569L4.91211 15.5784C4.23828 15.9299 3.41797 15.344 3.53516 14.5823L4.26758 10.3342L1.19141 7.31665C0.634766 6.76001 0.927734 5.82251 1.68945 5.70532L5.99609 5.09009L7.90039 1.1936ZM24.7754 1.1936C25.127 0.490479 26.123 0.519775 26.4453 1.1936L28.3789 5.09009L32.6562 5.70532C33.418 5.82251 33.7109 6.76001 33.1543 7.31665L30.0781 10.3342L30.8105 14.5823C30.9277 15.344 30.1074 15.9299 29.4336 15.5784L25.625 13.5569L21.7871 15.5784C21.1133 15.9299 20.293 15.344 20.4102 14.5823L21.1426 10.3342L18.0664 7.31665C17.5098 6.76001 17.8027 5.82251 18.5645 5.70532L22.8711 5.09009L24.7754 1.1936ZM41.6504 1.1936C42.002 0.490479 42.998 0.519775 43.3203 1.1936L45.2539 5.09009L49.5312 5.70532C50.293 5.82251 50.5859 6.76001 50.0293 7.31665L46.9531 10.3342L47.6855 14.5823C47.8027 15.344 46.9824 15.9299 46.3086 15.5784L42.5 13.5569L38.6621 15.5784C37.9883 15.9299 37.168 15.344 37.2852 14.5823L38.0176 10.3342L34.9414 7.31665C34.3848 6.76001 34.6777 5.82251 35.4395 5.70532L39.7461 5.09009L41.6504 1.1936ZM58.5254 1.1936C58.877 0.490479 59.873 0.519775 60.1953 1.1936L62.1289 5.09009L66.4062 5.70532C67.168 5.82251 67.4609 6.76001 66.9043 7.31665L63.8281 10.3342L64.5605 14.5823C64.6777 15.344 63.8574 15.9299 63.1836 15.5784L59.375 13.5569L55.5371 15.5784C54.8633 15.9299 54.043 15.344 54.1602 14.5823L54.8926 10.3342L51.8164 7.31665C51.2598 6.76001 51.5527 5.82251 52.3145 5.70532L56.6211 5.09009L58.5254 1.1936ZM75.4004 1.1936C75.752 0.490479 76.748 0.519775 77.0703 1.1936L79.0039 5.09009L83.2812 5.70532C84.043 5.82251 84.3359 6.76001 83.7793 7.31665L80.7031 10.3342L81.4355 14.5823C81.5527 15.344 80.7324 15.9299 80.0586 15.5784L76.25 13.5569L72.4121 15.5784C71.7383 15.9299 70.918 15.344 71.0352 14.5823L71.7676 10.3342L68.6914 7.31665C68.1348 6.76001 68.4277 5.82251 69.1895 5.70532L73.4961 5.09009L75.4004 1.1936Z" fill="#FFC947"/>
</svg>
