<svg width="14" height="16" viewBox="0 0 14 16" fill="none" xmlns="http://www.w3.org/2000/svg">
<path d="M0.351562 6H12.7734C12.9492 6 13.125 6.17578 13.125 6.35156V13.9688C13.125 14.7598 12.4805 15.375 11.7188 15.375H1.40625C0.615234 15.375 0 14.7598 0 13.9688V6.35156C0 6.17578 0.146484 6 0.351562 6ZM13.125 4.71094C13.125 4.91602 12.9492 5.0625 12.7734 5.0625H0.351562C0.146484 5.0625 0 4.91602 0 4.71094V3.65625C0 2.89453 0.615234 2.25 1.40625 2.25H2.8125V0.726562C2.8125 0.550781 2.95898 0.375 3.16406 0.375H4.33594C4.51172 0.375 4.6875 0.550781 4.6875 0.726562V2.25H8.4375V0.726562C8.4375 0.550781 8.58398 0.375 8.78906 0.375H9.96094C10.1367 0.375 10.3125 0.550781 10.3125 0.726562V2.25H11.7188C12.4805 2.25 13.125 2.89453 13.125 3.65625V4.71094Z" fill="#10221D" fill-opacity="0.6"/>
</svg>
