<svg width="28" height="20" viewBox="0 0 28 20" fill="none" xmlns="http://www.w3.org/2000/svg">
<path d="M26.8125 17.125C27.1562 17.125 27.5 17.4688 27.5 17.8125V19.1875C27.5 19.5742 27.1562 19.875 26.8125 19.875H26.125C24.4492 19.875 22.9883 19.3594 22 18.543C20.9688 19.3594 19.5078 19.875 17.875 19.875C16.1992 19.875 14.7383 19.3594 13.75 18.543C12.7188 19.3594 11.2578 19.875 9.625 19.875C7.94922 19.875 6.48828 19.3594 5.5 18.543C4.46875 19.3594 3.00781 19.875 1.375 19.875H0.6875C0.300781 19.875 0 19.5742 0 19.1875V17.8125C0 17.4688 0.300781 17.125 0.6875 17.125H1.375C2.49219 17.125 3.30859 16.7812 3.78125 16.3945C4.125 16.0078 4.59766 15.75 5.11328 15.75H5.84375C6.35938 15.75 6.83203 16.0078 7.17578 16.3945C7.64844 16.7812 8.46484 17.125 9.625 17.125C10.7422 17.125 11.5586 16.7812 12.0312 16.3945C12.375 16.0078 12.8477 15.75 13.3633 15.75H14.0938C14.6094 15.75 15.082 16.0078 15.4258 16.3945C15.8984 16.7812 16.7148 17.125 17.875 17.125C18.9922 17.125 19.8086 16.7812 20.2812 16.3945C20.625 16.0078 21.0977 15.75 21.6133 15.75H22.3438C22.8594 15.75 23.332 16.0078 23.6758 16.3945C24.1484 16.7812 24.9648 17.125 26.125 17.125H26.8125ZM9.625 15.75C8.76562 15.75 8.29297 15.4922 8.12109 15.3633C7.73438 15.0195 7.30469 14.7617 6.875 14.5898V4.75C6.875 2.51562 8.72266 0.625 11 0.625C13.2344 0.625 15.125 2.51562 15.125 4.75V5.4375C15.125 5.82422 14.7812 6.125 14.4375 6.125H13.0625C12.6758 6.125 12.375 5.82422 12.375 5.4375V4.75C12.375 4.01953 11.7305 3.375 11 3.375C10.2266 3.375 9.625 4.01953 9.625 4.75V8.875H17.875V4.75C17.875 2.51562 19.7227 0.625 22 0.625C24.2344 0.625 26.125 2.51562 26.125 4.75V5.4375C26.125 5.82422 25.7812 6.125 25.4375 6.125H24.0625C23.6758 6.125 23.375 5.82422 23.375 5.4375V4.75C23.375 4.01953 22.7305 3.375 22 3.375C21.2266 3.375 20.625 4.01953 20.625 4.75V14.5898C20.1523 14.7617 19.7227 15.0195 19.3359 15.3633C19.1641 15.4922 18.6914 15.75 17.875 15.75V11.625H9.625V15.75Z" fill="white"/>
</svg>
