<svg width="133" height="64" viewBox="0 0 133 64" fill="none" xmlns="http://www.w3.org/2000/svg">
<path d="M119.699 5.18503C120.922 7.01349 122.097 9.26912 121.519 11.6864C119.526 10.5457 117.923 8.6833 116.652 6.84471C115.372 4.99377 114.043 3.02555 113.588 0.744171C116.102 1.38715 118.352 3.172 119.699 5.18503Z" fill="#394149" fill-opacity="0.7"/>
<path d="M11.6513 11.6825C11.0753 9.26483 12.2521 7.0101 13.4777 5.18267C14.8269 3.17084 17.0781 1.38762 19.5923 0.746429C19.1355 3.02736 17.8043 4.99484 16.5229 6.84459C15.2502 8.68228 13.645 10.5435 11.6513 11.6825Z" fill="#394149" fill-opacity="0.7"/>
<path d="M9.89717 16.3203C10.3468 14.4056 10.3368 12.3096 9.90878 10.5137C9.53237 8.93543 8.98465 6.70436 7.18194 5.95154C5.87157 8.05342 5.34484 10.9157 6.10852 13.0605C6.66071 14.6118 7.65375 16.6629 9.71321 16.9804C11.603 17.416 13.5139 16.4079 15.0231 15.5757C16.7013 14.6503 18.345 13.1782 19.3437 11.428C17.5117 10.5033 15.4253 11.2537 13.8557 11.9729C12.1637 12.7482 10.6094 14.4116 9.89717 16.3203Z" fill="#394149" fill-opacity="0.7"/>
<path d="M46.5723 18.1596V8.54681H43.2905V12.0491H38.3677V8.54681H35.0858V18.1596H38.3677V14.6697H43.2905V18.1596H46.5723Z" fill="#394149" fill-opacity="0.7"/>
<path d="M57.4547 8.54681H61.0793L55.9363 14.988V18.1596H52.6422V15.0002L47.5603 8.54681H51.2951L54.3321 12.3919L57.4547 8.54681Z" fill="#394149" fill-opacity="0.7"/>
<path fill-rule="evenodd" clip-rule="evenodd" d="M72.5091 9.3672C73.1582 9.88158 73.5255 10.7511 73.5255 12.0123C73.5255 13.041 73.2683 13.8124 72.7785 14.3513C72.1172 15.1105 71.0274 15.4533 69.6069 15.4657C69.1661 15.4779 65.3944 15.4657 65.3944 15.4657V18.1596H62.1003V8.54681H69.558C70.8804 8.54681 71.8846 8.8162 72.5091 9.3672ZM70.0722 12.7594C70.1703 12.5879 70.2193 12.3675 70.2193 12.0613C70.2193 11.7429 70.1579 11.4735 70.0478 11.3266C69.8396 11.0205 69.4477 10.8734 68.811 10.8734H65.37V13.2246H68.7864C69.4722 13.2246 69.8763 13.0655 70.0722 12.7594Z" fill="#394149" fill-opacity="0.7"/>
<path d="M84.9632 15.7717V18.1596H74.8364V8.54681H84.8783V10.947H78.0692V12.1838H84.6819V14.5226H78.0692V15.7717H84.9632Z" fill="#394149" fill-opacity="0.7"/>
<path fill-rule="evenodd" clip-rule="evenodd" d="M97.2586 9.52646C97.7007 9.97952 97.9076 10.604 97.9076 11.4735C97.9076 12.2206 97.7245 12.8573 97.4179 13.2859C97.0756 13.7512 96.5487 14.1431 95.8997 14.241L98.8021 18.1596H95.1526L92.7652 14.7676H89.79V18.1596H86.52V8.54681H94.1732C95.6914 8.54681 96.6841 8.91414 97.2586 9.52646ZM94.6138 12.2817C94.7001 12.1348 94.7239 11.9388 94.7239 11.7797C94.7239 11.596 94.7001 11.4 94.6138 11.2775C94.4426 10.9592 94.1003 10.8734 93.5853 10.8734H89.8019V12.6247H93.6463C94.1732 12.6247 94.4917 12.5267 94.6138 12.2817Z" fill="#394149" fill-opacity="0.7"/>
<path d="M83.21 30.2165C83.21 28.0192 81.814 26.8644 78.5581 26.5115C78.0288 26.4473 76.473 26.2869 75.4945 26.2067C72.9764 25.934 72.2227 25.7898 72.2227 25.1481C72.2227 24.5708 72.8161 24.2981 75.0775 24.2981C76.6815 24.2981 77.5798 24.6028 77.9325 25.0679C78.109 25.2925 78.1732 25.4689 78.1892 25.6454H82.8086C82.7603 25.2604 82.6 24.715 82.3433 24.234C81.5094 22.63 79.5044 21.3468 75.1899 21.3468C70.3299 21.3468 67.6675 23.0631 67.6675 25.3086C67.6675 27.4739 69.1751 28.7409 73.249 29.1099C73.7097 29.1493 74.699 29.2428 75.509 29.3193L75.559 29.3241L75.5681 29.325L75.5717 29.3252L76.0079 29.3665C78.141 29.5911 78.7185 29.7353 78.7185 30.4091C78.7185 31.0345 78.1571 31.3713 75.7994 31.3713C73.9709 31.3713 72.8963 31.0986 72.5113 30.6335C72.351 30.4411 72.2386 30.1523 72.2066 29.9599H67.5873C67.6354 30.2806 67.7156 30.794 67.8919 31.211C68.678 32.9753 70.731 34.3226 75.4945 34.3226C80.6111 34.3226 83.21 32.879 83.21 30.2165Z" fill="#394149" fill-opacity="0.7"/>
<path fill-rule="evenodd" clip-rule="evenodd" d="M50.4628 32.847C50.944 32.2856 51.1845 31.4355 51.1845 30.5694C51.1845 29.8316 50.992 29.1258 50.5911 28.6607C50.1099 28.0351 49.2597 27.5861 48.3616 27.4739C48.9711 27.3936 49.5485 27.0729 49.8853 26.6559C50.3023 26.1586 50.4948 25.485 50.4948 24.6669C50.4948 23.8489 50.2543 23.1272 49.7089 22.5819C49.0994 21.9563 47.9927 21.5393 46.2605 21.5393H35.3859V34.1302H46.5652C48.3456 34.1302 49.725 33.7451 50.4628 32.847ZM46.0359 25.4208C46.0359 25.7256 45.9396 25.9822 45.7793 26.1586C45.5547 26.3671 45.1377 26.4473 44.5923 26.4473H39.5881V24.3943H44.4801C45.0896 24.3943 45.5066 24.4745 45.7311 24.683C45.9396 24.8594 46.0359 25.116 46.0359 25.4208ZM46.5171 30.9384C46.2605 31.1789 45.8113 31.2752 45.0575 31.2752H39.5881V29.174H45.1057C45.8113 29.174 46.2284 29.2702 46.4689 29.4787C46.6615 29.6711 46.7415 29.9118 46.7415 30.2326C46.7415 30.5374 46.6774 30.7779 46.5171 30.9384Z" fill="#394149" fill-opacity="0.7"/>
<path d="M66.287 31.0025V34.1302H53.0226V21.5393H66.1747V24.683H57.2569V26.303H65.9181V29.3665H57.2569V31.0025H66.287Z" fill="#394149" fill-opacity="0.7"/>
<path d="M98.817 24.6991V21.5393H83.7889V24.6991H89.098V34.1302H93.4916V24.6991H98.817Z" fill="#394149" fill-opacity="0.7"/>
<path d="M98.436 45.2715H97.729L97.6784 44.5908C97.4626 44.9353 97.0056 45.3489 96.0412 45.3489C94.4114 45.3489 93.6538 44.3666 93.6538 41.8585C93.6538 39.9195 94.136 38.3597 96.126 38.3597C97.851 38.3597 98.3764 39.4888 98.4017 40.7039H97.54C97.5146 39.911 97.1604 39.1784 96.1439 39.1784C94.9204 39.1784 94.5662 39.911 94.5662 41.8846C94.5662 43.9444 95.0067 44.5908 96.1617 44.5908C96.9714 44.5908 97.4447 44.1426 97.601 43.6083V42.3241H95.8596V41.5397H98.427V43.5221C98.427 44.1143 98.433 44.7464 98.4345 45.0642L98.436 45.2154V45.2715Z" fill="#394149" fill-opacity="0.7"/>
<path fill-rule="evenodd" clip-rule="evenodd" d="M35.5487 43.5565H37.9618L38.4616 45.2715H39.3752L37.3757 38.446H36.264L34.1266 45.2715H35.0315L35.5487 43.5565ZM37.7463 42.7895H35.7814C35.7814 42.7895 36.6345 40.0317 36.6518 39.9714C36.6604 39.9283 36.7984 39.3164 36.7984 39.3164L36.8938 39.769L36.9362 39.9714C36.9448 40.0144 37.7463 42.7895 37.7463 42.7895Z" fill="#394149" fill-opacity="0.7"/>
<path d="M45.9163 38.446H46.7437L45.1321 45.2715H44.1065C44.1065 45.2715 42.9603 39.9628 42.9603 39.7386C42.9516 39.9628 41.7795 45.2715 41.7795 45.2715H40.7541L39.1425 38.446H40.0731C40.0731 38.446 41.3228 43.8495 41.3228 44.065C41.3228 43.8495 42.4691 38.446 42.4691 38.446H43.4946C43.4946 38.446 44.6408 43.8582 44.6408 44.065C44.6408 43.8582 45.9163 38.446 45.9163 38.446Z" fill="#394149" fill-opacity="0.7"/>
<path fill-rule="evenodd" clip-rule="evenodd" d="M50.2828 43.5565H47.8697L47.3527 45.2715H46.4478L48.5851 38.446H49.6969L51.6964 45.2715H50.7828L50.2828 43.5565ZM48.1025 42.7895H50.0675C50.0675 42.7895 49.266 40.0144 49.2574 39.9714L49.1922 39.6608L49.1194 39.3164C49.1194 39.3164 48.9816 39.9283 48.9729 39.9714C48.9557 40.0317 48.1025 42.7895 48.1025 42.7895Z" fill="#394149" fill-opacity="0.7"/>
<path fill-rule="evenodd" clip-rule="evenodd" d="M55.0174 38.446C56.0688 38.446 56.6377 38.9372 56.6377 40.3678C56.6377 41.583 56.1809 41.988 55.7068 42.1258L57.0169 45.2715H56.0688L54.8537 42.2983H53.1991V45.2715H52.3372V38.446H55.0174ZM54.8882 41.5226C55.569 41.5226 55.7327 41.1693 55.7327 40.3937C55.7327 39.5146 55.4742 39.2475 54.8451 39.2475H53.2076V41.5226H54.8882Z" fill="#394149" fill-opacity="0.7"/>
<path fill-rule="evenodd" clip-rule="evenodd" d="M62.3756 41.7467C62.3756 43.3584 62.255 44.0132 61.9103 44.5046C61.5656 44.9786 61.0227 45.2715 60.1435 45.2715H57.7994V38.446H60.0832C60.9451 38.446 61.6173 38.7045 61.9276 39.1699C62.2723 39.6697 62.3756 40.2902 62.3756 41.7467ZM59.9626 44.4614C60.4883 44.4614 60.9279 44.3236 61.1519 44.0219C61.3933 43.6944 61.4622 43.0308 61.4622 41.7467C61.4622 40.6695 61.4018 40.092 61.1519 39.7214C60.9192 39.4026 60.4711 39.2646 59.9454 39.2646H58.6698V44.4614H59.9626Z" fill="#394149" fill-opacity="0.7"/>
<path d="M71.468 38.446H72.2954L70.6837 45.2715H69.6581C69.6581 45.2715 68.5119 39.9628 68.5119 39.7386C68.5033 39.9628 67.3312 45.2715 67.3312 45.2715H66.3057L64.6941 38.446H65.6248C65.6248 38.446 66.8744 43.8495 66.8744 44.065C66.8744 43.8495 68.0206 38.446 68.0206 38.446H69.0462C69.0462 38.446 70.1924 43.8582 70.1924 44.065C70.1924 43.8582 71.468 38.446 71.468 38.446Z" fill="#394149" fill-opacity="0.7"/>
<path d="M73.8194 38.446V45.2715H72.9231V38.446H73.8194Z" fill="#394149" fill-opacity="0.7"/>
<path d="M79.4299 38.446V45.2715H78.4388L75.8963 39.9799V45.2715H75.0603V38.446H76.1032L78.5852 43.6599V38.446H79.4299Z" fill="#394149" fill-opacity="0.7"/>
<path d="M85.0183 38.446V45.2715H84.0271L81.4851 39.9799V45.2715H80.649V38.446H81.6919L84.1744 43.6599V38.446H85.0183Z" fill="#394149" fill-opacity="0.7"/>
<path d="M87.1333 38.446V45.2715H86.2373V38.446H87.1333Z" fill="#394149" fill-opacity="0.7"/>
<path d="M92.7444 38.446V45.2715H91.7531L89.211 39.9799V45.2715H88.3745V38.446H89.4179L91.9005 43.6599V38.446H92.7444Z" fill="#394149" fill-opacity="0.7"/>
<path d="M45.2511 58.7243L44.2636 55.6848L43.2759 58.7243H40.0801L42.6655 60.6029L41.678 63.6425L44.2636 61.7639L46.8492 63.6425L45.8615 60.6029L48.4471 58.7243H45.2511Z" fill="#CA6702"/>
<path d="M56.6721 58.7248L55.6643 55.6852L54.6566 58.7248H51.3954L54.0338 60.6032L53.026 63.6428L55.6643 61.7643L58.3028 63.6428L57.295 60.6032L59.9333 58.7248H56.6721Z" fill="#CA6702"/>
<path d="M67.9839 58.7248L66.9761 55.6852L65.9683 58.7248H62.7072L65.3454 60.6032L64.3377 63.6428L66.9761 61.7643L69.6144 63.6428L68.6066 60.6032L71.2451 58.7248H67.9839Z" fill="#CA6702"/>
<path d="M79.2949 58.7248L78.2871 55.6852L77.2794 58.7248H74.0182L76.6565 60.6032L75.6487 63.6428L78.2871 61.7643L80.9254 63.6428L79.9176 60.6032L82.5561 58.7248H79.2949Z" fill="#CA6702"/>
<path d="M90.6756 58.7248L89.6888 55.6852L88.7005 58.7248H85.505L88.0903 60.6032L87.1035 63.6428L89.6888 61.7643L92.2741 63.6428L91.2859 60.6032L93.8726 58.7248H90.6756Z" fill="#CA6702"/>
<path d="M4.07808 21.4869C5.00741 22.9047 6.44548 24.6806 8.5423 24.63C10.4491 24.7253 12.0964 23.424 13.3936 22.3379C14.7908 21.1682 16.0519 19.4576 16.5843 17.6083C14.6341 17.041 12.7669 18.0921 11.3745 19.0835C9.92053 20.1189 8.80232 22.0139 8.56209 23.9597C8.54408 22.0103 8.01646 19.997 7.16585 18.3751C6.38818 16.8924 5.3045 14.8882 3.3711 14.4875C2.60935 16.7946 2.8524 19.6175 4.07808 21.4869Z" fill="#394149" fill-opacity="0.7"/>
<path d="M9.16257 32.2663C7.21652 32.5924 5.31826 31.4 4.08544 29.9975C2.49824 28.1918 1.55386 25.7695 1.74646 23.3445C3.74564 23.3953 5.25976 25.1234 6.37887 26.4302C7.58415 27.8376 8.57169 29.6893 9.04543 31.5995C8.83706 29.6958 9.47617 27.6403 10.6626 26.3701C11.8077 25.144 13.4119 23.8077 15.4078 24.0222C15.3648 25.9524 14.3972 27.7915 13.3992 29.1688C12.469 30.4524 11.036 32.04 9.16257 32.2663Z" fill="#394149" fill-opacity="0.7"/>
<path d="M5.56761 38.6803C7.3599 39.8472 9.53367 41.0021 11.8182 40.128C13.6923 39.4649 14.8839 37.5784 15.6168 35.8469C16.3931 34.0121 16.9117 31.8966 16.5527 29.8885C14.4932 30.0712 12.7855 31.5447 11.8785 33.3434C10.9302 35.2238 10.7483 37.462 11.4767 39.4335C10.4005 37.4053 8.82655 35.7643 7.15927 34.2479C5.64366 32.8695 3.46052 31.4175 1.2616 31.6906C1.67998 34.4091 3.33892 37.2294 5.56761 38.6803Z" fill="#394149" fill-opacity="0.7"/>
<path d="M16.4348 47.4773C18.1985 46.4229 18.9083 44.2043 19.1984 42.3032C19.5111 40.253 19.4977 37.9919 18.6462 36.0469C16.6 36.6184 15.1954 38.4601 14.7317 40.4773C14.2417 42.6085 14.6552 44.8799 15.847 46.6945C14.2627 44.8768 12.1559 43.3759 10.1369 42.3235C8.18669 41.3069 5.79413 40.0808 3.45203 40.8213C4.5814 43.5776 6.99733 46.1438 9.67491 47.2053C11.7485 48.0272 14.2712 48.84 16.4348 47.4773Z" fill="#394149" fill-opacity="0.7"/>
<path d="M24.7962 48.1908C25.0551 50.1697 25.0478 52.6797 23.5113 54.2029C21.5913 56.1682 18.6199 55.7889 16.3281 55.3566C13.2514 54.7757 9.78794 52.6772 7.93164 49.8831C10.1987 48.6348 12.9714 49.4333 15.2159 50.0797L15.344 50.1165C17.8494 50.8373 20.5193 51.9982 22.7521 53.5845C20.9702 51.9744 19.6719 49.6112 19.6084 47.2292C19.5512 45.0987 20.4759 42.8194 22.4659 41.8039C23.8551 43.6273 24.5057 45.9684 24.7962 48.1908Z" fill="#394149" fill-opacity="0.7"/>
<path d="M33.7132 59.8064C34.8447 57.6525 33.7236 55.1247 32.8303 53.2563C31.7741 51.0476 30.3312 48.7966 28.2661 47.1799C26.2831 48.8889 26.4717 51.3341 27.0612 53.4592C27.7622 55.986 30.1926 58.14 32.7093 59.3674C29.7946 58.2805 26.6114 57.6281 23.5829 57.4355L23.2761 57.4157C20.8431 57.2572 17.6757 57.0509 15.7369 58.8315C18.6683 61.3235 22.832 62.7612 26.5017 62.6865C28.961 62.6365 32.3351 62.3455 33.7132 59.8064Z" fill="#394149" fill-opacity="0.7"/>
<path d="M123.27 16.3271C122.56 14.4171 121.006 12.7516 119.315 11.9748C117.745 11.2545 115.659 10.5027 113.827 11.4258C114.824 13.1767 116.466 14.65 118.144 15.5767C119.651 16.4099 121.561 17.4193 123.451 16.9854C125.511 16.6699 126.507 14.6192 127.06 13.0679C127.827 10.9242 127.303 8.06132 125.995 5.9581C124.191 6.70988 123.64 8.94035 123.264 10.5185C122.833 12.3148 122.822 14.4116 123.27 16.3271Z" fill="#394149" fill-opacity="0.7"/>
<path d="M121.788 19.0875C123.241 20.1234 124.356 22.0173 124.596 23.9617C124.616 22.0135 125.146 20.0021 125.998 18.3818C126.776 16.8996 127.863 14.8962 129.796 14.4969C130.555 16.8048 130.309 19.6275 129.082 21.4958C128.153 22.9111 126.715 24.6833 124.622 24.6358C122.713 24.7333 121.064 23.4289 119.766 22.3406C118.37 21.1697 117.111 19.4582 116.581 17.6086C118.53 17.0424 120.397 18.095 121.788 19.0875Z" fill="#394149" fill-opacity="0.7"/>
<path d="M124.104 31.6121C124.317 29.7069 123.68 27.647 122.493 26.3742C121.349 25.1472 119.747 23.8098 117.751 24.0228C117.791 25.953 118.757 27.793 119.754 29.171C120.683 30.4548 122.113 32.0424 123.985 32.2712C125.932 32.6009 127.833 31.4091 129.068 30.0068C130.656 28.2024 131.603 25.7808 131.414 23.3555C129.413 23.4049 127.898 25.1317 126.778 26.4376C125.569 27.8459 124.579 29.6997 124.104 31.6121Z" fill="#394149" fill-opacity="0.7"/>
<path d="M121.271 33.347C122.217 35.2284 122.397 37.4671 121.666 39.438C122.744 37.4101 124.32 35.7701 125.989 34.2547C127.505 32.8774 129.69 31.4273 131.889 31.7019C131.469 34.4203 129.806 37.2394 127.577 38.6885C125.785 39.8524 123.613 41.005 121.332 40.1344C119.455 39.4725 118.263 37.5821 117.53 35.8476C116.755 34.0123 116.238 31.8964 116.6 29.8885C118.658 30.0729 120.366 31.5477 121.271 33.347Z" fill="#394149" fill-opacity="0.7"/>
<path d="M117.292 46.6911C118.483 44.8783 118.898 42.6091 118.411 40.4789C117.95 38.4613 116.546 36.6186 114.5 36.0455C113.647 37.9896 113.632 40.2506 113.942 42.3013C114.231 44.1987 114.936 46.4128 116.689 47.471C118.855 48.8445 121.384 48.0321 123.46 47.2106C126.139 46.151 128.558 43.5865 129.689 40.8308C127.348 40.0888 124.954 41.3132 123.003 42.3282C120.985 43.3786 118.877 44.8763 117.292 46.6911Z" fill="#394149" fill-opacity="0.7"/>
<path d="M108.338 48.185C108.078 50.1635 108.082 52.6733 109.618 54.1979C111.535 56.1646 114.507 55.7875 116.799 55.3566C119.877 54.7781 123.342 52.6818 125.201 49.8893C122.936 48.6396 120.162 49.4357 117.917 50.0803L117.788 50.1172C115.283 50.8358 112.613 51.9944 110.379 53.5783C112.162 51.9695 113.461 49.6082 113.527 47.2271C113.586 45.0968 112.663 42.8167 110.675 41.7996C109.283 43.622 108.631 45.9627 108.338 48.185Z" fill="#394149" fill-opacity="0.7"/>
<path d="M106.619 62.6792C104.16 62.6273 100.786 62.3339 99.4109 59.7935L99.3915 59.7587C98.2931 57.6114 99.4094 55.1018 100.299 53.2444C101.358 51.0364 102.803 48.7865 104.869 47.1716C106.851 48.8819 106.659 51.3269 106.068 53.4514C105.364 55.9778 102.932 58.1303 100.414 59.3557C103.33 58.271 106.513 57.621 109.542 57.4305L109.85 57.4108C112.284 57.2542 115.451 57.0506 117.387 58.8322C114.454 61.3217 110.289 62.7566 106.619 62.6792Z" fill="#394149" fill-opacity="0.7"/>
</svg>
