<svg width="11" height="8" viewBox="0 0 11 8" fill="none" xmlns="http://www.w3.org/2000/svg">
<path d="M5.5 4.52051L2.3125 7.70801C2.07812 7.94238 1.72656 7.94238 1.51562 7.70801L0.976562 7.19238C0.765625 6.95801 0.765625 6.60645 0.976562 6.39551L3.25 4.14551L0.976562 1.87207C0.765625 1.66113 0.765625 1.30957 0.976562 1.0752L1.51562 0.536133C1.72656 0.325195 2.07812 0.325195 2.3125 0.536133L5.5 3.72363C5.71094 3.95801 5.71094 4.30957 5.5 4.52051ZM10 3.72363C10.2109 3.95801 10.2109 4.30957 10 4.52051L6.8125 7.70801C6.60156 7.94238 6.22656 7.94238 6.01562 7.70801L5.47656 7.19238C5.26562 6.95801 5.26562 6.60645 5.47656 6.39551L7.75 4.12207L5.47656 1.87207C5.26562 1.66113 5.26562 1.28613 5.47656 1.0752L6.01562 0.536133C6.22656 0.325195 6.57812 0.325195 6.8125 0.536133L10 3.72363Z" fill="#389844"/>
</svg>
