<svg width="80" height="64" viewBox="0 0 80 64" fill="none" xmlns="http://www.w3.org/2000/svg">
<path d="M26.9656 21.9957C26.9656 21.8332 26.9656 19.468 26.9656 19.468H25.5602C25.5602 19.468 25.5602 21.7965 25.5602 21.87C25.5602 22.2999 25.1617 22.5884 24.4904 22.5884C23.7877 22.5884 23.4049 22.3104 23.4049 21.8646C23.4049 21.7912 23.4049 19.468 23.4049 19.468H21.9836C21.9836 19.468 21.9836 21.6758 21.9836 21.8646C21.9836 23.1127 23.0063 23.6424 24.4327 23.6424C25.9588 23.6424 26.9656 23.1075 26.9656 21.9957Z" fill="#394149" fill-opacity="0.7"/>
<path d="M31.6989 23.5847V22.4887H29.1922V19.468H27.771V23.5847H31.6989Z" fill="#394149" fill-opacity="0.7"/>
<path d="M35.9225 20.5012V19.468H31.0087V20.5012H32.7445V23.5847H34.1814V20.5012H35.9225Z" fill="#394149" fill-opacity="0.7"/>
<path d="M37.8119 23.5847V19.468H36.3698V23.5847H37.8119Z" fill="#394149" fill-opacity="0.7"/>
<path d="M44.4284 23.5847V19.468H42.6506L41.5283 21.9381L40.4586 19.468H38.623V23.5847H39.9603V21.3613L40.9252 23.5847H42.121L43.0963 21.3613V23.5847H44.4284Z" fill="#394149" fill-opacity="0.7"/>
<path d="M46.6557 22.8243H48.8793L49.2412 23.5847H50.7567L48.68 19.468H46.9862L44.7888 23.5847H46.2729L46.6557 22.8243ZM48.4335 21.9013H47.1172L47.6364 20.9102L47.7937 20.5327L47.9406 20.905L48.4335 21.9013Z" fill="#394149" fill-opacity="0.7"/>
<path d="M55.2143 20.5012V19.468H50.3007V20.5012H52.0364V23.5847H53.4735V20.5012H55.2143Z" fill="#394149" fill-opacity="0.7"/>
<path d="M59.993 23.5847V22.5621H57.0415V22.0272H59.8724V21.0256H57.0415V20.4959H59.9567V19.468H55.657V23.5847H59.993Z" fill="#394149" fill-opacity="0.7"/>
<path d="M32.7014 25.7731H31.3431C31.3431 25.7731 30.4568 28.3637 30.4568 28.4267C30.4568 28.3637 29.6283 25.7731 29.6283 25.7731H28.1547C28.1547 25.7731 27.3313 28.3637 27.3313 28.4267C27.3313 28.3637 26.4398 25.7731 26.4398 25.7731H24.9137L26.4556 29.8898H27.9921C27.9921 29.8898 28.8207 27.4303 28.8259 27.3621C28.8311 27.4303 29.6545 29.8898 29.6545 29.8898H31.1963L32.7014 25.7731Z" fill="#394149" fill-opacity="0.7"/>
<path d="M34.5598 29.8898V25.7731H33.1177V29.8898H34.5598Z" fill="#394149" fill-opacity="0.7"/>
<path d="M40.1695 29.8898V25.7731H38.827V28.0124L36.8499 25.7731H35.371V29.8898H36.724V27.5981L38.764 29.8898H40.1695Z" fill="#394149" fill-opacity="0.7"/>
<path d="M45.7875 29.8898V25.7731H44.445V28.0124L42.468 25.7731H40.9891V29.8898H42.3421V27.5981L44.3821 29.8898H45.7875Z" fill="#394149" fill-opacity="0.7"/>
<path d="M50.944 29.8898V28.8672H47.9916V28.3323H50.8234V27.3307H47.9916V26.801H50.9073V25.7731H46.6071V29.8898H50.944Z" fill="#394149" fill-opacity="0.7"/>
<path d="M56.4878 27.0265C56.4878 26.6542 56.3982 26.3867 56.2094 26.1927C55.963 25.9305 55.5385 25.7731 54.8878 25.7731H51.6106V29.8898H53.0108V28.4372H54.2852L55.3081 29.8898H56.8708L55.6281 28.2116C55.9054 28.1697 56.1316 28.0019 56.2777 27.8027C56.4089 27.6191 56.4878 27.3464 56.4878 27.0265ZM55.1246 27.1576C55.1246 27.2258 55.114 27.3097 55.0766 27.3726C55.0244 27.4775 54.8878 27.5195 54.6628 27.5195H53.016V26.7695H54.6361C54.8569 26.7695 55.0041 26.8062 55.0766 26.9426C55.114 26.995 55.1246 27.0789 55.1246 27.1576Z" fill="#394149" fill-opacity="0.7"/>
<path d="M27.5569 33.9399C27.5569 33.8726 27.5569 31.9283 27.5569 31.9283H27.0659C27.0659 31.9283 27.0659 33.8646 27.0659 33.9083C27.0659 34.3755 26.6263 34.6408 25.9927 34.6408C25.2444 34.6408 24.876 34.3557 24.876 33.9043C24.876 33.8607 24.876 31.9283 24.876 31.9283H24.3811C24.3811 31.9283 24.3811 33.8132 24.3811 33.8884C24.3811 34.7121 25.0226 35.0764 25.973 35.0764C26.955 35.0764 27.5569 34.6883 27.5569 33.9399Z" fill="#394149" fill-opacity="0.7"/>
<path d="M31.08 35.0368V34.5814H28.9377V31.9283H28.4427V35.0368H31.08Z" fill="#394149" fill-opacity="0.7"/>
<path d="M33.8926 32.3797V31.9283H30.59V32.3797H31.9918V35.0368H32.4908V32.3797H33.8926Z" fill="#394149" fill-opacity="0.7"/>
<path d="M37.4121 32.8074C37.4121 32.5856 37.3645 32.4232 37.2814 32.2926C37.1349 32.0748 36.8537 31.9283 36.3865 31.9283H34.3749V35.0368H34.8619V33.7261H36.2795L37.1467 35.0368H37.717L36.7785 33.6429C37.0161 33.6152 37.2022 33.4805 37.3012 33.3063C37.3725 33.1875 37.4121 33.0133 37.4121 32.8074ZM36.921 32.8469C36.921 32.9341 36.9013 33.0411 36.8657 33.1123C36.8023 33.2271 36.6557 33.2865 36.4182 33.2904H34.8659C34.8659 33.2826 34.8659 32.3718 34.8659 32.3718H36.3271C36.6241 32.3718 36.7825 32.4431 36.8657 32.5777C36.9013 32.6411 36.921 32.7479 36.921 32.8469Z" fill="#394149" fill-opacity="0.7"/>
<path d="M38.8213 34.2686H40.7578L41.1537 35.0368H41.6844L40.1083 31.9283H39.5262L37.8987 35.0368H38.4174L38.8213 34.2686ZM40.5518 33.829H39.0352L39.6648 32.6371L39.8034 32.348L39.942 32.6371L40.5518 33.829Z" fill="#394149" fill-opacity="0.7"/>
<path d="M46.7065 34.7398C46.8293 34.5972 46.8848 34.3953 46.8848 34.1775C46.8848 33.9716 46.8254 33.7656 46.7026 33.6389C46.5798 33.5202 46.3818 33.4212 46.164 33.4014C46.2907 33.3815 46.3897 33.3024 46.457 33.2192C46.564 33.0964 46.6273 32.8984 46.6273 32.7005C46.6273 32.4906 46.564 32.3005 46.4293 32.1698C46.2828 32.0234 46.0334 31.9283 45.6849 31.9283H43.594V35.0368H45.8393C46.2591 35.0368 46.5521 34.9299 46.7065 34.7398ZM46.1165 32.7995C46.1165 32.938 46.0729 33.0608 45.9977 33.132C45.9224 33.2152 45.7957 33.2509 45.6611 33.2509H44.0771V32.3559H45.57C45.7522 32.3559 45.8907 32.3916 45.9858 32.4787C46.069 32.5579 46.1165 32.6727 46.1165 32.7995ZM46.2748 34.4388C46.1759 34.5498 46.0056 34.6052 45.7561 34.6052H44.0771V33.6826H45.7681C45.9977 33.6826 46.1561 33.73 46.2512 33.8211C46.3382 33.9043 46.3739 34.0112 46.3739 34.134C46.3739 34.2607 46.3462 34.3676 46.2748 34.4388Z" fill="#394149" fill-opacity="0.7"/>
<path d="M50.4796 35.0368V34.5814H48.0641V33.6944H50.3846V33.243H48.0641V32.3797H50.4519V31.9283H47.5809V35.0368H50.4796Z" fill="#394149" fill-opacity="0.7"/>
<path d="M54.3482 34.1181C54.3482 33.6112 54.0122 33.3499 53.1845 33.2548C53.0455 33.2351 52.7444 33.2034 52.5821 33.1836C51.8139 33.0925 51.5803 32.9896 51.5803 32.7243C51.5803 32.4669 51.8377 32.3203 52.6138 32.3203C53.2154 32.3203 53.5247 32.4392 53.6794 32.6529C53.7231 32.7123 53.7466 32.7837 53.7583 32.8391H54.2884C54.2735 32.748 54.2373 32.6212 54.1818 32.5183C53.9685 32.1501 53.529 31.8847 52.6138 31.8847C51.5209 31.8808 51.0695 32.2768 51.0695 32.7678C51.0695 33.2588 51.4219 33.5083 52.3367 33.6153C52.4951 33.635 52.7761 33.6667 52.9148 33.6826C53.6239 33.7696 53.8458 33.8766 53.8458 34.1736C53.8458 34.4468 53.5919 34.6448 52.7801 34.6448C52.1149 34.6448 51.7584 34.526 51.6159 34.2963C51.5724 34.233 51.5447 34.134 51.5407 34.0667H51.0179C51.0299 34.2092 51.0695 34.3636 51.1407 34.4864C51.3467 34.8626 51.8298 35.0804 52.7643 35.0804C53.881 35.0804 54.3482 34.72 54.3482 34.1181Z" fill="#394149" fill-opacity="0.7"/>
<path d="M57.8991 32.3797V31.9283H54.5967V32.3797H55.9983V35.0368H56.4975V32.3797H57.8991Z" fill="#394149" fill-opacity="0.7"/>
<path d="M22.9794 37.7387C22.9794 37.4219 22.916 37.208 22.809 37.0456C22.6586 36.8119 22.3655 36.6893 21.8547 36.6893H19.8906V39.7977H20.3816V38.784C20.3816 38.784 21.7676 38.784 21.8349 38.784C22.3141 38.78 22.6427 38.6692 22.817 38.4158C22.9279 38.2613 22.9794 38.0396 22.9794 37.7387ZM22.4804 37.7387C22.4804 37.897 22.4645 38.0158 22.4131 38.095C22.322 38.2415 22.1359 38.3326 21.7517 38.3326C21.7161 38.3326 20.3816 38.3326 20.3816 38.3326V37.1328H21.7676C22.128 37.1328 22.3141 37.2159 22.4131 37.3782C22.4605 37.4495 22.4804 37.5803 22.4804 37.7387Z" fill="#394149" fill-opacity="0.7"/>
<path d="M26.5636 39.7977V39.3424H24.148V38.4554H26.4685V38.0039H24.148V37.1407H26.5359V36.6893H23.6649V39.7977H26.5636Z" fill="#394149" fill-opacity="0.7"/>
<path d="M30.3411 37.5683C30.3411 37.3466 30.2936 37.1842 30.2104 37.0535C30.0638 36.8357 29.7828 36.6893 29.3155 36.6893H27.3038V39.7977H27.7909V38.487H29.2086L30.0758 39.7977H30.646L29.7075 38.4038C29.9451 38.3762 30.1312 38.2415 30.2302 38.0673C30.3015 37.9485 30.3411 37.7743 30.3411 37.5683ZM29.8501 37.6079C29.8501 37.695 29.8302 37.802 29.7946 37.8733C29.7312 37.988 29.5847 38.0475 29.3471 38.0514H27.7948C27.7948 38.0435 27.7948 37.1328 27.7948 37.1328H29.256C29.553 37.1328 29.7114 37.204 29.7946 37.3387C29.8302 37.402 29.8501 37.5089 29.8501 37.6079Z" fill="#394149" fill-opacity="0.7"/>
<path d="M34.0123 37.1407V36.6893H31.2483V39.7977H31.7393V38.4752H33.9094V38.0118H31.7393V37.1407H34.0123Z" fill="#394149" fill-opacity="0.7"/>
<path d="M36.2661 36.6338C35.6048 36.6338 35.1494 36.7962 34.8246 37.1368C34.5514 37.402 34.4326 37.7704 34.4326 38.2336C34.4326 38.7405 34.5871 39.1206 34.8722 39.378C35.1771 39.683 35.6443 39.8413 36.2661 39.8413C36.9076 39.8413 37.4065 39.683 37.7036 39.3621C37.9609 39.1008 38.0956 38.7286 38.0956 38.2297C38.0956 37.7466 37.9807 37.3782 37.7075 37.1169C37.3946 36.7922 36.9273 36.6338 36.2661 36.6338ZM36.2661 39.3979C35.8305 39.3979 35.5216 39.3028 35.288 39.1128C35.0504 38.9187 34.9356 38.6217 34.9356 38.2415C34.9356 37.8851 35.0345 37.5882 35.2246 37.4099C35.4424 37.2041 35.775 37.0813 36.2622 37.0813C36.765 37.0813 37.0778 37.2001 37.3114 37.406C37.5095 37.5803 37.5966 37.8891 37.5966 38.2376C37.5966 38.59 37.5056 38.891 37.3036 39.0731C37.07 39.2909 36.7413 39.3979 36.2661 39.3979Z" fill="#394149" fill-opacity="0.7"/>
<path d="M41.8109 37.5683C41.8109 37.3466 41.7633 37.1842 41.6802 37.0535C41.5337 36.8357 41.2525 36.6893 40.7853 36.6893H38.7737V39.7977H39.2607V38.487H40.6783L41.5456 39.7977H42.1158L41.1773 38.4038C41.4149 38.3762 41.601 38.2415 41.7 38.0673C41.7713 37.9485 41.8109 37.7743 41.8109 37.5683ZM41.3198 37.6079C41.3198 37.695 41.3001 37.802 41.2645 37.8733C41.2011 37.988 41.0545 38.0475 40.817 38.0514H39.2647C39.2647 38.0435 39.2647 37.1328 39.2647 37.1328H40.7259C41.0229 37.1328 41.1813 37.204 41.2645 37.3387C41.3001 37.402 41.3198 37.5089 41.3198 37.6079Z" fill="#394149" fill-opacity="0.7"/>
<path d="M46.5474 39.7977V36.6893H45.9059L44.6268 39.2473L43.3715 36.6893H42.7181V39.7977H43.1894V37.406L44.3614 39.7977H44.8762L46.0761 37.406V39.7977H46.5474Z" fill="#394149" fill-opacity="0.7"/>
<path d="M47.938 39.0295H49.8745L50.2704 39.7977H50.8011L49.225 36.6893H48.6429L47.0154 39.7977H47.5341L47.938 39.0295ZM49.6685 38.59H48.1519L48.7815 37.3981L48.9201 37.109L49.0587 37.3981L49.6685 38.59Z" fill="#394149" fill-opacity="0.7"/>
<path d="M54.3684 39.7977V36.6893H53.897V39.1047L51.8383 36.6893H51.2799V39.7977H51.7591V37.3664L53.834 39.7977H54.3684Z" fill="#394149" fill-opacity="0.7"/>
<path d="M58.6404 38.6376H58.1252C58.1092 38.7801 58.0537 38.9227 57.9545 39.0296C57.7412 39.279 57.4009 39.3859 56.8783 39.3859C56.4388 39.3859 55.9673 39.2632 55.7412 38.9424C55.6228 38.792 55.5471 38.5702 55.5471 38.2376C55.5471 37.9406 55.5993 37.7188 55.7135 37.5683C55.9033 37.2635 56.3033 37.1051 56.8665 37.1051C57.4127 37.1051 57.7572 37.2555 57.9396 37.4654C58.042 37.5762 58.1017 37.707 58.1209 37.8613H58.6361C58.6201 37.6872 58.5647 37.4812 58.4463 37.307C58.1924 36.9308 57.7252 36.6338 56.8697 36.6338C56.0548 36.6338 55.5673 36.8952 55.2975 37.2872C55.1236 37.5129 55.0361 37.8297 55.0361 38.2336C55.0361 38.685 55.1439 39.0177 55.3295 39.2513C55.5993 39.6196 56.1177 39.8413 56.9017 39.8413C57.706 39.8413 58.1849 39.5998 58.4228 39.2157C58.5572 39.0296 58.6244 38.8078 58.6404 38.6376Z" fill="#394149" fill-opacity="0.7"/>
<path d="M62.1839 39.7977V39.3424H59.7679V38.4554H62.0889V38.0039H59.7679V37.1407H62.1561V36.6893H59.2847V39.7977H62.1839Z" fill="#394149" fill-opacity="0.7"/>
<path d="M25.9693 42.8857L26.5615 44.7085H28.478L26.9276 45.835L27.5198 47.6576L25.9693 46.5312L24.4188 47.6576L25.0111 45.835L23.4606 44.7085H25.3771L25.9693 42.8857Z" fill="#CA6702"/>
<path d="M32.8061 42.8859L33.4104 44.7085H35.366L33.7839 45.835L34.3882 47.6577L32.8061 46.5312L31.224 47.6577L31.8283 45.835L30.2462 44.7085H32.2018L32.8061 42.8859Z" fill="#CA6702"/>
<path d="M39.5889 42.8859L40.1933 44.7085H42.1488L40.5668 45.835L41.1711 47.6577L39.5889 46.5312L38.0069 47.6577L38.6111 45.835L37.0291 44.7085H38.9847L39.5889 42.8859Z" fill="#CA6702"/>
<path d="M46.372 42.8859L46.9763 44.7085H48.9319L47.3498 45.835L47.9541 47.6577L46.372 46.5312L44.7899 47.6577L45.3942 45.835L43.8121 44.7085H45.7678L46.372 42.8859Z" fill="#CA6702"/>
<path d="M53.2089 42.8859L53.8009 44.7085H55.7177L54.1667 45.835L54.7587 47.6577L53.2089 46.5312L51.6583 47.6577L52.2506 45.835L50.7001 44.7085H52.6166L53.2089 42.8859Z" fill="#CA6702"/>
<path d="M29.291 12.1346L29.7388 13.5127H31.1879L30.0156 14.3645L30.4634 15.7425L29.291 14.8909L28.1188 15.7425L28.5666 14.3645L27.3943 13.5127H28.8434L29.291 12.1346Z" fill="#CA6702"/>
<path d="M34.4605 12.1327L34.9174 13.5108H36.3959L35.1998 14.3626L35.6566 15.7406L34.4605 14.8889L33.2642 15.7406L33.7212 14.3626L32.5249 13.5108H34.0035L34.4605 12.1327Z" fill="#CA6702"/>
<path d="M39.5888 12.1327L40.0456 13.5108H41.5242L40.3281 14.3626L40.7849 15.7406L39.5888 14.8889L38.3925 15.7406L38.8495 14.3626L37.6532 13.5108H39.1318L39.5888 12.1327Z" fill="#CA6702"/>
<path d="M44.7178 12.1327L45.1747 13.5108H46.6533L45.4571 14.3626L45.914 15.7406L44.7178 14.8889L43.5215 15.7406L43.9785 14.3626L42.7822 13.5108H44.2608L44.7178 12.1327Z" fill="#CA6702"/>
<path d="M49.8864 12.1327L50.3342 13.5108H51.7832L50.611 14.3626L51.0587 15.7406L49.8864 14.8889L48.7141 15.7406L49.1619 14.3626L47.9896 13.5108H49.4386L49.8864 12.1327Z" fill="#CA6702"/>
<path fill-rule="evenodd" clip-rule="evenodd" d="M8.65145 36.9391C6.67535 24.5755 12.4426 12.3431 23.9883 7.09024L24.0949 7.32448C12.6653 12.5245 6.94575 24.6371 8.90553 36.8985C11.0737 50.4636 22.0171 58.599 35.4182 58.9912L35.4106 59.2485C21.9051 58.8532 10.842 50.6442 8.65145 36.9391Z" fill="#394149" fill-opacity="0.7"/>
<path d="M21.4849 10.2455C19.3513 10.2942 16.8541 11.4974 15.3806 13.245C16.5623 14.3423 18.4635 13.9366 19.8317 13.7122C21.7845 13.392 23.861 12.7716 25.7037 11.8934C24.9461 10.2806 22.9051 10.2132 21.4849 10.2455Z" fill="#394149" fill-opacity="0.7"/>
<path d="M19.8071 7.61343C18.5433 9.58207 17.0371 11.5387 15.3981 13.2616C14.0268 11.9744 14.8545 9.83221 15.4142 8.50005C16.4281 6.08618 18.8589 4.00458 21.4002 2.93951C22.0977 4.52639 20.5827 6.40511 19.8071 7.61343Z" fill="#394149" fill-opacity="0.7"/>
<path d="M15.3106 15.7661C13.3128 16.4763 11.596 18.4754 10.734 20.4825C12.1706 21.1504 13.8038 20.1858 14.9985 19.5436C16.6391 18.6617 18.3128 17.4448 19.6297 16.0366C18.4398 14.7811 16.6331 15.2961 15.3106 15.7661Z" fill="#394149" fill-opacity="0.7"/>
<path d="M12.8889 13.7989C12.4515 16.0443 11.7183 18.3715 10.7553 20.4927C9.07447 19.6999 9.13848 17.4294 9.21048 15.9845C9.33336 13.5183 10.7131 10.7059 12.634 8.91861C13.81 10.1794 13.1675 12.3686 12.8889 13.7989Z" fill="#394149" fill-opacity="0.7"/>
<path d="M11.4665 22.8933C9.80173 24.2066 8.79267 26.6404 8.55896 28.8138C10.1338 28.9946 11.3926 27.5614 12.3292 26.5781C13.6044 25.2394 14.8115 23.5602 15.5782 21.8035C14.0769 20.9845 12.5509 22.0379 11.4665 22.8933Z" fill="#394149" fill-opacity="0.7"/>
<path d="M8.58228 21.7846C8.87913 24.052 8.87977 26.5051 8.58281 28.8167C6.75134 28.5918 6.14388 26.3927 5.78505 25.0132C5.16553 22.632 5.58089 19.5562 6.78772 17.2413C8.29588 18.0762 8.39262 20.3354 8.58228 21.7846Z" fill="#394149" fill-opacity="0.7"/>
<path d="M10.16 30.6731C8.84271 32.6028 8.37946 35.6269 8.97188 38.0576C10.7127 37.6455 11.5756 35.6746 12.2685 34.2827C13.1894 32.4328 13.9677 30.2746 14.2463 28.1571C12.3582 27.7642 11.0278 29.4018 10.16 30.6731Z" fill="#394149" fill-opacity="0.7"/>
<path d="M6.70198 30.478C7.72833 32.8542 8.52929 35.4696 8.99798 38.0517C7.0015 38.4806 5.5646 36.3842 4.72982 34.9941C3.24364 32.5197 2.81068 29.0894 3.3551 26.1292C5.18241 26.4956 6.0766 29.0305 6.70198 30.478Z" fill="#394149" fill-opacity="0.7"/>
<path d="M11.0815 39.0689C10.3742 41.4098 10.8658 44.5922 12.2979 46.793C13.8717 45.7683 14.0895 43.5132 14.3126 41.8962C14.6066 39.7624 14.7451 37.3987 14.3798 35.1861C12.3669 35.4431 11.5539 37.5051 11.0815 39.0689Z" fill="#394149" fill-opacity="0.7"/>
<path d="M7.58351 40.071C9.34948 42.0974 10.9785 44.4078 12.322 46.7778C10.4999 47.9153 8.36175 46.3613 7.065 45.2616C4.76452 43.3107 3.27076 39.995 2.91663 36.869C4.83108 36.6117 6.51823 38.8485 7.58351 40.071Z" fill="#394149" fill-opacity="0.7"/>
<path d="M14.793 47.0365C14.9448 49.7613 16.7187 52.6205 19.0808 54.2479C20.2215 52.6862 19.5065 50.2933 19.1173 48.623C18.5935 46.3742 17.8685 44.0324 16.7911 41.9546C14.9122 42.9474 14.693 45.242 14.793 47.0365Z" fill="#394149" fill-opacity="0.7"/>
<path d="M11.6162 49.3381C14.1752 50.7601 16.7269 52.4381 19.0994 54.2236C17.6786 56.0945 14.8387 55.3485 13.0783 54.7471C9.97597 53.6874 7.21021 50.8937 5.76562 47.7901C7.5972 46.8466 10.1045 48.4981 11.6162 49.3381Z" fill="#394149" fill-opacity="0.7"/>
<path d="M22.0814 53.6932C23.6173 56.4962 27.1173 58.3248 30.4133 58.765C30.7681 56.7273 28.5632 54.7097 27.3617 53.3898C25.6511 51.5106 23.8686 49.5605 21.8701 47.9358C20.3728 49.6742 21.1644 52.0197 22.0814 53.6932Z" fill="#394149" fill-opacity="0.7"/>
<path d="M19.8878 57.2456C23.3792 57.6086 26.9297 58.1312 30.4189 58.7338C30.0858 61.3048 26.0057 61.7198 24.1534 61.8716C20.3556 62.1828 16.1307 60.6562 13.189 58.0862C14.6501 56.3669 18.0281 57.0524 19.8878 57.2456Z" fill="#394149" fill-opacity="0.7"/>
<path d="M26.6125 4.93228C24.2685 5.60097 21.5248 6.86956 20.1694 9.21132C22.6297 8.94316 25.0477 8.06775 27.4124 7.40076C30.0612 6.65356 32.8502 6.09473 35.4147 5.06337C32.6061 3.93975 29.2954 4.16684 26.6125 4.93228Z" fill="#394149" fill-opacity="0.7"/>
<path fill-rule="evenodd" clip-rule="evenodd" d="M71.9598 36.8985C73.9193 24.6371 68.1998 12.5247 56.7705 7.32448L56.8771 7.09024C68.4227 12.3433 74.1902 24.5755 72.2137 36.9391C70.0238 50.6442 58.9603 58.8532 45.4549 59.2485L45.4474 58.9912C58.8483 58.599 69.7913 50.4636 71.9598 36.8985Z" fill="#394149" fill-opacity="0.7"/>
<path d="M59.3807 10.2455C61.514 10.2942 64.0111 11.4974 65.4852 13.245C64.3033 14.3423 62.4015 13.9366 61.034 13.7122C59.0809 13.392 57.0041 12.7716 55.162 11.8934C55.9193 10.2806 57.9599 10.2132 59.3807 10.2455Z" fill="#394149" fill-opacity="0.7"/>
<path d="M61.0585 7.61343C62.3225 9.58207 63.8287 11.5387 65.4671 13.2616C66.8388 11.9744 66.0111 9.83221 65.4511 8.50005C64.4377 6.08618 62.0068 4.00458 59.4649 2.93951C58.7673 4.52639 60.2831 6.40511 61.0585 7.61343Z" fill="#394149" fill-opacity="0.7"/>
<path d="M65.5556 15.7661C67.5535 16.4763 69.2698 18.4754 70.1316 20.4825C68.6948 21.1504 67.0618 20.1858 65.8671 19.5436C64.2266 18.6617 62.553 17.4448 61.2367 16.0366C62.426 14.7811 64.233 15.2961 65.5556 15.7661Z" fill="#394149" fill-opacity="0.7"/>
<path d="M67.977 13.7989C68.4143 16.0443 69.1471 18.3715 70.1103 20.4927C71.7914 19.6999 71.7274 17.4294 71.6548 15.9845C71.5322 13.5183 70.153 10.7059 68.2319 8.91861C67.0554 10.1794 67.6986 12.3686 67.977 13.7989Z" fill="#394149" fill-opacity="0.7"/>
<path d="M69.3988 22.8933C71.0638 24.2066 72.0729 26.6404 72.3065 28.8138C70.7321 28.9946 69.4734 27.5614 68.5369 26.5781C67.2612 25.2394 66.0537 23.5602 65.2878 21.8035C66.7886 20.9845 68.315 22.0379 69.3988 22.8933Z" fill="#394149" fill-opacity="0.7"/>
<path d="M72.2841 21.7846C71.9865 24.0518 71.9865 26.5051 72.2831 28.8167C74.1145 28.5918 74.7225 26.3927 75.0809 25.0132C75.7007 22.632 75.2847 19.5562 74.0783 17.2413C72.57 18.0762 72.4729 20.3354 72.2841 21.7846Z" fill="#394149" fill-opacity="0.7"/>
<path d="M70.7054 30.6731C72.0228 32.6028 72.4857 35.6269 71.8937 38.0576C70.1529 37.6455 69.29 35.6747 68.5966 34.2827C67.6761 32.4328 66.8974 30.2746 66.619 28.1571C68.507 27.7642 69.8382 29.4018 70.7054 30.6731Z" fill="#394149" fill-opacity="0.7"/>
<path d="M74.1636 30.478C73.1375 32.8542 72.3364 35.4696 71.8682 38.0517C73.8639 38.4806 75.3007 36.3842 76.1359 34.9941C77.6218 32.5197 78.0548 29.0894 77.5108 26.1292C75.6836 26.4956 74.7887 29.0305 74.1636 30.478Z" fill="#394149" fill-opacity="0.7"/>
<path d="M69.7838 39.0689C70.491 41.4098 70.0003 44.5922 68.5678 46.793C66.9945 45.7683 66.7758 43.5132 66.5529 41.8962C66.2595 39.7624 66.1209 37.3987 66.4857 35.1861C68.4985 35.4431 69.3113 37.5051 69.7838 39.0689Z" fill="#394149" fill-opacity="0.7"/>
<path d="M73.2815 40.071C71.5161 42.0975 69.8873 44.4078 68.5433 46.7778C70.3652 47.9153 72.5039 46.3613 73.8009 45.2616C76.1007 43.3107 77.5951 39.995 77.9492 36.869C76.0345 36.6117 74.3471 38.8485 73.2815 40.071Z" fill="#394149" fill-opacity="0.7"/>
<path d="M66.0718 47.0365C65.9204 49.7613 64.1465 52.6205 61.7849 54.2479C60.6436 52.6862 61.3593 50.2934 61.7476 48.623C62.2713 46.3742 62.9966 44.0324 64.074 41.9546C65.9534 42.9474 66.1721 45.242 66.0718 47.0365Z" fill="#394149" fill-opacity="0.7"/>
<path d="M69.2495 49.3381C66.6906 50.7601 64.1391 52.4381 61.7668 54.2236C63.1876 56.0945 66.0271 55.3485 67.7871 54.7471C70.89 53.6874 73.6559 50.8937 75.1002 47.7901C73.2687 46.8466 70.761 48.4981 69.2495 49.3381Z" fill="#394149" fill-opacity="0.7"/>
<path d="M58.7844 53.6932C57.2484 56.4962 53.7487 58.3248 50.4522 58.765C50.0975 56.7273 52.3022 54.7097 53.5044 53.3898C55.2142 51.5106 56.9966 49.5605 58.9956 47.9358C60.4932 49.6742 59.7006 52.0197 58.7844 53.6932Z" fill="#394149" fill-opacity="0.7"/>
<path d="M60.9775 57.2456C57.4863 57.6086 53.9365 58.1312 50.4465 58.7338C50.7798 61.3048 54.8602 61.7198 56.7119 61.8716C60.5103 62.1828 64.7354 60.6562 67.6762 58.0862C66.2159 56.3669 62.8378 57.0524 60.9775 57.2456Z" fill="#394149" fill-opacity="0.7"/>
<path d="M54.2532 4.93228C56.5966 5.60097 59.3412 6.86956 60.6958 9.21132C58.2361 8.94316 55.818 8.06775 53.4532 7.40076C50.8044 6.65356 48.0154 6.09473 45.4509 5.06337C48.2596 3.93975 51.5702 4.16684 54.2532 4.93228Z" fill="#394149" fill-opacity="0.7"/>
<path d="M41.9571 3.72044L40.7544 1.06668L39.5744 3.67105L36.83 1.96951L38.5935 5.67543H42.9792L44.679 1.96951L41.9571 3.72044Z" fill="#394149" fill-opacity="0.7"/>
<path d="M42.951 6.25131H38.5583V6.89953H42.951V6.25131Z" fill="#394149" fill-opacity="0.7"/>
<path d="M41.0685 56.3966L41.7763 58.5749H44.0668L42.2138 59.9212L42.9215 62.0995L41.0685 60.7533L39.2155 62.0995L39.9233 59.9212L38.0703 58.5749H40.3608L41.0685 56.3966Z" fill="#CA6702"/>
</svg>
