<svg width="28" height="23" viewBox="0 0 28 23" fill="none" xmlns="http://www.w3.org/2000/svg">
<path d="M26.8125 19.5C27.1562 19.5 27.5 19.8438 27.5 20.1875V21.5625C27.5 21.9492 27.1562 22.25 26.8125 22.25H0.6875C0.300781 22.25 0 21.9492 0 21.5625V20.1875C0 19.8438 0.300781 19.5 0.6875 19.5H1.71875L12.0312 5.32031L9.75391 2.18359C9.49609 1.88281 9.58203 1.45312 9.88281 1.19531L11 0.421875C11.3008 0.164062 11.7305 0.25 11.9453 0.550781L13.75 3L15.5117 0.550781C15.7266 0.25 16.1562 0.164062 16.457 0.421875L17.5742 1.19531C17.875 1.45312 17.9609 1.88281 17.7031 2.18359L15.4258 5.32031L25.7383 19.5H26.8125ZM13.75 12.625L8.72266 19.5H18.7344L13.75 12.625Z" fill="white"/>
</svg>
