<svg width="62" height="13" viewBox="0 0 62 13" fill="none" xmlns="http://www.w3.org/2000/svg">
<path d="M5.56445 1.26172C5.82227 0.746094 6.55273 0.767578 6.78906 1.26172L8.20703 4.11914L11.3438 4.57031C11.9023 4.65625 12.1172 5.34375 11.709 5.75195L9.45312 7.96484L9.99023 11.0801C10.0762 11.6387 9.47461 12.0684 8.98047 11.8105L6.1875 10.3281L3.37305 11.8105C2.87891 12.0684 2.27734 11.6387 2.36328 11.0801L2.90039 7.96484L0.644531 5.75195C0.236328 5.34375 0.451172 4.65625 1.00977 4.57031L4.16797 4.11914L5.56445 1.26172ZM17.9395 1.26172C18.1973 0.746094 18.9277 0.767578 19.1641 1.26172L20.582 4.11914L23.7188 4.57031C24.2773 4.65625 24.4922 5.34375 24.084 5.75195L21.8281 7.96484L22.3652 11.0801C22.4512 11.6387 21.8496 12.0684 21.3555 11.8105L18.5625 10.3281L15.748 11.8105C15.2539 12.0684 14.6523 11.6387 14.7383 11.0801L15.2754 7.96484L13.0195 5.75195C12.6113 5.34375 12.8262 4.65625 13.3848 4.57031L16.543 4.11914L17.9395 1.26172ZM30.3145 1.26172C30.5723 0.746094 31.3027 0.767578 31.5391 1.26172L32.957 4.11914L36.0938 4.57031C36.6523 4.65625 36.8672 5.34375 36.459 5.75195L34.2031 7.96484L34.7402 11.0801C34.8262 11.6387 34.2246 12.0684 33.7305 11.8105L30.9375 10.3281L28.123 11.8105C27.6289 12.0684 27.0273 11.6387 27.1133 11.0801L27.6504 7.96484L25.3945 5.75195C24.9863 5.34375 25.2012 4.65625 25.7598 4.57031L28.918 4.11914L30.3145 1.26172ZM42.6895 1.26172C42.9473 0.746094 43.6777 0.767578 43.9141 1.26172L45.332 4.11914L48.4688 4.57031C49.0273 4.65625 49.2422 5.34375 48.834 5.75195L46.5781 7.96484L47.1152 11.0801C47.2012 11.6387 46.5996 12.0684 46.1055 11.8105L43.3125 10.3281L40.498 11.8105C40.0039 12.0684 39.4023 11.6387 39.4883 11.0801L40.0254 7.96484L37.7695 5.75195C37.3613 5.34375 37.5762 4.65625 38.1348 4.57031L41.293 4.11914L42.6895 1.26172ZM55.0645 1.26172C55.3223 0.746094 56.0527 0.767578 56.2891 1.26172L57.707 4.11914L60.8438 4.57031C61.4023 4.65625 61.6172 5.34375 61.209 5.75195L58.9531 7.96484L59.4902 11.0801C59.5762 11.6387 58.9746 12.0684 58.4805 11.8105L55.6875 10.3281L52.873 11.8105C52.3789 12.0684 51.7773 11.6387 51.8633 11.0801L52.4004 7.96484L50.1445 5.75195C49.7363 5.34375 49.9512 4.65625 50.5098 4.57031L53.668 4.11914L55.0645 1.26172Z" fill="#F2C94C"/>
</svg>
