<svg width="130" height="80" viewBox="0 0 130 80" fill="none" xmlns="http://www.w3.org/2000/svg">
<path fill-rule="evenodd" clip-rule="evenodd" d="M65.5869 0.852137L64.827 0.09375L64.0672 0.852137L29.1765 35.6757L30.6962 37.1983L64.827 3.13316L98.958 37.1983L100.478 35.6757L65.5869 0.852137ZM65.726 9.73071L64.9667 8.96372L64.2023 9.72545L59.2948 14.6155C58.8739 15.0348 58.8727 15.7159 59.2919 16.1366C59.7113 16.5575 60.3923 16.5587 60.8132 16.1394L63.8858 13.0776V19.4135L58.7666 24.3859C58.3406 24.7999 58.3306 25.4807 58.7446 25.907C59.1584 26.3331 59.8394 26.343 60.2655 25.929L63.8858 22.4125V28.5218L58.3311 34.3983C57.9231 34.83 57.9422 35.5107 58.3739 35.9188C58.8056 36.3269 59.4864 36.3078 59.8944 35.876L63.8858 31.6535V35.1371V36.2127H66.0371V35.1371V31.6998L69.8856 35.8669C70.2887 36.3033 70.9691 36.3304 71.4056 35.9273C71.842 35.5243 71.869 34.8437 71.4659 34.4074L66.0371 28.5291V22.4811L69.4413 25.9148C69.8596 26.3367 70.5406 26.3396 70.9625 25.9214C71.3843 25.5031 71.3873 24.8221 70.9691 24.4001L66.0371 19.4255V13.1031L69.0374 16.1341C69.4553 16.5564 70.1363 16.5597 70.5585 16.1419C70.9807 15.724 70.9842 15.043 70.5663 14.6208L65.726 9.73071ZM49.3948 24.2446L49.7754 24.631L51.7453 26.6315C51.9537 26.8432 51.9512 27.1837 51.7395 27.3921C51.5279 27.6005 51.1873 27.5979 50.9789 27.3862L49.9301 26.3211V28.6255L51.9092 30.6322C52.1178 30.8437 52.1155 31.1841 51.904 31.3928C51.6925 31.6014 51.3519 31.5989 51.1434 31.3874L49.9301 30.1573V32.3517L52.1139 34.7286C52.3149 34.9474 52.3004 35.2875 52.0817 35.4885C51.863 35.6894 51.5227 35.675 51.3218 35.4563L49.9301 33.9415V35.0924V35.6303H48.8544V35.0924V33.9183L47.4037 35.4608C47.2003 35.6773 46.8599 35.6877 46.6435 35.4842C46.4271 35.2808 46.4167 34.9404 46.6201 34.724L48.8544 32.3481V30.1228L47.5518 31.3947C47.3393 31.6022 46.9988 31.5981 46.7912 31.3856C46.5838 31.173 46.5878 30.8325 46.8004 30.6251L48.8544 28.6196V26.3083L47.7756 27.3889C47.5657 27.5991 47.2251 27.5993 47.015 27.3895C46.8048 27.1796 46.8046 26.8391 47.0144 26.6289L49.0116 24.6284L49.3948 24.2446ZM80.8343 24.631L80.4536 24.2446L80.0704 24.6284L78.0733 26.6289C77.8634 26.8391 77.8636 27.1796 78.0738 27.3895C78.2839 27.5993 78.6245 27.5991 78.8344 27.3889L79.9133 26.3083V28.6196L77.8592 30.6251C77.6466 30.8325 77.6426 31.173 77.8501 31.3856C78.0577 31.5981 78.3981 31.6022 78.6107 31.3947L79.9133 30.1228V32.3481L77.6789 34.724C77.4755 34.9404 77.486 35.2808 77.7023 35.4842C77.9188 35.6877 78.2591 35.6773 78.4625 35.4608L79.9133 33.9183V35.0924V35.6303H80.9889V35.0924V33.9415L82.3806 35.4563C82.5815 35.675 82.9218 35.6894 83.1405 35.4885C83.3592 35.2875 83.3737 34.9474 83.1727 34.7286L80.9889 32.3517V30.1573L82.2022 31.3874C82.4107 31.5989 82.7513 31.6014 82.9628 31.3928C83.1743 31.1841 83.1766 30.8437 82.968 30.6322L80.9889 28.6255V26.3211L82.0378 27.3862C82.2462 27.5979 82.5867 27.6005 82.7984 27.3921C83.01 27.1837 83.0126 26.8432 82.8041 26.6315L80.8343 24.631ZM38.9602 16.1316C38.3759 15.5314 37.6267 15.1179 36.8074 14.9435C35.9882 14.7689 35.1354 14.8414 34.3574 15.1516C33.5793 15.4617 32.9105 15.9956 32.4359 16.6857C31.9611 17.3759 31.7018 18.1913 31.6905 19.029C31.6792 19.8665 31.9166 20.6887 32.3726 21.3913C32.8285 22.094 33.4826 22.6457 34.2521 22.9767C35.0217 23.3076 35.872 23.4029 36.6956 23.2506C37.4974 23.1023 38.2386 22.7259 38.831 22.1673L38.8314 22.1675L38.8747 22.1256L38.8796 22.1207L48.6584 12.6014C49.0841 12.1871 49.0934 11.5061 48.679 11.0804C48.2646 10.6547 47.5836 10.6456 47.1579 11.0599L37.3772 20.581C36.5523 21.3821 35.2343 21.3636 34.4321 20.5396C33.6292 19.7148 33.6469 18.3954 34.4716 17.5926C35.2964 16.7898 36.6159 16.8075 37.4187 17.6323L38.9602 16.1316ZM92.9783 14.9435C92.1589 15.1179 91.4097 15.5314 90.8255 16.1316L92.367 17.6323C93.1699 16.8075 94.4893 16.7898 95.314 17.5926C96.1387 18.3954 96.1565 19.7148 95.3537 20.5396C94.5514 21.3636 93.2333 21.3821 92.4085 20.581L82.6277 11.0599C82.2021 10.6456 81.5212 10.6547 81.1068 11.0804C80.6924 11.5061 80.7016 12.1871 81.1272 12.6014L90.9061 22.1207L90.911 22.1256L90.9542 22.1675L90.9546 22.1673C91.547 22.7259 92.2884 23.1023 93.09 23.2506C93.9137 23.4029 94.7641 23.3076 95.5336 22.9767C96.303 22.6457 96.9572 22.094 97.4131 21.3913C97.8692 20.6887 98.1065 19.8665 98.0952 19.029C98.084 18.1913 97.8245 17.3759 97.3499 16.6857C96.8751 15.9956 96.2065 15.4617 95.4283 15.1516C94.6502 14.8414 93.7975 14.7689 92.9783 14.9435Z" fill="#F4EEA9"/>
<path d="M20.097 65.299L15.4213 58.6194C18.1803 57.5448 19.7485 55.2795 19.7485 52.2011C19.7485 47.6996 16.4378 44.9696 11.094 44.9696H2.72992V65.299H6.50538V59.3745H11.094C11.3554 59.3745 11.6168 59.3745 11.8782 59.3454L16.0312 65.299H20.097ZM15.944 52.2011C15.944 54.7568 14.2306 56.267 10.9198 56.267H6.50538V48.1642H10.9198C14.2306 48.1642 15.944 49.6454 15.944 52.2011ZM39.1906 65.299H43.1403L33.963 44.9696H30.2456L21.0974 65.299H24.989L26.9929 60.5942H37.1576L39.1906 65.299ZM28.2708 57.632L32.0753 48.7451L35.9088 57.632H28.2708ZM60.0434 44.9696V58.7355L48.8332 44.9696H45.7257V65.299H49.4721V51.5331L60.6823 65.299H63.7898V44.9696H60.0434ZM83.1193 61.2332C81.8124 61.9883 80.3893 62.2787 78.9372 62.2787C74.639 62.2787 71.5896 59.2583 71.5896 55.1343C71.5896 50.9232 74.639 47.99 78.9663 47.99C81.1444 47.99 82.9741 48.716 84.5714 50.3134L86.9528 47.99C85.0361 45.8118 82.1899 44.6792 78.792 44.6792C72.4318 44.6792 67.7851 49.0645 67.7851 55.1343C67.7851 61.2041 72.4318 65.5895 78.7339 65.5895C81.6091 65.5895 84.5714 64.7182 86.6915 63.0047V54.902H83.1193V61.2332ZM95.4465 62.1335V56.5284H105.263V53.4209H95.4465V48.1352H106.512V44.9696H91.6711V65.299H106.918V62.1335H95.4465ZM128.494 65.299L123.818 58.6194C126.577 57.5448 128.146 55.2795 128.146 52.2011C128.146 47.6996 124.835 44.9696 119.491 44.9696H111.127V65.299H114.902V59.3745H119.491C119.752 59.3745 120.014 59.3745 120.275 59.3454L124.428 65.299H128.494ZM124.341 52.2011C124.341 54.7568 122.628 56.267 119.317 56.267H114.902V48.1642H119.317C122.628 48.1642 124.341 49.6454 124.341 52.2011Z" fill="white"/>
<path d="M20.1971 70.8033H17.5543V77.5797H18.5223V75.5274H20.1971C21.959 75.5274 23.0238 74.6368 23.0238 73.1654C23.0238 71.6939 21.959 70.8033 20.1971 70.8033ZM20.168 74.6852H18.5223V71.6455H20.168C21.4072 71.6455 22.0558 72.1973 22.0558 73.1654C22.0558 74.1334 21.4072 74.6852 20.168 74.6852ZM29.841 77.5797H30.8575L27.7791 70.8033H26.8207L23.7519 77.5797H24.749L25.4944 75.8856H29.0956L29.841 77.5797ZM25.8333 75.1112L27.295 71.7907L28.7568 75.1112H25.8333ZM38.1264 77.5797L36.5194 75.3048C37.4681 74.966 38.0102 74.2109 38.0102 73.1654C38.0102 71.6939 36.9453 70.8033 35.1834 70.8033H32.5406V77.5797H33.5087V75.5178H35.1834C35.3286 75.5178 35.4739 75.5081 35.6094 75.4984L37.0712 77.5797H38.1264ZM35.1544 74.6949H33.5087V71.6455H35.1544C36.3935 71.6455 37.0421 72.1973 37.0421 73.1654C37.0421 74.1334 36.3935 74.6949 35.1544 74.6949ZM45.048 77.5797H46.1807L43.1022 73.8527L45.9967 70.8033H44.8932L41.2145 74.5884V70.8033H40.2464V77.5797H41.2145V75.8275L42.4536 74.5691L45.048 77.5797ZM56.628 77.0667L55.718 76.1567C55.9891 75.7307 56.1924 75.208 56.3085 74.6078L55.5631 74.3658C55.476 74.8401 55.3308 75.2467 55.1469 75.5952L53.4721 73.9301C54.5079 73.3396 54.9145 72.8459 54.9145 72.1586C54.9145 71.2776 54.2562 70.7452 53.2301 70.7452C52.1168 70.7452 51.4004 71.3551 51.4004 72.2651C51.4004 72.7685 51.6037 73.2041 52.2136 73.814C51.0423 74.4819 50.5679 75.0628 50.5679 75.8953C50.5679 76.9311 51.565 77.6572 52.9397 77.6572C53.84 77.6572 54.6144 77.3571 55.2049 76.7859L56.1052 77.6862L56.628 77.0667ZM53.2301 71.4228C53.8109 71.4228 54.1304 71.7229 54.1304 72.1683C54.1304 72.5942 53.84 72.904 52.9494 73.4074C52.3976 72.8459 52.262 72.5942 52.262 72.2457C52.262 71.7617 52.6202 71.4228 53.2301 71.4228ZM52.9978 76.8827C52.0878 76.8827 51.4779 76.4471 51.4779 75.7985C51.4779 75.2564 51.778 74.8595 52.7267 74.327L54.6531 76.2438C54.2175 76.6698 53.6464 76.8827 52.9978 76.8827ZM64.7598 77.6572C65.815 77.6572 66.7249 77.2893 67.3445 76.5923L66.7153 75.9824C66.1925 76.5342 65.5536 76.7956 64.8082 76.7956C63.2786 76.7956 62.146 75.692 62.146 74.1915C62.146 72.691 63.2786 71.5874 64.8082 71.5874C65.5536 71.5874 66.1925 71.8391 66.7153 72.3909L67.3445 71.781C66.7249 71.084 65.815 70.7258 64.7695 70.7258C62.7075 70.7258 61.1779 72.1876 61.1779 74.1915C61.1779 76.1954 62.7075 77.6572 64.7598 77.6572ZM74.3001 77.5797H75.3165L72.2381 70.8033H71.2797L68.2109 77.5797H69.208L69.9534 75.8856H73.5547L74.3001 77.5797ZM70.2923 75.1112L71.7541 71.7907L73.2158 75.1112H70.2923ZM84.2117 77.5797L84.2021 70.8033H83.4082L80.6202 75.5662L77.7934 70.8033H76.9996V77.5797H77.929V72.6716L80.3782 76.7569H80.8235L83.2727 72.6426L83.2824 77.5797H84.2117ZM89.5606 70.8033H86.9177V77.5797H87.8858V75.5274H89.5606C91.3225 75.5274 92.3873 74.6368 92.3873 73.1654C92.3873 71.6939 91.3225 70.8033 89.5606 70.8033ZM89.5315 74.6852H87.8858V71.6455H89.5315C90.7707 71.6455 91.4193 72.1973 91.4193 73.1654C91.4193 74.1334 90.7707 74.6852 89.5315 74.6852ZM94.4817 77.5797H95.4498V70.8033H94.4817V77.5797ZM103.011 70.8033V75.8566L98.9448 70.8033H98.151V77.5797H99.119V72.5264L103.185 77.5797H103.979V70.8033H103.011ZM111.374 76.36C110.89 76.6698 110.358 76.7956 109.787 76.7956C108.228 76.7956 107.095 75.6823 107.095 74.1915C107.095 72.6813 108.228 71.5874 109.796 71.5874C110.561 71.5874 111.2 71.8294 111.762 72.3715L112.362 71.7713C111.742 71.084 110.832 70.7258 109.758 70.7258C107.657 70.7258 106.127 72.1876 106.127 74.1915C106.127 76.1954 107.657 77.6572 109.738 77.6572C110.687 77.6572 111.626 77.3668 112.304 76.7956V74.1528H111.374V76.36Z" fill="white"/>
<path d="M9.9496 76.2354C11.1377 76.2354 12.1009 75.2722 12.1009 74.0841C12.1009 72.896 11.1377 71.9329 9.9496 71.9329C8.76149 71.9329 7.79834 72.896 7.79834 74.0841C7.79834 75.2722 8.76149 76.2354 9.9496 76.2354Z" fill="#F4EEA9"/>
<path d="M119.798 76.2354C120.986 76.2354 121.95 75.2722 121.95 74.0841C121.95 72.896 120.986 71.9329 119.798 71.9329C118.61 71.9329 117.647 72.896 117.647 74.0841C117.647 75.2722 118.61 76.2354 119.798 76.2354Z" fill="#F4EEA9"/>
</svg>
