<svg width="114" height="71" viewBox="0 0 114 71" fill="none" xmlns="http://www.w3.org/2000/svg">
<g clip-path="url(#clip0_454_422)">
<path fill-rule="evenodd" clip-rule="evenodd" d="M57.6239 1.32765L56.959 0.664062L56.2942 1.32765L25.7648 31.7983L27.0945 33.1305L56.959 3.32354L86.8236 33.1305L88.1533 31.7983L57.6239 1.32765ZM57.7456 9.0964L57.0812 8.42529L56.4124 9.0918L52.1183 13.3706C51.7501 13.7375 51.749 14.3335 52.1158 14.7016C52.4828 15.0698 53.0786 15.0709 53.4469 14.704L56.1355 12.025V17.5689L51.6562 21.9197C51.2834 22.2819 51.2746 22.8777 51.6369 23.2506C51.999 23.6234 52.5949 23.6322 52.9677 23.2699L56.1355 20.193V25.5386L51.2751 30.6805C50.9181 31.0583 50.9348 31.6539 51.3125 32.011C51.6903 32.368 52.2859 32.3513 52.643 31.9736L56.1355 28.2789V31.327V32.2682H58.0178V31.327V28.3193L61.3852 31.9656C61.7379 32.3475 62.3334 32.3711 62.7152 32.0184C63.0971 31.6658 63.1208 31.0703 62.7681 30.6885L58.0178 25.545V20.253L60.9965 23.2575C61.3625 23.6266 61.9584 23.6292 62.3276 23.2632C62.6966 22.8972 62.6992 22.3013 62.3334 21.9322L58.0178 17.5793V12.0472L60.6431 14.6993C61.0088 15.0689 61.6046 15.0718 61.9741 14.7062C62.3435 14.3405 62.3465 13.7446 61.9809 13.3752L57.7456 9.0964ZM43.4558 21.796L43.7889 22.1342L45.5125 23.8846C45.6949 24.0698 45.6926 24.3678 45.5075 24.5502C45.3223 24.7325 45.0243 24.7302 44.8419 24.545L43.9242 23.613V25.6293L45.6559 27.3852C45.8384 27.5703 45.8364 27.8682 45.6514 28.0507C45.4663 28.2332 45.1683 28.2311 44.9858 28.046L43.9242 26.9697V28.8898L45.835 30.9696C46.0109 31.161 45.9982 31.4586 45.8069 31.6345C45.6155 31.8103 45.3177 31.7977 45.1419 31.6063L43.9242 30.2809V31.2879V31.7585H42.983V31.2879V30.2605L41.7136 31.6103C41.5356 31.7997 41.2378 31.8087 41.0484 31.6307C40.8591 31.4527 40.8499 31.1549 41.0279 30.9656L42.983 28.8866V26.9394L41.8432 28.0524C41.6572 28.2339 41.3594 28.2304 41.1777 28.0444C40.9962 27.8584 40.9997 27.5605 41.1857 27.379L42.983 25.6242V23.6018L42.039 24.5473C41.8554 24.7312 41.5574 24.7315 41.3735 24.5478C41.1896 24.3642 41.1894 24.0663 41.373 23.8823L43.1205 22.1319L43.4558 21.796ZM70.9654 22.1342L70.6323 21.796L70.297 22.1319L68.5495 23.8823C68.3658 24.0663 68.3661 24.3642 68.5499 24.5478C68.7338 24.7315 69.0318 24.7312 69.2155 24.5473L70.1595 23.6018V25.6242L68.3622 27.379C68.1762 27.5605 68.1726 27.8584 68.3542 28.0444C68.5358 28.2304 68.8337 28.2339 69.0197 28.0524L70.1595 26.9394V28.8866L68.2044 30.9656C68.0264 31.1549 68.0356 31.4527 68.2249 31.6307C68.4143 31.8087 68.7121 31.7997 68.8901 31.6103L70.1595 30.2605V31.2879V31.7585H71.1006V31.2879V30.2809L72.3184 31.6063C72.4942 31.7977 72.7919 31.8103 72.9833 31.6345C73.1746 31.4586 73.1873 31.161 73.0115 30.9696L71.1006 28.8898V26.9697L72.1623 28.046C72.3448 28.2311 72.6428 28.2332 72.8278 28.0507C73.0129 27.8682 73.0149 27.5703 72.8324 27.3852L71.1006 25.6293V23.613L72.0184 24.545C72.2008 24.7302 72.4988 24.7325 72.6839 24.5502C72.8691 24.3678 72.8714 24.0698 72.689 23.8846L70.9654 22.1342ZM34.3256 14.6972C33.8143 14.172 33.1588 13.8102 32.4418 13.6576C31.725 13.5049 30.9789 13.5683 30.2981 13.8397C29.6172 14.111 29.0321 14.5782 28.6168 15.182C28.2014 15.7859 27.9744 16.4995 27.9645 17.2324C27.9547 17.9652 28.1624 18.6846 28.5614 19.2995C28.9603 19.9143 29.5327 20.397 30.2059 20.6866C30.8794 20.9762 31.6234 21.0596 32.3441 20.9263C33.0456 20.7965 33.6942 20.4672 34.2125 19.9784L34.2129 19.9786L34.2508 19.9419L34.255 19.9377L42.8115 11.6083C43.1839 11.2457 43.1921 10.6498 42.8295 10.2774C42.4669 9.90491 41.871 9.8969 41.4985 10.2595L32.9404 18.5904C32.2187 19.2913 31.0654 19.2752 30.3635 18.5542C29.6609 17.8325 29.6764 16.678 30.3981 15.9756C31.1197 15.2731 32.2743 15.2886 32.9768 16.0103L34.3256 14.6972ZM81.5913 13.6576C80.8744 13.8102 80.2189 14.172 79.7077 14.6972L81.0565 16.0103C81.759 15.2886 82.9135 15.2731 83.6351 15.9756C84.3568 16.678 84.3723 17.8325 83.6698 18.5542C82.9678 19.2752 81.8145 19.2913 81.0928 18.5904L72.5346 10.2595C72.1622 9.8969 71.5664 9.90491 71.2038 10.2774C70.8412 10.6498 70.8492 11.2457 71.2217 11.6083L79.7782 19.9377L79.7825 19.9419L79.8203 19.9786L79.8206 19.9784C80.339 20.4672 80.9877 20.7965 81.6891 20.9263C82.4098 21.0596 83.1539 20.9762 83.8272 20.6866C84.5005 20.397 85.0729 19.9143 85.4718 19.2995C85.8709 18.6846 86.0785 17.9652 86.0686 17.2324C86.0589 16.4995 85.8318 15.7859 85.4165 15.182C85.0011 14.5782 84.4161 14.111 83.7351 13.8397C83.0543 13.5683 82.3082 13.5049 81.5913 13.6576Z" fill="#F4EEA9"/>
<path d="M17.8203 57.7186L13.729 51.8739C16.1431 50.9337 17.5153 48.9516 17.5153 46.2579C17.5153 42.3191 14.6184 39.9304 9.94261 39.9304H2.62402V57.7186H5.92755V52.5346H9.94261C10.1713 52.5346 10.4 52.5346 10.6287 52.5092L14.2626 57.7186H17.8203ZM14.1864 46.2579C14.1864 48.4942 12.6871 49.8156 9.79014 49.8156H5.92755V42.7257H9.79014C12.6871 42.7257 14.1864 44.0217 14.1864 46.2579ZM34.5271 57.7186H37.9831L29.953 39.9304H26.7003L18.6956 57.7186H22.1007L23.8541 53.6019H32.7483L34.5271 57.7186ZM24.9723 51.0099L28.3012 43.2339L31.6556 51.0099H24.9723ZM52.7733 39.9304V51.9756L42.9644 39.9304H40.2453V57.7186H43.5234V45.6735L53.3324 57.7186H56.0514V39.9304H52.7733ZM72.9647 54.161C71.8212 54.8217 70.576 55.0758 69.3054 55.0758C65.5445 55.0758 62.8763 52.433 62.8763 48.8245C62.8763 45.1398 65.5445 42.5732 69.3308 42.5732C71.2367 42.5732 72.8377 43.2085 74.2353 44.6062L76.3191 42.5732C74.6419 40.6673 72.1515 39.6763 69.1784 39.6763C63.6132 39.6763 59.5473 43.5135 59.5473 48.8245C59.5473 54.1356 63.6132 57.9728 69.1275 57.9728C71.6433 57.9728 74.2353 57.2104 76.0904 55.7111V48.6212H72.9647V54.161ZM83.7511 54.9488V50.0443H92.3403V47.3252H83.7511V42.7003H93.433V39.9304H80.4475V57.7186H93.7887V54.9488H83.7511ZM112.668 57.7186L108.576 51.8739C110.99 50.9337 112.363 48.9516 112.363 46.2579C112.363 42.3191 109.466 39.9304 104.79 39.9304H97.4714V57.7186H100.775V52.5346H104.79C105.019 52.5346 105.247 52.5346 105.476 52.5092L109.11 57.7186H112.668ZM109.034 46.2579C109.034 48.4942 107.534 49.8156 104.638 49.8156H100.775V42.7257H104.638C107.534 42.7257 109.034 44.0217 109.034 46.2579Z" fill="white"/>
<path d="M17.9078 62.535H15.5953V68.4645H16.4424V66.6687H17.9078C19.4495 66.6687 20.3812 65.8894 20.3812 64.6019C20.3812 63.3143 19.4495 62.535 17.9078 62.535ZM17.8824 65.9318H16.4424V63.272H17.8824C18.9666 63.272 19.5342 63.7548 19.5342 64.6019C19.5342 65.4489 18.9666 65.9318 17.8824 65.9318ZM26.3463 68.4645H27.2357L24.542 62.535H23.7035L21.0183 68.4645H21.8907L22.543 66.9821H25.694L26.3463 68.4645ZM22.8395 66.3045L24.1185 63.399L25.3976 66.3045H22.8395ZM33.5959 68.4645L32.1898 66.4739C33.0199 66.1774 33.4943 65.5167 33.4943 64.6019C33.4943 63.3143 32.5625 62.535 31.0209 62.535H28.7084V68.4645H29.5555V66.6602H31.0209C31.1479 66.6602 31.275 66.6518 31.3936 66.6433L32.6726 68.4645H33.5959ZM30.9955 65.9402H29.5555V63.272H30.9955C32.0797 63.272 32.6472 63.7548 32.6472 64.6019C32.6472 65.4489 32.0797 65.9402 30.9955 65.9402ZM39.6524 68.4645H40.6435L37.9498 65.2033L40.4825 62.535H39.5169L36.298 65.8471V62.535H35.451V68.4645H36.298V66.9313L37.3823 65.8301L39.6524 68.4645ZM49.7849 68.0155L48.9886 67.2193C49.2258 66.8466 49.4037 66.3892 49.5053 65.864L48.8531 65.6522C48.7769 66.0673 48.6498 66.423 48.4889 66.728L47.0235 65.2711C47.9298 64.7543 48.2856 64.3223 48.2856 63.7209C48.2856 62.9501 47.7096 62.4842 46.8117 62.4842C45.8376 62.4842 45.2107 63.0179 45.2107 63.8141C45.2107 64.2546 45.3886 64.6358 45.9223 65.1694C44.8973 65.7539 44.4823 66.2621 44.4823 66.9906C44.4823 67.8969 45.3547 68.5322 46.5576 68.5322C47.3453 68.5322 48.023 68.2696 48.5397 67.7699L49.3274 68.5576L49.7849 68.0155ZM46.8117 63.0772C47.3199 63.0772 47.5994 63.3398 47.5994 63.7294C47.5994 64.1021 47.3453 64.3732 46.566 64.8136C46.0832 64.3223 45.9646 64.1021 45.9646 63.7972C45.9646 63.3736 46.278 63.0772 46.8117 63.0772ZM46.6084 67.8546C45.8122 67.8546 45.2785 67.4734 45.2785 66.9059C45.2785 66.4315 45.5411 66.0842 46.3712 65.6183L48.0569 67.2955C47.6757 67.6682 47.1759 67.8546 46.6084 67.8546ZM56.9002 68.5322C57.8234 68.5322 58.6197 68.2103 59.1618 67.6005L58.6112 67.0668C58.1538 67.5496 57.5947 67.7783 56.9425 67.7783C55.6042 67.7783 54.6131 66.8127 54.6131 65.4998C54.6131 64.1868 55.6042 63.2212 56.9425 63.2212C57.5947 63.2212 58.1538 63.4414 58.6112 63.9242L59.1618 63.3906C58.6197 62.7807 57.8234 62.4673 56.9086 62.4673C55.1044 62.4673 53.766 63.7463 53.766 65.4998C53.766 67.2532 55.1044 68.5322 56.9002 68.5322ZM65.2479 68.4645H66.1373L63.4437 62.535H62.6051L59.9199 68.4645H60.7924L61.4446 66.9821H64.5957L65.2479 68.4645ZM61.7411 66.3045L63.0202 63.399L64.2992 66.3045H61.7411ZM73.9206 68.4645L73.9122 62.535H73.2176L70.778 66.7026L68.3046 62.535H67.61V68.4645H68.4232V64.1699L70.5663 67.7445H70.9559L73.099 64.1445L73.1075 68.4645H73.9206ZM78.6009 62.535H76.2884V68.4645H77.1354V66.6687H78.6009C80.1425 66.6687 81.0743 65.8894 81.0743 64.6019C81.0743 63.3143 80.1425 62.535 78.6009 62.535ZM78.5754 65.9318H77.1354V63.272H78.5754C79.6597 63.272 80.2272 63.7548 80.2272 64.6019C80.2272 65.4489 79.6597 65.9318 78.5754 65.9318ZM82.9069 68.4645H83.7539V62.535H82.9069V68.4645ZM90.3697 62.535V66.9567L86.812 62.535H86.1174V68.4645H86.9645V64.0428L90.5221 68.4645H91.2167V62.535H90.3697ZM97.6879 67.3972C97.2644 67.6682 96.7985 67.7783 96.2987 67.7783C94.935 67.7783 93.9439 66.8042 93.9439 65.4998C93.9439 64.1783 94.935 63.2212 96.3072 63.2212C96.9764 63.2212 97.5354 63.4329 98.0267 63.9073L98.5519 63.3821C98.0098 62.7807 97.2136 62.4673 96.2733 62.4673C94.4352 62.4673 93.0969 63.7463 93.0969 65.4998C93.0969 67.2532 94.4352 68.5322 96.2564 68.5322C97.0865 68.5322 97.9081 68.2781 98.5011 67.7783V65.4659H97.6879V67.3972Z" fill="white"/>
<path d="M8.94119 67.2881C9.98079 67.2881 10.8235 66.4454 10.8235 65.4058C10.8235 64.3662 9.98079 63.5234 8.94119 63.5234C7.9016 63.5234 7.05884 64.3662 7.05884 65.4058C7.05884 66.4454 7.9016 67.2881 8.94119 67.2881Z" fill="#F4EEA9"/>
<path d="M105.059 67.2881C106.098 67.2881 106.941 66.4454 106.941 65.4058C106.941 64.3662 106.098 63.5234 105.059 63.5234C104.019 63.5234 103.177 64.3662 103.177 65.4058C103.177 66.4454 104.019 67.2881 105.059 67.2881Z" fill="#F4EEA9"/>
</g>
<defs>
<clipPath id="clip0_454_422">
<rect width="113.529" height="70" fill="white" transform="translate(0.235352 0.582031)"/>
</clipPath>
</defs>
</svg>
