<svg width="18" height="14" viewBox="0 0 18 14" fill="none" xmlns="http://www.w3.org/2000/svg">
<path d="M8.76562 4.24023C8.82422 4.18164 8.91211 4.15234 9 4.15234C9.05859 4.15234 9.14648 4.18164 9.20508 4.24023L14.625 8.66406V13.4688C14.625 13.7324 14.3906 13.9375 14.1562 13.9375H10.8457C10.6113 13.9375 10.377 13.7324 10.377 13.4688V10.6562C10.377 10.4219 10.1719 10.1875 9.9082 10.1875H8.0332C7.79883 10.1875 7.56445 10.4219 7.56445 10.6562V13.4688C7.56445 13.7324 7.35938 13.9375 7.125 13.9375H3.84375C3.58008 13.9375 3.375 13.7324 3.375 13.4688V8.69336L8.76562 4.24023ZM17.291 7.25781C17.3789 7.31641 17.4375 7.43359 17.4375 7.52148C17.4375 7.60938 17.4082 7.69727 17.3496 7.75586L16.5879 8.66406C16.5293 8.75195 16.4414 8.78125 16.3242 8.78125C16.2363 8.78125 16.1484 8.75195 16.0898 8.69336L9.20508 3.03906C9.14648 2.98047 9.05859 2.95117 9 2.95117C8.91211 2.95117 8.82422 2.98047 8.76562 3.03906L1.88086 8.69336C1.82227 8.75195 1.73438 8.78125 1.64648 8.78125C1.5293 8.78125 1.44141 8.75195 1.38281 8.66406L0.621094 7.75586C0.591797 7.69727 0.533203 7.60938 0.533203 7.52148C0.533203 7.43359 0.591797 7.31641 0.679688 7.25781L8.0918 1.13477C8.32617 0.958984 8.64844 0.841797 9 0.841797C9.32227 0.841797 9.64453 0.958984 9.87891 1.13477L12.5156 3.30273V1.19336C12.5156 0.988281 12.6621 0.841797 12.8672 0.841797H14.5078C14.6836 0.841797 14.8594 0.988281 14.8594 1.19336V5.23633L17.291 7.25781Z" fill="white"/>
</svg>
