<svg width="12" height="11" viewBox="0 0 12 11" fill="none" xmlns="http://www.w3.org/2000/svg">
<path d="M6 6.03589L2.01562 10.0203C1.72266 10.3132 1.2832 10.3132 1.01953 10.0203L0.345703 9.37573C0.0820312 9.08276 0.0820312 8.64331 0.345703 8.37964L3.1875 5.56714L0.345703 2.72534C0.0820312 2.46167 0.0820312 2.02222 0.345703 1.72925L1.01953 1.05542C1.2832 0.791748 1.72266 0.791748 2.01562 1.05542L6 5.03979C6.26367 5.33276 6.26367 5.77222 6 6.03589ZM11.625 5.03979C11.8887 5.33276 11.8887 5.77222 11.625 6.03589L7.64062 10.0203C7.37695 10.3132 6.9082 10.3132 6.64453 10.0203L5.9707 9.37573C5.70703 9.08276 5.70703 8.64331 5.9707 8.37964L8.8125 5.53784L5.9707 2.72534C5.70703 2.46167 5.70703 1.99292 5.9707 1.72925L6.64453 1.05542C6.9082 0.791748 7.34766 0.791748 7.64062 1.05542L11.625 5.03979Z" fill="white"/>
</svg>
