<svg width="32" height="32" viewBox="0 0 32 32" fill="none" xmlns="http://www.w3.org/2000/svg">
<rect width="32" height="32" rx="16" fill="#389844"/>
<path d="M23.0117 12.168C23.3398 13.3164 23.3398 15.7773 23.3398 15.7773C23.3398 15.7773 23.3398 18.2109 23.0117 19.3867C22.8477 20.043 22.3281 20.5352 21.6992 20.6992C20.5234 21 15.875 21 15.875 21C15.875 21 11.1992 21 10.0234 20.6992C9.39453 20.5352 8.875 20.043 8.71094 19.3867C8.38281 18.2109 8.38281 15.7773 8.38281 15.7773C8.38281 15.7773 8.38281 13.3164 8.71094 12.168C8.875 11.5117 9.39453 10.9922 10.0234 10.8281C11.1992 10.5 15.875 10.5 15.875 10.5C15.875 10.5 20.5234 10.5 21.6992 10.8281C22.3281 10.9922 22.8477 11.5117 23.0117 12.168ZM14.3438 17.9922L18.2266 15.7773L14.3438 13.5625V17.9922Z" fill="white"/>
</svg>
