<svg width="32" height="32" viewBox="0 0 32 32" fill="none" xmlns="http://www.w3.org/2000/svg">
<rect width="32" height="32" rx="16" fill="#389844"/>
<path d="M21.5508 12.9062C21.5508 13.043 21.5508 13.1523 21.5508 13.2891C21.5508 17.0898 18.6797 21.4375 13.4023 21.4375C11.7617 21.4375 10.2578 20.9727 9 20.1523C9.21875 20.1797 9.4375 20.207 9.68359 20.207C11.0234 20.207 12.2539 19.7422 13.2383 18.9766C11.9805 18.9492 10.9141 18.1289 10.5586 16.9805C10.75 17.0078 10.9141 17.0352 11.1055 17.0352C11.3516 17.0352 11.625 16.9805 11.8438 16.9258C10.5312 16.6523 9.54688 15.5039 9.54688 14.1094V14.082C9.92969 14.3008 10.3945 14.4102 10.8594 14.4375C10.0664 13.918 9.57422 13.043 9.57422 12.0586C9.57422 11.5117 9.71094 11.0195 9.95703 10.6094C11.3789 12.332 13.5117 13.4805 15.8906 13.6172C15.8359 13.3984 15.8086 13.1797 15.8086 12.9609C15.8086 11.375 17.0938 10.0898 18.6797 10.0898C19.5 10.0898 20.2383 10.418 20.7852 10.9922C21.4141 10.8555 22.043 10.6094 22.5898 10.2812C22.3711 10.9648 21.9336 11.5117 21.332 11.8672C21.9062 11.8125 22.4805 11.6484 22.9727 11.4297C22.5898 12.0039 22.0977 12.4961 21.5508 12.9062Z" fill="white"/>
</svg>
