<svg xmlns="http://www.w3.org/2000/svg" viewBox="0 0 48 48"><defs><style>.cls-1{fill:#dad7e5;}.cls-2{fill:#edebf2;}.cls-3{fill:#c6c3d8;}</style></defs><title>Toilets</title><g id="Toilets"><path class="cls-1" d="M42,25a12,12,0,0,1-4.27,9.19C34.29,37.07,31.07,37,28,37A12,12,0,0,1,16,25Z"/><path class="cls-2" d="M42,25a12,12,0,0,1-4.27,9.19,15.45,15.45,0,0,1-6.37.81A12,12,0,0,1,19.53,25Z"/><rect class="cls-3" x="6" y="1" width="10" height="4"/><path class="cls-1" d="M16,1V5H13A4,4,0,0,1,9,1Z"/><rect class="cls-1" x="6" y="5" width="10" height="20"/><path class="cls-2" d="M16,5c0,18.76-.1,18,0,18a7,7,0,0,1-7-7V5Z"/><path class="cls-3" d="M36,47H8c3.2-8,2.78-14.91,1-22h7A12,12,0,0,0,28,37c2.39,0,4.12.12,6.64-.92a12.57,12.57,0,0,0,.68,9.57Z"/><path class="cls-1" d="M8,47A33.24,33.24,0,0,0,9.49,27H14A12,12,0,0,0,26,39c2.39,0,4.12.12,6.64-.92A12.58,12.58,0,0,0,33,47Z"/><path class="cls-1" d="M42,25H16V21H38A4,4,0,0,1,42,25Z"/><path class="cls-2" d="M41.46,23H21a2,2,0,0,1-2-2c0-.1-.93,0,19,0A4,4,0,0,1,41.46,23Z"/><path d="M43,25a5,5,0,0,0-5-5H17V13h1a1,1,0,0,0,0-2H17V1a1,1,0,0,0-1-1H6A1,1,0,0,0,5,1V25a1,1,0,0,0,1,1H8.22A32.25,32.25,0,0,1,7.07,46.63,1,1,0,0,0,8,48c30.14,0,28.42.22,28.85-.47s0-1-.55-2.16a11,11,0,0,1-.45-8.78A13,13,0,0,0,43,25ZM30,36H28A11,11,0,0,1,17,26H41A11,11,0,0,1,30,36Zm8-14a3,3,0,0,1,2.83,2H17V22ZM15,2V4H7V2ZM7,6h8v5H13.72a2,2,0,1,0,0,2H15V24H7ZM34.39,46h-25a34.06,34.06,0,0,0,.92-19.69c-.11-.43-.78-.31,4.69-.31A13,13,0,0,0,28,38a17.44,17.44,0,0,0,5.5-.49A13,13,0,0,0,34.39,46Z"/></g></svg>